<svg width="1198" height="696" viewBox="0 0 1198 696" fill="none" xmlns="http://www.w3.org/2000/svg">
<mask id="mask0_618_2431" style="mask-type:alpha" maskUnits="userSpaceOnUse" x="0" y="13" width="1198" height="1185">
<path d="M0 456.109C0 435.282 0 424.869 2.87057 415.416C5.41186 407.048 9.5782 399.263 15.1312 392.507C21.4037 384.875 30.0682 379.099 47.3971 367.547L539.675 39.361C561.013 25.1356 571.682 18.0229 583.214 15.2595C593.405 12.8174 604.029 12.8174 614.219 15.2595C625.751 18.0229 636.42 25.1356 657.758 39.361L1150.04 367.547C1167.37 379.099 1176.03 384.875 1182.3 392.507C1187.86 399.263 1192.02 407.048 1194.56 415.416C1197.43 424.869 1197.43 435.282 1197.43 456.109V1091C1197.43 1128.25 1197.43 1146.88 1190.18 1161.11C1183.81 1173.63 1173.63 1183.81 1161.11 1190.18C1146.88 1197.43 1128.25 1197.43 1091 1197.43H106.439C69.1816 1197.43 50.5531 1197.43 36.3228 1190.18C23.8055 1183.81 13.6286 1173.63 7.25069 1161.11C0 1146.88 0 1128.25 0 1091V456.109Z" fill="black"/>
</mask>
<g mask="url(#mask0_618_2431)">
<g filter="url(#filter0_di_618_2431)">
<path d="M0 399.146L-3.48943e-05 1197.43L406.85 882.454C443.87 853.794 462.379 839.464 469.04 822.023C474.876 806.739 474.876 789.841 469.04 774.557C462.379 757.117 443.87 742.787 406.85 714.127L0 399.146Z" fill="url(#paint0_linear_618_2431)"/>
<path d="M6.23629 1184.72L403.032 877.522C421.632 863.122 435.254 852.569 445.091 843.456C454.895 834.374 460.382 827.21 463.213 819.798C468.502 805.947 468.502 790.633 463.213 776.782C460.382 769.37 454.895 762.206 445.091 753.124C435.254 744.011 421.632 733.458 403.032 719.058L6.23633 411.861L6.23629 1184.72Z" stroke="url(#paint1_linear_618_2431)" stroke-width="12.4733"/>
</g>
<g filter="url(#filter1_di_618_2431)">
<path d="M1197.43 399.146L1197.43 1197.43L790.583 882.454C753.564 853.794 735.054 839.464 728.394 822.023C722.557 806.739 722.557 789.841 728.394 774.557C735.054 757.117 753.564 742.787 790.583 714.127L1197.43 399.146Z" fill="url(#paint2_linear_618_2431)"/>
<path d="M1191.2 1184.72L794.401 877.522C775.801 863.122 762.18 852.569 752.343 843.456C742.539 834.374 737.051 827.21 734.221 819.798C728.931 805.947 728.931 790.633 734.221 776.782C737.051 769.37 742.539 762.206 752.343 753.124C762.18 744.011 775.801 733.458 794.401 719.058L1191.2 411.861L1191.2 1184.72Z" stroke="url(#paint3_linear_618_2431)" stroke-width="12.4733"/>
</g>
<g style="mix-blend-mode:multiply" opacity="0.4">
<g filter="url(#filter2_f_618_2431)">
<path d="M24.9453 1197.43H1172.49L669.856 745.796C644.708 723.199 632.133 711.901 617.917 707.615C605.394 703.84 592.037 703.84 579.514 707.615C565.298 711.901 552.724 723.199 527.575 745.796L24.9453 1197.43Z" fill="#334155" fill-opacity="0.4"/>
</g>
<g filter="url(#filter3_f_618_2431)">
<path d="M91.4688 1197.43H1105.96L677.946 720.303C650.517 689.726 636.802 674.438 620.639 668.796C606.443 663.841 590.987 663.841 576.791 668.796C560.628 674.438 546.913 689.726 519.484 720.303L91.4688 1197.43Z" fill="#334155" fill-opacity="0.2"/>
</g>
<g filter="url(#filter4_f_618_2431)">
<path d="M24.9453 1197.43H1172.49L676.563 665.575C649.504 636.555 635.974 622.045 620.155 616.66C606.254 611.927 591.177 611.927 577.276 616.66C561.457 622.045 547.927 636.555 520.868 665.575L24.9453 1197.43Z" fill="#344256" fill-opacity="0.1"/>
</g>
</g>
<path d="M12.4766 1180.8L528.239 738.198C553.25 716.735 565.755 706.004 579.781 701.92C592.142 698.321 605.274 698.328 617.632 701.942C631.653 706.041 644.146 716.787 669.132 738.279L1193.28 1189.12" stroke="#475569" stroke-opacity="0.06" stroke-width="8.31551"/>
<g filter="url(#filter5_f_618_2431)">
<path d="M0 552.981L0 1197.43H1197.43V552.981" stroke="url(#paint4_linear_618_2431)" stroke-width="133.048"/>
</g>
<path d="M0 432.407V1091C0 1128.25 0 1146.88 7.25069 1161.11C13.6286 1173.63 23.8055 1183.81 36.3228 1190.18C50.5531 1197.43 69.1816 1197.43 106.439 1197.43H1090.99C1128.25 1197.43 1146.88 1197.43 1161.11 1190.18C1173.63 1183.81 1183.8 1173.63 1190.18 1161.11C1197.43 1146.88 1197.43 1128.25 1197.43 1091V432.407" stroke="white" stroke-opacity="0.4" stroke-width="16.631" stroke-linecap="round"/>
</g>
<defs>
<filter id="filter0_di_618_2431" x="-16.631" y="349.252" width="639.728" height="964.599" filterUnits="userSpaceOnUse" color-interpolation-filters="sRGB">
<feFlood flood-opacity="0" result="BackgroundImageFix"/>
<feColorMatrix in="SourceAlpha" type="matrix" values="0 0 0 0 0 0 0 0 0 0 0 0 0 0 0 0 0 0 127 0" result="hardAlpha"/>
<feOffset dx="66.5241" dy="33.2621"/>
<feGaussianBlur stdDeviation="41.5776"/>
<feComposite in2="hardAlpha" operator="out"/>
<feColorMatrix type="matrix" values="0 0 0 0 0 0 0 0 0 0 0 0 0 0 0 0 0 0 0.1 0"/>
<feBlend mode="normal" in2="BackgroundImageFix" result="effect1_dropShadow_618_2431"/>
<feBlend mode="normal" in="SourceGraphic" in2="effect1_dropShadow_618_2431" result="shape"/>
<feColorMatrix in="SourceAlpha" type="matrix" values="0 0 0 0 0 0 0 0 0 0 0 0 0 0 0 0 0 0 127 0" result="hardAlpha"/>
<feOffset dy="8.31551"/>
<feComposite in2="hardAlpha" operator="arithmetic" k2="-1" k3="1"/>
<feColorMatrix type="matrix" values="0 0 0 0 1 0 0 0 0 1 0 0 0 0 1 0 0 0 0.6 0"/>
<feBlend mode="normal" in2="shape" result="effect2_innerShadow_618_2431"/>
</filter>
<filter id="filter1_di_618_2431" x="574.336" y="349.252" width="639.728" height="964.599" filterUnits="userSpaceOnUse" color-interpolation-filters="sRGB">
<feFlood flood-opacity="0" result="BackgroundImageFix"/>
<feColorMatrix in="SourceAlpha" type="matrix" values="0 0 0 0 0 0 0 0 0 0 0 0 0 0 0 0 0 0 127 0" result="hardAlpha"/>
<feOffset dx="-66.5241" dy="33.2621"/>
<feGaussianBlur stdDeviation="41.5776"/>
<feComposite in2="hardAlpha" operator="out"/>
<feColorMatrix type="matrix" values="0 0 0 0 0 0 0 0 0 0 0 0 0 0 0 0 0 0 0.1 0"/>
<feBlend mode="normal" in2="BackgroundImageFix" result="effect1_dropShadow_618_2431"/>
<feBlend mode="normal" in="SourceGraphic" in2="effect1_dropShadow_618_2431" result="shape"/>
<feColorMatrix in="SourceAlpha" type="matrix" values="0 0 0 0 0 0 0 0 0 0 0 0 0 0 0 0 0 0 127 0" result="hardAlpha"/>
<feOffset dy="8.31551"/>
<feComposite in2="hardAlpha" operator="arithmetic" k2="-1" k3="1"/>
<feColorMatrix type="matrix" values="0 0 0 0 1 0 0 0 0 1 0 0 0 0 1 0 0 0 0.6 0"/>
<feBlend mode="normal" in2="shape" result="effect2_innerShadow_618_2431"/>
</filter>
<filter id="filter2_f_618_2431" x="-8.31674" y="671.521" width="1214.06" height="559.175" filterUnits="userSpaceOnUse" color-interpolation-filters="sRGB">
<feFlood flood-opacity="0" result="BackgroundImageFix"/>
<feBlend mode="normal" in="SourceGraphic" in2="BackgroundImageFix" result="shape"/>
<feGaussianBlur stdDeviation="16.631" result="effect1_foregroundBlur_618_2431"/>
</filter>
<filter id="filter3_f_618_2431" x="-8.3174" y="565.293" width="1214.06" height="731.928" filterUnits="userSpaceOnUse" color-interpolation-filters="sRGB">
<feFlood flood-opacity="0" result="BackgroundImageFix"/>
<feBlend mode="normal" in="SourceGraphic" in2="BackgroundImageFix" result="shape"/>
<feGaussianBlur stdDeviation="49.8931" result="effect1_foregroundBlur_618_2431"/>
</filter>
<filter id="filter4_f_618_2431" x="-174.627" y="413.538" width="1546.68" height="983.469" filterUnits="userSpaceOnUse" color-interpolation-filters="sRGB">
<feFlood flood-opacity="0" result="BackgroundImageFix"/>
<feBlend mode="normal" in="SourceGraphic" in2="BackgroundImageFix" result="shape"/>
<feGaussianBlur stdDeviation="99.7861" result="effect1_foregroundBlur_618_2431"/>
</filter>
<filter id="filter5_f_618_2431" x="-133.048" y="486.457" width="1463.53" height="844.025" filterUnits="userSpaceOnUse" color-interpolation-filters="sRGB">
<feFlood flood-opacity="0" result="BackgroundImageFix"/>
<feBlend mode="normal" in="SourceGraphic" in2="BackgroundImageFix" result="shape"/>
<feGaussianBlur stdDeviation="33.2621" result="effect1_foregroundBlur_618_2431"/>
</filter>
<linearGradient id="paint0_linear_618_2431" x1="257.781" y1="1197.43" x2="257.781" y2="399.145" gradientUnits="userSpaceOnUse">
<stop offset="0.28125" stop-color="#EEF0F1"/>
<stop offset="0.78125" stop-color="#F9FAFA"/>
</linearGradient>
<linearGradient id="paint1_linear_618_2431" x1="4.8183" y1="798.29" x2="515.562" y2="798.29" gradientUnits="userSpaceOnUse">
<stop stop-color="#F9FAFA"/>
<stop offset="0.693396" stop-color="#FFD1BB"/>
</linearGradient>
<linearGradient id="paint2_linear_618_2431" x1="939.653" y1="1197.43" x2="939.653" y2="399.145" gradientUnits="userSpaceOnUse">
<stop offset="0.28125" stop-color="#EEF0F1"/>
<stop offset="0.78125" stop-color="#F9FAFA"/>
</linearGradient>
<linearGradient id="paint3_linear_618_2431" x1="1192.62" y1="798.29" x2="681.872" y2="798.29" gradientUnits="userSpaceOnUse">
<stop stop-color="#F9FAFA"/>
<stop offset="0.693396" stop-color="#FFD1BB"/>
</linearGradient>
<linearGradient id="paint4_linear_618_2431" x1="598.717" y1="559.004" x2="598.717" y2="1197.43" gradientUnits="userSpaceOnUse">
<stop stop-color="#F9FAFA"/>
<stop offset="0.693396" stop-color="#FFD1BB"/>
</linearGradient>
</defs>
</svg>
