<svg width="607" height="675" viewBox="0 0 607 675" fill="none" xmlns="http://www.w3.org/2000/svg">
<path d="M409.375 436.002C410.201 435.97 411.019 436.169 411.738 436.575C412.457 436.982 413.049 437.581 413.447 438.305C414.616 440.298 415.75 442.325 416.884 444.353L426.799 461.811L436.249 478.599C438.294 482.224 440.373 485.832 442.418 489.44L450.889 504.425C453.586 509.184 456.319 513.909 459.017 518.669C460.357 521.04 461.663 523.446 463.003 525.817L467.711 534.15C468.106 534.872 468.45 535.611 468.604 536.161C468.979 536.895 469.196 537.698 469.243 538.521C469.29 539.343 469.166 540.167 468.879 540.938C468.192 543.017 467.47 545.08 466.748 547.142C465.356 551.076 463.999 555.011 462.59 558.929C460.803 563.946 458.896 568.947 457.178 573.964C455.253 579.313 453.346 584.652 451.456 589.979C449.36 595.832 447.275 601.692 445.201 607.557L440.373 621.303C438.913 625.427 437.418 629.533 435.957 633.657C433.815 639.637 431.678 645.616 429.548 651.596C429.324 652.249 429.084 652.885 428.826 653.521C428.515 654.398 427.978 655.178 427.269 655.781C426.56 656.385 425.704 656.79 424.788 656.957C423.07 657.301 421.352 657.645 419.634 657.954L412.761 659.088C411.214 659.328 409.53 659.552 408.104 659.758C406.677 659.964 405.268 660.222 403.859 660.479C400.904 660.978 398.086 661.511 394.993 662.009C391.9 662.507 388.79 662.937 385.697 663.436C383.979 663.728 382.261 664.105 380.543 664.397C379.546 664.569 378.515 664.673 377.519 664.827L368.017 666.339C366.865 666.528 365.714 666.768 364.58 666.975L355.302 668.556C354.03 668.779 352.741 668.933 351.452 669.14C348.652 669.586 345.748 670.016 342.861 670.497C339.7 671.081 336.538 671.666 333.394 672.216L329.957 672.782L317.019 674.827C315.776 675.137 314.463 675.001 313.311 674.442C312.158 673.883 311.238 672.937 310.712 671.769C308.633 668.246 306.622 664.672 304.561 661.149C300.483 654.196 296.399 647.243 292.31 640.29C289.389 635.364 286.479 630.427 283.581 625.479C279.887 619.207 276.226 612.883 272.532 606.577L258.03 582.022C256.089 578.741 254.078 575.39 252.171 572.159C250.264 568.929 248.39 565.682 246.518 562.417C245.839 561.3 245.451 560.03 245.391 558.724C245.331 557.418 245.6 556.117 246.174 554.942C246.775 553.774 247.343 552.606 247.893 551.42C250.711 545.429 253.516 539.431 256.312 533.429C258.666 528.532 260.899 523.617 263.185 518.737C265.693 513.342 268.236 507.981 270.745 502.603C274.72 493.92 278.73 485.248 282.773 476.588C284.732 472.378 286.708 468.169 288.649 463.959L293.941 452.738C295.671 448.958 297.425 445.184 299.2 441.415C299.543 440.55 300.13 439.804 300.89 439.267C301.649 438.73 302.549 438.425 303.479 438.391C304.097 438.253 304.715 438.253 305.316 438.253L321.503 437.841V437.669H332.362C334.081 437.652 335.799 437.497 337.518 437.497C338.405 437.436 339.296 437.505 340.163 437.703C341.192 437.985 342.115 438.567 342.812 439.375C343.51 440.183 343.952 441.18 344.081 442.239C344.768 445.59 345.473 449.199 346.092 452.274C346.71 455.35 347.362 458.426 347.964 461.502C348.617 464.852 349.219 468.22 349.854 471.57C350.044 472.584 350.284 473.582 350.49 474.578C351.401 479.2 352.346 483.822 353.239 488.444C353.927 492.001 354.562 495.558 355.232 499.115C355.713 501.589 356.212 504.081 356.693 506.555C357.26 509.51 357.827 512.449 358.411 515.404C358.531 516.006 358.669 516.607 358.807 517.208C359.117 518.409 359.826 519.47 360.817 520.216C361.734 520.89 362.875 521.186 364.004 521.042C365.133 520.898 366.164 520.325 366.883 519.442C367.558 518.573 367.974 517.531 368.085 516.436C368.291 513.927 368.48 511.349 368.687 508.892C368.893 506.435 369.082 503.995 369.306 501.538C369.632 497.792 369.992 494.063 370.302 490.317C370.731 485.214 371.144 480.145 371.557 474.99C371.814 471.794 372.072 468.581 372.347 465.385C372.467 463.959 372.639 462.533 372.759 461.106C373.154 456.278 373.515 451.432 373.91 446.604C374.065 444.765 374.254 442.926 374.392 441.088C374.474 440.061 374.857 439.082 375.491 438.271C375.834 437.791 376.275 437.389 376.784 437.093C377.294 436.797 377.86 436.612 378.446 436.552C378.784 436.534 379.122 436.534 379.46 436.552L407.949 436.002H409.375ZM84.5969 314.118C88.5488 314.221 92.518 314.392 96.4699 314.513C98.3085 314.65 100.164 314.65 102.003 314.65C104.185 314.719 106.573 314.942 108.549 314.942C110.525 314.942 112.518 314.788 114.494 314.942C119.546 315.423 124.701 315.183 129.855 315.424C134.495 315.63 139.134 315.733 145.681 315.939C149.1 316.025 154.427 316.128 159.736 316.3C164.238 316.454 168.74 316.712 173.259 316.85C177.348 316.97 181.455 317.091 185.545 317.091C187.383 317.142 189.222 317.297 191.078 317.297C193.707 317.366 196.267 317.469 198.861 317.469C201.731 317.555 204.584 317.813 207.453 317.812C208.646 317.803 209.82 318.118 210.849 318.723C211.877 319.328 212.723 320.201 213.295 321.249C216.193 326.129 219.086 331.009 221.973 335.889C225.192 341.376 228.399 346.857 231.595 352.333C231.994 352.973 232.35 353.639 232.66 354.326C233.212 355.47 233.368 356.765 233.107 358.008C232.846 359.251 232.182 360.373 231.217 361.199C225.942 365.856 220.632 370.478 215.356 375.117C212.865 377.42 210.271 379.739 207.711 381.99L192.916 394.946L175.201 410.497C174.591 411.031 174.017 411.605 173.482 412.215C172.914 412.835 172.492 413.575 172.245 414.379C171.998 415.183 171.933 416.032 172.055 416.864C172.176 417.697 172.481 418.492 172.948 419.191C173.415 419.891 174.032 420.478 174.754 420.91C175.483 421.367 176.309 421.646 177.165 421.727C178.021 421.807 178.884 421.686 179.686 421.374C181.249 420.944 182.761 420.291 184.256 419.655L210.03 408.71L230.237 400.204L248.554 392.472C249.184 392.204 249.841 392.002 250.513 391.87C251.483 391.639 252.5 391.696 253.439 392.031C254.379 392.367 255.2 392.968 255.805 393.761C256.24 394.301 256.631 394.875 256.974 395.479C260.593 401.584 264.207 407.696 267.815 413.813C270.496 418.332 273.211 422.851 275.892 427.37C276.235 427.954 276.561 428.556 276.854 429.175C277.253 429.971 277.474 430.845 277.501 431.735C277.528 432.625 277.36 433.511 277.009 434.329C276.321 435.893 275.582 437.422 274.86 438.969C271.922 445.137 269.001 451.323 266.046 457.475C264.499 460.671 262.902 463.85 261.355 467.046C259.11 471.731 256.893 476.468 254.705 481.256C251.509 487.974 248.399 494.573 245.117 501.412C241.835 508.251 238.485 515.021 235.203 521.894C232.712 527.048 230.306 532.204 227.814 537.358C225.787 541.551 223.707 545.692 221.646 549.867C221.119 550.973 220.296 551.912 219.268 552.576C218.239 553.241 217.046 553.606 215.821 553.631C210.598 554.129 205.271 554.593 200.116 555.074C197.865 555.28 195.563 555.452 193.243 555.676C192.161 555.779 191.078 555.985 189.995 556.088C186.662 556.397 183.397 556.62 179.789 556.964C176.181 557.308 172.589 557.72 168.998 558.081C165.94 558.373 163.069 558.648 159.805 558.923C156.54 559.198 153.258 559.336 150.011 559.748C142.691 560.693 135.337 561.156 127.982 561.844L113.515 563.201C110.25 563.51 106.968 563.751 103.703 564.061C99.6999 564.439 95.5419 564.903 91.676 565.264C87.8099 565.625 83.9264 565.916 80.0432 566.26C79.0175 566.362 77.9833 566.186 77.049 565.751C76.1149 565.316 75.3148 564.637 74.7336 563.786C74.2401 563.129 73.7809 562.446 73.3586 561.741L61.0217 541.121C58.7708 537.324 56.4511 533.543 54.1486 529.746C50.7121 524.076 47.2756 518.439 43.8391 512.752C40.4026 507.065 36.966 501.291 33.5295 495.569C31.1239 491.6 28.6665 487.648 26.2609 483.679C23.2884 478.782 20.3673 473.85 17.3947 468.936C15.0408 465.018 12.635 461.118 10.2639 457.2C8.8205 454.812 7.39431 452.388 5.93377 450C4.76544 448.076 3.54506 446.186 2.35956 444.262C1.80039 443.409 1.28979 442.525 0.830262 441.615C0.231564 440.502 -0.0525453 439.247 0.00799664 437.984C0.0685965 436.722 0.471755 435.501 1.17401 434.45C4.96561 428.459 8.7922 422.474 12.6525 416.494C15.7798 411.511 18.8208 406.493 21.9309 401.51C23.8553 398.451 25.8658 395.444 27.7902 392.386C29.9896 388.915 32.1379 385.393 34.3029 381.956C36.6569 378.193 38.9081 374.704 41.3996 370.684C43.891 366.663 46.3653 362.642 48.8566 358.656C50.9701 355.288 53.1182 351.972 55.2316 348.621C57.7746 344.515 60.3688 340.391 62.9289 336.284L68.0842 327.95C70.1919 324.594 72.311 321.243 74.4416 317.898C74.7337 317.434 75.0429 317.004 75.3693 316.558C75.8714 315.818 76.5447 315.21 77.3313 314.785C78.1177 314.361 78.9953 314.132 79.8889 314.118H84.5969ZM472.749 330.202L482.767 330.838C484.743 330.958 486.719 331.147 488.695 331.268C491.96 331.474 495.225 331.628 498.507 331.834C501.428 332.04 504.349 332.315 507.27 332.521L513.61 332.951C517.7 333.209 521.79 333.433 525.879 333.725C531.669 334.137 537.477 334.24 543.25 334.858C546.171 335.168 549.11 335.202 552.048 335.374C552.598 335.391 553.13 335.512 553.68 335.512C554.437 335.53 555.176 335.747 555.821 336.143C556.467 336.538 556.997 337.097 557.357 337.763C558.096 338.982 558.818 340.219 559.505 341.474C561.687 345.426 563.835 349.378 566.018 353.33C567.547 356.079 569.11 358.795 570.64 361.544L575.176 369.791C577.375 373.726 579.661 377.833 581.757 381.596C583.853 385.359 585.915 389.122 588.011 392.885L594.678 404.913L603.132 420.138C603.819 421.392 604.421 422.698 605.194 423.9C606.143 425.434 606.485 427.266 606.156 429.038C606.041 429.714 605.875 430.38 605.658 431.031C603.997 436.53 602.324 442.017 600.641 447.492C598.647 453.953 596.62 460.397 594.661 466.875C592.221 474.848 589.832 482.889 587.393 490.931C585.932 495.708 584.437 500.468 582.959 505.228C581.911 508.75 580.881 512.187 579.815 515.623C579.352 517.187 578.87 518.767 578.32 520.313C578.082 520.932 577.751 521.512 577.341 522.032C577.099 522.365 576.784 522.639 576.421 522.832C576.058 523.025 575.655 523.133 575.244 523.148C571.567 523.423 567.89 523.75 564.213 524.042C559.952 524.386 555.639 524.799 551.36 525.057C546.102 525.4 540.896 526.087 535.621 526.207C532.563 526.276 529.504 526.723 526.445 526.998L522.562 527.256L513.971 527.857L507.854 528.407L494.365 529.455L491.513 529.713H490.482C489.74 529.806 488.986 529.694 488.302 529.392C487.618 529.089 487.029 528.606 486.599 527.994C486.185 527.449 485.811 526.876 485.481 526.276L472.904 504.196C469.262 497.804 465.618 491.378 461.976 484.969L452.027 467.527L442.164 450.345C440.36 447.269 438.573 444.004 436.924 441.083C435.274 438.162 433.71 435.224 431.992 432.337C431.328 431.301 430.934 430.115 430.847 428.887C430.76 427.659 430.982 426.429 431.494 425.31C434.432 418.23 437.285 411.15 440.188 404.054C441.219 401.528 442.233 399.002 443.281 396.477C443.466 395.962 443.69 395.462 443.951 394.981C444.307 394.189 444.94 393.555 445.731 393.197C446.523 392.84 447.417 392.784 448.247 393.04C448.775 393.169 449.287 393.353 449.776 393.59C453.436 395.308 456.907 396.94 460.738 398.744C464.57 400.548 468.454 402.267 472.303 403.985L491.788 413.041C495.018 414.536 498.248 415.979 501.479 417.439C501.724 417.563 501.977 417.671 502.235 417.766C502.784 418.054 503.399 418.192 504.019 418.166C504.638 418.14 505.24 417.951 505.763 417.618C506.286 417.285 506.711 416.82 506.997 416.27C507.283 415.719 507.418 415.104 507.39 414.484C507.471 413.597 507.349 412.702 507.033 411.868C506.718 411.035 506.217 410.284 505.568 409.673C502.373 406.683 499.211 403.659 496.032 400.652C489.846 394.787 483.643 388.922 477.423 383.057L461.151 367.764C460.162 366.923 459.305 365.938 458.608 364.843C458.125 364.082 457.836 363.213 457.767 362.314C457.698 361.416 457.851 360.513 458.213 359.688C459.106 357.368 460.034 355.082 460.979 352.814C462.526 349.017 464.089 345.237 465.636 341.439L468.763 333.639C468.976 333.047 469.234 332.472 469.536 331.92C469.797 331.402 470.198 330.967 470.692 330.664C471.187 330.361 471.757 330.201 472.337 330.202C472.474 330.194 472.612 330.194 472.749 330.202ZM290.311 206.62C292.336 205.512 294.649 205.047 296.945 205.283C301.791 205.558 306.603 206.159 311.414 206.777C312.496 206.935 313.586 207.032 314.679 207.069C317.204 207.121 319.696 207.499 322.204 207.791C325.744 208.221 329.266 208.565 332.806 208.96C337.411 209.493 342.017 210.042 346.639 210.558L359.062 211.898L377.79 213.943C380.299 214.218 382.808 214.493 385.334 214.733C387.379 214.929 389.361 215.546 391.156 216.546C392.951 217.545 394.52 218.905 395.764 220.541C397.147 222.406 398.382 224.377 399.458 226.435C402.276 231.194 405.042 235.988 407.809 240.782C411.245 246.75 414.682 252.725 418.118 258.704L426.848 273.757C429.288 277.949 431.693 282.159 434.133 286.352L441.521 299.119C442.776 301.301 444.116 303.449 445.302 305.683C446.569 307.884 447.317 310.345 447.489 312.879C447.662 315.413 447.254 317.953 446.298 320.306C444.27 325.46 442.209 330.615 440.164 335.77C437.701 341.932 435.232 348.078 432.758 354.207C430.902 358.846 429.012 363.451 427.156 368.073C425.037 373.411 422.912 378.745 420.781 384.071C419.871 386.391 418.926 388.659 418.016 390.944C416.4 394.982 414.802 398.986 413.187 402.973C412.267 405.5 410.563 407.668 408.324 409.158C406.675 410.26 404.74 410.856 402.757 410.876C400.506 410.876 398.255 410.893 396.004 411.048C390.746 411.426 385.591 411.306 380.437 411.426C375.832 411.529 371.261 411.598 366.69 411.821C359.457 412.199 352.206 412.045 344.972 412.285C341.157 412.405 337.462 412.509 333.493 412.732C329.524 412.956 325.504 412.955 321.466 412.955C318.27 413.024 315.056 413.059 311.843 413.196C309.064 413.382 306.288 412.804 303.813 411.526C301.339 410.248 299.261 408.319 297.805 405.945C296.018 403.282 294.489 400.446 292.856 397.68C290.004 392.811 287.14 387.925 284.265 383.022L274.179 365.84C269.127 357.329 264.086 348.8 259.058 340.255C255.759 334.67 252.511 329.051 249.229 323.467C246.738 319.223 244.246 314.978 241.703 310.769C240.575 308.976 239.756 307.007 239.28 304.943C238.387 301.175 238.9 297.209 240.724 293.792C244.126 287.417 247.7 281.093 251.137 274.753C253.422 270.543 255.707 266.213 258.01 261.952C259.573 259.1 261.155 256.196 262.735 253.36C264.316 250.525 265.863 247.639 267.443 244.77L276.034 229.133C278.062 225.421 280.078 221.698 282.083 217.964C283.269 215.799 284.386 213.616 285.605 211.485C286.645 209.424 288.286 207.728 290.311 206.62ZM449.217 130.718C449.821 130.381 450.526 130.27 451.204 130.403C452.63 130.575 454.039 130.816 455.465 131.057C457.888 131.435 460.208 131.813 462.733 132.242C465.259 132.672 467.854 133.152 470.414 133.582L481.119 135.301L494.47 137.346C497.288 137.792 500.14 138.188 502.958 138.669C506.652 139.305 510.347 140.026 514.041 140.662C518.285 141.384 522.529 142.037 526.773 142.741C527.839 142.913 528.921 143.154 529.986 143.377C531.12 143.675 532.101 144.386 532.736 145.37C533.211 146.043 533.647 146.743 534.042 147.466C538.693 155.668 543.343 163.859 547.994 172.038C551.534 178.275 555.211 184.633 558.647 190.732C562.084 196.832 565.521 202.829 568.957 208.86C571.466 213.242 574.026 217.589 576.535 221.988C577.652 223.93 578.699 225.941 579.765 227.917C580.122 228.579 580.331 229.311 580.376 230.062C580.42 230.812 580.299 231.564 580.022 232.264C577.772 238.776 575.59 245.323 573.391 251.87C572.514 254.482 571.672 257.059 570.796 259.637C569.421 263.709 567.978 267.867 566.62 271.854C565.263 275.84 563.939 279.878 562.582 283.882C560.085 291.259 557.582 298.631 555.073 305.996C554.798 306.821 554.541 307.697 554.266 308.539C554.211 308.935 554.079 309.315 553.876 309.659C553.673 310.003 553.404 310.304 553.085 310.544C552.766 310.784 552.402 310.957 552.015 311.056C551.628 311.154 551.224 311.174 550.829 311.116H546.121C541.757 310.962 537.375 310.859 533.011 310.67C527.77 310.447 522.426 310.137 517.271 309.896C511.12 309.604 504.986 309.363 498.852 309.105C497.271 309.02 495.707 309.02 494.126 309.02C487.442 308.899 480.758 308.418 474.091 308.006C473.273 307.946 472.452 307.946 471.634 308.006C470.583 308.111 469.524 307.891 468.603 307.375C467.681 306.859 466.939 306.071 466.479 305.119C465.62 303.556 464.675 302.044 463.781 300.515L454.245 284.019C453.025 281.888 451.771 279.775 450.568 277.627C450.244 277.033 449.984 276.404 449.795 275.754C449.538 274.969 449.509 274.127 449.713 273.327C449.917 272.527 450.345 271.8 450.946 271.234L456.462 265.736L464.349 257.97L486.257 236.422C486.463 236.233 486.635 236.027 486.858 235.855C489.882 233.312 487.854 228.862 485.26 227.642C484.822 227.448 484.347 227.348 483.868 227.348C483.389 227.348 482.915 227.447 482.477 227.642L479.4 228.775L459.486 236.199L438.162 244.068C437.458 244.343 436.736 244.55 436.031 244.808C435.203 245.155 434.284 245.225 433.413 245.005C432.542 244.785 431.767 244.287 431.203 243.588C430.324 242.529 429.563 241.376 428.936 240.151C425.499 234.24 422.062 228.329 418.625 222.418C416.907 219.394 415.189 216.352 413.471 213.362C412.898 212.467 412.57 211.437 412.521 210.375C412.473 209.313 412.706 208.258 413.195 207.314C416.517 200.189 419.828 193.11 423.127 186.076C427.113 177.33 431.117 168.584 435.155 159.838C438.878 151.819 442.584 143.801 446.272 135.782C446.822 134.597 447.373 133.428 447.905 132.242C448.149 131.595 448.613 131.054 449.217 130.718ZM82.6789 65.2099C83.716 64.8305 84.8426 64.7685 85.9152 65.0311C88.5957 65.4779 91.1394 66.0451 93.7512 66.5263C94.5586 66.6808 95.3832 66.715 96.1906 66.8524C99.3637 67.4367 102.519 68.0099 105.658 68.5712C107.48 68.8977 109.267 69.3267 111.088 69.6532C116.518 70.6498 121.982 71.5955 127.411 72.6093C130.246 73.1591 133.116 73.7944 136.003 74.327C140.367 75.1175 144.749 75.8388 149.113 76.6464C152.275 77.2134 155.402 77.8672 158.547 78.4687C159.629 78.6748 160.712 78.8119 161.777 79.0009C164.544 79.482 167.293 79.9284 170.06 80.4267C171.589 80.7016 173.118 81.0629 174.664 81.3378C177.757 81.8876 180.85 82.3858 183.942 82.9013L187.379 83.537C192.877 84.5851 198.376 85.6679 203.892 86.6474C205.145 86.8204 206.34 87.2911 207.374 88.0204C208.408 88.7498 209.253 89.7168 209.837 90.8397C213.462 97.3348 217.191 103.779 220.886 110.239C223.583 114.913 226.299 119.587 228.962 124.278C233.086 131.512 237.157 138.781 241.281 146.015C243.985 150.769 246.694 155.516 249.409 160.259L258.636 176.445C261.127 180.827 263.619 185.088 266.094 189.418C266.334 189.83 266.557 190.261 266.764 190.69C267.182 191.442 267.401 192.288 267.401 193.147C267.401 194.007 267.182 194.853 266.764 195.604C266.076 196.859 265.337 198.096 264.633 199.333L254.615 216.739C253.241 219.11 251.797 221.43 250.457 223.818C249.938 224.836 249.062 225.627 247.997 226.039C246.932 226.451 245.752 226.456 244.684 226.053C243.084 225.465 241.522 224.776 240.01 223.99L227.741 217.873C222.243 215.124 216.503 212.238 211.229 209.66C205.954 207.083 200.662 204.522 195.387 201.928L177.225 192.872C176.622 192.557 176.002 192.276 175.368 192.03C174.759 191.804 174.11 191.702 173.461 191.732C172.811 191.763 172.175 191.925 171.589 192.207C171.003 192.489 170.48 192.887 170.052 193.376C169.624 193.865 169.299 194.437 169.097 195.055C168.84 195.838 168.801 196.677 168.982 197.481C169.164 198.286 169.56 199.027 170.128 199.625C170.764 200.385 171.478 201.077 172.259 201.688L192.568 220.176C198.118 225.228 203.652 230.313 209.219 235.365C212.552 238.407 215.919 241.414 219.253 244.438C222.071 247.05 224.907 249.593 227.69 252.205C228.369 252.855 228.948 253.602 229.408 254.421C229.938 255.428 230.182 256.562 230.112 257.698C230.043 258.834 229.662 259.93 229.013 260.865L221.985 272.893C219.545 277.085 217.123 281.296 214.7 285.488C213.944 286.794 213.136 288.065 212.414 289.371C212.014 290.213 211.377 290.92 210.58 291.402C209.783 291.885 208.861 292.122 207.93 292.086H206.263L202.826 291.812C196.967 291.399 191.125 290.763 185.231 290.608C183.599 290.574 181.967 290.334 180.352 290.196C176.537 289.835 172.739 289.475 168.925 289.148C166.812 288.977 164.681 289.011 162.585 288.753C160.304 288.469 158.01 288.303 155.712 288.255C154.63 288.238 153.53 287.997 152.447 287.997C150.884 287.894 149.302 287.842 147.738 287.722C146.175 287.601 144.629 287.412 143.065 287.258L140.213 287L132.446 286.382C131.501 286.313 130.539 286.176 129.594 286.176L122.721 285.643L121.689 285.522L107.583 284.663C107.314 284.681 107.044 284.681 106.775 284.663C103.665 284.228 100.533 283.965 97.3938 283.873C95.7615 283.701 94.129 283.461 92.5139 283.323C88.9055 283.014 85.2967 282.756 81.6711 282.516C80.6473 282.453 79.6416 282.214 78.6984 281.811C77.4093 281.268 76.3469 280.297 75.6916 279.062C73.183 274.611 70.5715 270.178 68.0285 265.745C64.1624 258.975 60.2099 252.016 56.4641 245.435C52.7183 238.854 48.9896 232.238 45.2609 225.657L38.1477 213.183C33.073 204.293 27.9925 195.398 22.9064 186.497L13.009 169.314C12.0639 167.648 11.0843 166.049 10.1564 164.331C9.84817 163.739 9.58413 163.124 9.36639 162.493C9.00348 161.604 8.89691 160.63 9.0578 159.683C9.21871 158.735 9.64117 157.852 10.2775 157.132C12.958 153.798 15.6094 150.413 18.2326 146.977C21.7894 142.44 25.295 137.818 28.8518 133.23C32.7007 128.247 36.6011 123.333 40.4328 118.35C45.7079 111.545 50.9146 104.775 56.1897 97.9022C60.7717 92.0257 65.3537 86.1489 69.9357 80.2724C73.1202 76.183 76.2928 72.0819 79.4543 67.9696L80.091 67.162C80.7411 66.2692 81.6417 65.5893 82.6789 65.2099ZM282.917 0.285092C283.648 -0.0260974 284.463 -0.0842397 285.231 0.119077L291.571 1.56244L300.335 3.60736L309.304 5.68646L323.651 9.12299L337.535 12.4218C342.26 13.5386 346.985 14.6043 351.693 15.704C354.58 16.3741 357.433 17.0782 360.285 17.7655L373.843 20.9276L378.018 21.9579C378.934 22.1647 379.794 22.5713 380.536 23.1474C381.278 23.7234 381.886 24.4553 382.313 25.2919C384.215 28.6368 386.128 32.0273 388.053 35.4638C391.856 42.1078 395.636 48.7523 399.394 55.3964C402.693 61.2213 405.974 67.0633 409.273 72.871C412.538 78.5299 415.791 84.2234 419.033 89.9511C421.937 95.0028 424.772 100.072 427.624 105.124C428.827 107.255 430.064 109.385 431.284 111.533V111.705C432.152 112.714 432.651 113.989 432.698 115.319C432.745 116.65 432.337 117.957 431.542 119.024C428.781 124.889 426.009 130.76 423.226 136.637C420.671 141.986 418.105 147.342 415.527 152.703C413.139 157.686 410.699 162.669 408.311 167.652C406.317 171.845 404.358 176.055 402.365 180.247C401.369 182.343 400.338 184.44 399.342 186.52C398.569 188.238 397.692 189.956 396.85 191.674C396.643 192.103 396.42 192.516 396.231 192.945C395.937 193.762 395.363 194.448 394.611 194.882C393.86 195.316 392.979 195.469 392.125 195.316L388.86 194.922C382.898 194.166 376.935 193.427 370.99 192.653C368.207 192.292 365.44 191.88 362.656 191.536C361.699 191.444 360.781 191.109 359.99 190.562C359.199 190.014 358.561 189.273 358.138 188.409C357.746 187.693 357.462 186.923 357.295 186.124C356.642 183.117 356.076 180.162 355.457 177.086C354.838 174.01 354.168 170.934 353.532 167.858C352.484 162.841 351.487 157.824 350.422 152.807C349.786 149.731 349.065 146.672 348.395 143.597C348.24 142.875 348.155 142.119 348 141.38C347.278 138.046 346.539 134.609 345.817 131.173C345.216 128.51 344.683 125.966 344.099 123.354C343.911 122.449 343.498 121.605 342.897 120.902C342.297 120.199 341.528 119.66 340.662 119.334C340.189 119.083 339.663 118.945 339.127 118.934C338.591 118.922 338.059 119.036 337.574 119.267C337.09 119.497 336.667 119.837 336.338 120.261C336.009 120.684 335.783 121.179 335.68 121.705C335.563 122.098 335.482 122.501 335.438 122.908C335.267 124.54 335.112 126.173 334.94 127.805C334.167 134.936 333.377 142.067 332.621 149.198C332.381 151.432 332.225 153.683 332.002 155.934C331.727 158.58 331.401 161.208 331.109 163.854C330.869 166.037 330.645 168.203 330.422 170.385C330.01 174.319 329.614 178.271 329.185 182.206C329.056 182.942 328.866 183.667 328.617 184.371C328.474 184.907 328.175 185.388 327.76 185.755C327.344 186.122 326.829 186.358 326.28 186.434C325.333 186.554 324.375 186.554 323.428 186.434C320.18 186.073 316.933 185.609 313.668 185.196C309.458 184.646 305.128 184.147 300.867 183.598C298.359 183.271 295.867 182.842 293.358 182.533C292.37 182.418 291.425 182.064 290.604 181.501C289.784 180.938 289.113 180.183 288.65 179.303C286.503 175.574 284.389 171.828 282.275 168.082L276.468 157.772C273.134 151.781 269.698 145.658 266.158 139.403C262.619 133.149 259.09 126.905 255.573 120.674C253.03 116.229 250.499 111.773 247.979 107.306C245.728 103.268 243.494 99.2644 241.261 95.2782C238.546 90.6388 235.985 86.0334 233.391 81.3769C233.006 80.5898 232.74 79.7503 232.601 78.8856C232.504 78.3092 232.522 77.7186 232.654 77.1493C232.787 76.5801 233.032 76.0432 233.374 75.5692C234.663 73.6276 235.917 71.6853 237.188 69.7265C241.129 63.5751 245.087 57.435 249.062 51.3065C251.845 47.0281 254.68 42.7321 257.464 38.4364C259.749 34.8968 262.034 31.3227 264.337 27.7831L277.637 7.35248C278.616 5.85779 279.56 4.36279 280.522 2.8681C280.729 2.52445 280.97 2.18051 281.193 1.83685C281.58 1.14248 282.186 0.59624 282.917 0.285092Z" fill="#350000"/>
</svg>