<svg width="40" height="40" viewBox="0 0 40 40" fill="none" xmlns="http://www.w3.org/2000/svg">
<rect width="40" height="40" rx="20" fill="white" fill-opacity="0.2"/>
<path d="M23.7404 20.0004C23.7404 18.2004 22.3004 16.7604 20.5004 16.7604C18.7004 16.7604 17.2604 18.2004 17.2604 20.0004C17.2604 21.8004 18.7004 23.2404 20.5004 23.2404C22.3004 23.2404 23.7404 21.8004 23.7404 20.0004ZM25.4204 20.0004C25.4204 22.7604 23.2604 24.9204 20.5004 24.9204C17.7404 24.9204 15.5804 22.7604 15.5804 20.0004C15.5804 17.2404 17.7404 15.0804 20.5004 15.0804C23.2604 15.0804 25.4204 17.2404 25.4204 20.0004ZM26.7404 14.8404C26.7404 15.5604 26.2604 16.0404 25.5404 16.0404C24.8204 16.0404 24.3404 15.5604 24.3404 14.8404C24.3404 14.1204 24.8204 13.6404 25.5404 13.6404C26.2604 13.6404 26.7404 14.2404 26.7404 14.8404ZM20.5004 12.0804C19.0604 12.0804 16.0604 11.9604 14.8604 12.4404C14.0204 12.8004 13.3004 13.5204 13.0604 14.3604C12.5804 15.5604 12.7004 18.5604 12.7004 20.0004C12.7004 21.4404 12.5804 24.4404 13.0604 25.6404C13.3004 26.4804 14.0204 27.2004 14.8604 27.4404C16.0604 27.9204 19.1804 27.8004 20.5004 27.8004C21.8204 27.8004 24.9404 27.9204 26.1404 27.4404C26.9804 27.0804 27.5804 26.4804 27.9404 25.6404C28.4204 24.3204 28.3004 21.3204 28.3004 20.0004C28.3004 18.6804 28.4204 15.5604 27.9404 14.3604C27.7004 13.5204 26.9804 12.8004 26.1404 12.5604C24.9404 11.9604 21.9404 12.0804 20.5004 12.0804ZM30.1004 20.0004V23.9604C30.1004 25.4004 29.6204 26.8404 28.5404 28.0404C27.4604 29.1204 26.0204 29.6004 24.4604 29.6004H16.5404C15.1004 29.6004 13.6604 29.1204 12.4604 28.0404C11.5004 26.9604 10.9004 25.5204 10.9004 23.9604V16.0404C10.9004 14.4804 11.5004 13.0404 12.4604 11.9604C13.6604 11.0004 15.1004 10.4004 16.5404 10.4004H24.4604C25.9004 10.4004 27.3404 10.8804 28.5404 11.9604C29.5004 13.0404 30.1004 14.4804 30.1004 16.0404V20.0004Z" fill="white"/>
</svg>
