<svg width="75" height="50" viewBox="0 0 75 50" fill="none" xmlns="http://www.w3.org/2000/svg">
<rect x="-0.39375" y="0.39375" width="73.6125" height="48.4125" rx="24.2063" transform="matrix(-1 0 0 1 73.6125 0)" fill="white" fill-opacity="0.1"/>
<rect x="-0.39375" y="0.39375" width="73.6125" height="48.4125" rx="24.2063" transform="matrix(-1 0 0 1 73.6125 0)" stroke="url(#paint0_linear_618_2508)" stroke-width="0.7875"/>
<path d="M33.0008 14.5996H41.4008C44.6008 14.5996 47.2008 17.1996 47.2008 20.3996V28.7996C47.2008 30.3379 46.5897 31.8131 45.502 32.9008C44.4143 33.9885 42.939 34.5996 41.4008 34.5996H33.0008C29.8008 34.5996 27.2008 31.9996 27.2008 28.7996V20.3996C27.2008 18.8614 27.8119 17.3861 28.8996 16.2984C29.9873 15.2107 31.4625 14.5996 33.0008 14.5996ZM32.8008 16.5996C31.846 16.5996 30.9303 16.9789 30.2552 17.654C29.5801 18.3292 29.2008 19.2448 29.2008 20.1996V28.9996C29.2008 30.9896 30.8108 32.5996 32.8008 32.5996H41.6008C42.5556 32.5996 43.4712 32.2203 44.1464 31.5452C44.8215 30.8701 45.2008 29.9544 45.2008 28.9996V20.1996C45.2008 18.2096 43.5908 16.5996 41.6008 16.5996H32.8008ZM42.4508 18.0996C42.7823 18.0996 43.1002 18.2313 43.3347 18.4657C43.5691 18.7001 43.7008 19.0181 43.7008 19.3496C43.7008 19.6811 43.5691 19.9991 43.3347 20.2335C43.1002 20.4679 42.7823 20.5996 42.4508 20.5996C42.1193 20.5996 41.8013 20.4679 41.5669 20.2335C41.3325 19.9991 41.2008 19.6811 41.2008 19.3496C41.2008 19.0181 41.3325 18.7001 41.5669 18.4657C41.8013 18.2313 42.1193 18.0996 42.4508 18.0996ZM37.2008 19.5996C38.5269 19.5996 39.7986 20.1264 40.7363 21.0641C41.674 22.0018 42.2008 23.2735 42.2008 24.5996C42.2008 25.9257 41.674 27.1975 40.7363 28.1351C39.7986 29.0728 38.5269 29.5996 37.2008 29.5996C35.8747 29.5996 34.6029 29.0728 33.6652 28.1351C32.7276 27.1975 32.2008 25.9257 32.2008 24.5996C32.2008 23.2735 32.7276 22.0018 33.6652 21.0641C34.6029 20.1264 35.8747 19.5996 37.2008 19.5996ZM37.2008 21.5996C36.4051 21.5996 35.6421 21.9157 35.0795 22.4783C34.5169 23.0409 34.2008 23.804 34.2008 24.5996C34.2008 25.3953 34.5169 26.1583 35.0795 26.7209C35.6421 27.2835 36.4051 27.5996 37.2008 27.5996C37.9964 27.5996 38.7595 27.2835 39.3221 26.7209C39.8847 26.1583 40.2008 25.3953 40.2008 24.5996C40.2008 23.804 39.8847 23.0409 39.3221 22.4783C38.7595 21.9157 37.9964 21.5996 37.2008 21.5996Z" fill="white"/>
<defs>
<linearGradient id="paint0_linear_618_2508" x1="38.44" y1="-18.45" x2="37.5927" y2="82.0033" gradientUnits="userSpaceOnUse">
<stop stop-color="white" stop-opacity="0.4"/>
<stop offset="0.5" stop-color="#E55812" stop-opacity="0.39"/>
<stop offset="1" stop-color="white" stop-opacity="0.34"/>
</linearGradient>
</defs>
</svg>
