<svg width="384" height="323" viewBox="0 0 384 323" fill="none" xmlns="http://www.w3.org/2000/svg">
<g clip-path="url(#clip0_618_2094)">
<rect width="384" height="323" rx="28" fill="#E65713" fill-opacity="0.04"/>
<g filter="url(#filter0_i_618_2094)">
<circle cx="202.445" cy="378.754" r="251.125" fill="white" fill-opacity="0.01"/>
</g>
<g filter="url(#filter1_i_618_2094)">
<ellipse cx="202.453" cy="378.754" rx="228.035" ry="271.846" transform="rotate(-56.3461 202.453 378.754)" fill="white" fill-opacity="0.01"/>
</g>
<g filter="url(#filter2_i_618_2094)">
<ellipse cx="193.438" cy="392.304" rx="211.757" ry="271.846" transform="rotate(-100.127 193.438 392.304)" fill="white" fill-opacity="0.01"/>
</g>
<rect x="36.3008" y="36" width="311.396" height="53.3278" rx="22.8548" fill="white" fill-opacity="0.1"/>
<rect x="36.5625" y="36.2617" width="310.873" height="52.8043" rx="22.593" stroke="black" stroke-opacity="0.06" stroke-width="0.523496"/>
<path d="M51.1862 68.1638L48.3998 58.5648H49.8597L51.8795 65.8241L53.8993 58.5715L55.3658 58.5648L57.3856 65.8241L59.4054 58.5648H60.8719L58.0788 68.1638H56.6923L54.6325 60.9846L52.5727 68.1638H51.1862ZM67.0431 68.1638V64.6242C67.0431 64.3442 67.0187 64.0576 66.9698 63.7643C66.9254 63.4665 66.8365 63.191 66.7032 62.9377C66.5743 62.6844 66.3899 62.48 66.1499 62.3244C65.9144 62.1689 65.6055 62.0911 65.2233 62.0911C64.9745 62.0911 64.7389 62.1333 64.5167 62.2178C64.2945 62.2978 64.099 62.4289 63.9301 62.6111C63.7657 62.7933 63.6346 63.0332 63.5368 63.331C63.4435 63.6287 63.3968 63.9909 63.3968 64.4175L62.5303 64.0909C62.5303 63.4376 62.6525 62.8621 62.8969 62.3644C63.1413 61.8622 63.4924 61.4712 63.9501 61.1912C64.4079 60.9112 64.9611 60.7712 65.6099 60.7712C66.1077 60.7712 66.5254 60.8512 66.8632 61.0112C67.2009 61.1712 67.4742 61.3823 67.6831 61.6445C67.8964 61.9022 68.0586 62.1844 68.1697 62.4911C68.2808 62.7977 68.3563 63.0977 68.3963 63.391C68.4363 63.6843 68.4563 63.942 68.4563 64.1642V68.1638H67.0431ZM61.9837 68.1638V58.5648H63.2302V63.7443H63.3968V68.1638H61.9837ZM72.2257 68.3638C71.6924 68.3638 71.2458 68.266 70.8859 68.0705C70.5259 67.8705 70.2526 67.6083 70.0659 67.2839C69.8837 66.9551 69.7926 66.5951 69.7926 66.204C69.7926 65.8396 69.8571 65.5196 69.986 65.2441C70.1148 64.9686 70.3059 64.7353 70.5592 64.5442C70.8125 64.3487 71.1236 64.1909 71.4925 64.0709C71.8124 63.9776 72.1746 63.8954 72.579 63.8243C72.9834 63.7532 73.4078 63.6865 73.8522 63.6243C74.3011 63.5621 74.7455 63.4999 75.1854 63.4376L74.6788 63.7176C74.6877 63.1532 74.5677 62.7355 74.3188 62.4644C74.0744 62.1889 73.6522 62.0511 73.0523 62.0511C72.6746 62.0511 72.3279 62.14 72.0124 62.3178C71.6969 62.4911 71.4769 62.7799 71.3525 63.1843L70.0526 62.7844C70.2304 62.1667 70.5681 61.6756 71.0658 61.3112C71.568 60.9468 72.2346 60.7646 73.0656 60.7646C73.71 60.7646 74.27 60.8757 74.7455 61.0979C75.2254 61.3156 75.5765 61.6623 75.7987 62.1378C75.9142 62.3733 75.9853 62.6222 76.012 62.8844C76.0387 63.1466 76.052 63.4288 76.052 63.7309V68.1638H74.8188V66.5173L75.0588 66.7306C74.761 67.2817 74.3811 67.6928 73.9189 67.9638C73.4612 68.2305 72.8968 68.3638 72.2257 68.3638ZM72.4724 67.2239C72.8679 67.2239 73.2078 67.155 73.4923 67.0173C73.7767 66.8751 74.0055 66.6951 74.1789 66.4773C74.3522 66.2596 74.4655 66.0329 74.5188 65.7974C74.5944 65.5841 74.6366 65.3441 74.6455 65.0775C74.6588 64.8108 74.6655 64.5975 74.6655 64.4375L75.1188 64.6042C74.6788 64.6708 74.2788 64.7308 73.9189 64.7842C73.5589 64.8375 73.2323 64.8908 72.939 64.9441C72.6501 64.993 72.3924 65.053 72.1657 65.1241C71.9746 65.1908 71.8035 65.2708 71.6525 65.3641C71.5058 65.4574 71.388 65.5708 71.2992 65.7041C71.2147 65.8374 71.1725 65.9996 71.1725 66.1907C71.1725 66.3773 71.2192 66.5507 71.3125 66.7106C71.4058 66.8662 71.548 66.9906 71.7391 67.0839C71.9302 67.1773 72.1746 67.2239 72.4724 67.2239ZM81.9025 68.1638C81.4493 68.2527 81.0049 68.2905 80.5693 68.2771C80.1338 68.2638 79.745 68.1794 79.4028 68.0238C79.0606 67.8683 78.8029 67.6239 78.6295 67.2906C78.474 66.9928 78.3896 66.6906 78.3762 66.384C78.3673 66.0729 78.3629 65.7218 78.3629 65.3308V58.9648H79.7628V65.2641C79.7628 65.553 79.765 65.8041 79.7694 66.0174C79.7783 66.2307 79.825 66.4107 79.9094 66.5573C80.0694 66.8328 80.3227 66.9906 80.6693 67.0306C81.0204 67.0662 81.4315 67.0506 81.9025 66.9839V68.1638ZM76.983 62.0844V60.9646H81.9025V62.0844H76.983ZM87.6226 68.1638L85.4228 60.9579L86.8027 60.9646L88.3092 65.9041L89.829 60.9646H91.0289L92.5487 65.9041L94.0553 60.9646H95.4284L93.2287 68.1638H92.1088L90.429 62.951L88.7425 68.1638H87.6226ZM99.4881 68.3638C98.7682 68.3638 98.1438 68.2016 97.615 67.8772C97.0862 67.5528 96.6773 67.1061 96.3884 66.5373C96.104 65.964 95.9618 65.3041 95.9618 64.5575C95.9618 63.8065 96.1085 63.1466 96.4018 62.5777C96.6951 62.0045 97.1061 61.5601 97.635 61.2445C98.1638 60.9246 98.7815 60.7646 99.4881 60.7646C100.208 60.7646 100.832 60.9268 101.361 61.2512C101.89 61.5756 102.299 62.0222 102.588 62.5911C102.877 63.1599 103.021 63.8154 103.021 64.5575C103.021 65.3086 102.874 65.9707 102.581 66.544C102.292 67.1128 101.883 67.5594 101.355 67.8838C100.826 68.2038 100.204 68.3638 99.4881 68.3638ZM99.4881 67.0506C100.177 67.0506 100.69 66.8195 101.028 66.3573C101.37 65.8907 101.541 65.2908 101.541 64.5575C101.541 63.8065 101.368 63.2066 101.021 62.7577C100.679 62.3044 100.168 62.0778 99.4881 62.0778C99.0215 62.0778 98.6371 62.1844 98.3349 62.3977C98.0327 62.6066 97.8083 62.8977 97.6616 63.271C97.515 63.6398 97.4417 64.0687 97.4417 64.5575C97.4417 65.313 97.615 65.9174 97.9616 66.3707C98.3082 66.824 98.8171 67.0506 99.4881 67.0506ZM107.199 68.3571C106.701 68.3571 106.284 68.2771 105.946 68.1172C105.608 67.9572 105.333 67.7483 105.119 67.4906C104.91 67.2284 104.75 66.9439 104.639 66.6373C104.528 66.3307 104.453 66.0307 104.413 65.7374C104.373 65.4441 104.353 65.1863 104.353 64.9641V60.9646H105.766V64.5042C105.766 64.7842 105.788 65.073 105.832 65.3708C105.881 65.6641 105.97 65.9374 106.099 66.1907C106.232 66.444 106.417 66.6484 106.652 66.804C106.892 66.9595 107.203 67.0373 107.586 67.0373C107.834 67.0373 108.07 66.9973 108.292 66.9173C108.514 66.8328 108.708 66.6995 108.872 66.5173C109.041 66.3351 109.172 66.0951 109.265 65.7974C109.363 65.4996 109.412 65.1375 109.412 64.7108L110.279 65.0375C110.279 65.6907 110.156 66.2685 109.912 66.7706C109.668 67.2684 109.317 67.6572 108.859 67.9372C108.401 68.2171 107.848 68.3571 107.199 68.3571ZM109.579 68.1638V66.084H109.412V60.9646H110.819V68.1638H109.579ZM112.822 68.1638V58.3648H114.215V68.1638H112.822ZM119.076 68.3638C118.405 68.3638 117.825 68.1971 117.336 67.8638C116.852 67.5306 116.476 67.0773 116.21 66.504C115.948 65.9263 115.817 65.2774 115.817 64.5575C115.817 63.8332 115.95 63.1866 116.217 62.6177C116.483 62.0444 116.861 61.5934 117.35 61.2645C117.843 60.9312 118.427 60.7646 119.103 60.7646C119.783 60.7646 120.354 60.9312 120.816 61.2645C121.283 61.5934 121.634 62.0444 121.869 62.6177C122.109 63.191 122.229 63.8376 122.229 64.5575C122.229 65.2774 122.109 65.924 121.869 66.4973C121.629 67.0706 121.276 67.5261 120.809 67.8638C120.343 68.1971 119.765 68.3638 119.076 68.3638ZM119.27 67.1039C119.727 67.1039 120.101 66.995 120.389 66.7773C120.678 66.5595 120.889 66.2596 121.023 65.8774C121.156 65.4952 121.223 65.0552 121.223 64.5575C121.223 64.0598 121.154 63.6198 121.016 63.2377C120.883 62.8555 120.674 62.5577 120.389 62.3444C120.109 62.1311 119.752 62.0245 119.316 62.0245C118.854 62.0245 118.474 62.1378 118.176 62.3644C117.879 62.5911 117.656 62.8955 117.51 63.2777C117.368 63.6598 117.296 64.0865 117.296 64.5575C117.296 65.033 117.368 65.4641 117.51 65.8507C117.656 66.2329 117.874 66.5373 118.163 66.764C118.456 66.9906 118.825 67.1039 119.27 67.1039ZM121.223 68.1638V62.9844H121.063V58.5648H122.463V68.1638H121.223ZM127.97 71.3635L129.363 67.5705L129.383 68.6904L126.243 60.9646H127.697L130.043 66.9306H129.616L131.856 60.9646H133.269L129.296 71.3635H127.97ZM137.18 68.3638C136.46 68.3638 135.835 68.2016 135.306 67.8772C134.778 67.5528 134.369 67.1061 134.08 66.5373C133.795 65.964 133.653 65.3041 133.653 64.5575C133.653 63.8065 133.8 63.1466 134.093 62.5777C134.387 62.0045 134.798 61.5601 135.326 61.2445C135.855 60.9246 136.473 60.7646 137.18 60.7646C137.899 60.7646 138.524 60.9268 139.053 61.2512C139.582 61.5756 139.99 62.0222 140.279 62.5911C140.568 63.1599 140.713 63.8154 140.713 64.5575C140.713 65.3086 140.566 65.9707 140.273 66.544C139.984 67.1128 139.575 67.5594 139.046 67.8838C138.517 68.2038 137.895 68.3638 137.18 68.3638ZM137.18 67.0506C137.868 67.0506 138.382 66.8195 138.719 66.3573C139.062 65.8907 139.233 65.2908 139.233 64.5575C139.233 63.8065 139.059 63.2066 138.713 62.7577C138.371 62.3044 137.859 62.0778 137.18 62.0778C136.713 62.0778 136.329 62.1844 136.026 62.3977C135.724 62.6066 135.5 62.8977 135.353 63.271C135.206 63.6398 135.133 64.0687 135.133 64.5575C135.133 65.313 135.306 65.9174 135.653 66.3707C136 66.824 136.509 67.0506 137.18 67.0506ZM144.89 68.3571C144.393 68.3571 143.975 68.2771 143.637 68.1172C143.299 67.9572 143.024 67.7483 142.811 67.4906C142.602 67.2284 142.442 66.9439 142.331 66.6373C142.22 66.3307 142.144 66.0307 142.104 65.7374C142.064 65.4441 142.044 65.1863 142.044 64.9641V60.9646H143.457V64.5042C143.457 64.7842 143.479 65.073 143.524 65.3708C143.573 65.6641 143.662 65.9374 143.791 66.1907C143.924 66.444 144.108 66.6484 144.344 66.804C144.584 66.9595 144.895 67.0373 145.277 67.0373C145.526 67.0373 145.761 66.9973 145.984 66.9173C146.206 66.8328 146.399 66.6995 146.564 66.5173C146.732 66.3351 146.864 66.0951 146.957 65.7974C147.055 65.4996 147.104 65.1375 147.104 64.7108L147.97 65.0375C147.97 65.6907 147.848 66.2685 147.603 66.7706C147.359 67.2684 147.008 67.6572 146.55 67.9372C146.093 68.2171 145.539 68.3571 144.89 68.3571ZM147.27 68.1638V66.084H147.104V60.9646H148.51V68.1638H147.27ZM153.182 68.1638V58.3648H154.575V68.1638H153.182ZM156.71 59.7847V58.4315H158.103V59.7847H156.71ZM156.71 68.1638V60.9646H158.103V68.1638H156.71ZM160.099 68.1638L160.105 58.5648H161.518V64.4309L164.345 60.9646H166.118L163.132 64.5642L166.425 68.1638H164.531L161.518 64.6975V68.1638H160.099ZM170.159 68.3638C169.444 68.3638 168.815 68.2083 168.273 67.8972C167.735 67.5817 167.315 67.1439 167.013 66.584C166.715 66.0196 166.567 65.3663 166.567 64.6242C166.567 63.8376 166.713 63.1554 167.006 62.5777C167.304 62 167.718 61.5534 168.246 61.2379C168.775 60.9223 169.391 60.7646 170.093 60.7646C170.826 60.7646 171.45 60.9357 171.966 61.2779C172.481 61.6156 172.866 62.0978 173.119 62.7244C173.377 63.351 173.479 64.0953 173.426 64.9575H172.033V64.4509C172.024 63.6154 171.864 62.9977 171.553 62.5977C171.246 62.1978 170.777 61.9978 170.146 61.9978C169.448 61.9978 168.924 62.2178 168.573 62.6577C168.222 63.0977 168.046 63.7332 168.046 64.5642C168.046 65.3552 168.222 65.9685 168.573 66.404C168.924 66.8351 169.431 67.0506 170.093 67.0506C170.528 67.0506 170.904 66.9528 171.219 66.7573C171.539 66.5573 171.788 66.2729 171.966 65.9041L173.333 66.3373C173.053 66.9817 172.628 67.4817 172.059 67.8372C171.49 68.1883 170.857 68.3638 170.159 68.3638ZM167.593 64.9575V63.8709H172.733V64.9575H167.593ZM181.71 68.1638C181.257 68.2527 180.812 68.2905 180.377 68.2771C179.941 68.2638 179.552 68.1794 179.21 68.0238C178.868 67.8683 178.61 67.6239 178.437 67.2906C178.281 66.9928 178.197 66.6906 178.184 66.384C178.175 66.0729 178.17 65.7218 178.17 65.3308V58.9648H179.57V65.2641C179.57 65.553 179.572 65.8041 179.577 66.0174C179.586 66.2307 179.632 66.4107 179.717 66.5573C179.877 66.8328 180.13 66.9906 180.477 67.0306C180.828 67.0662 181.239 67.0506 181.71 66.9839V68.1638ZM176.79 62.0844V60.9646H181.71V62.0844H176.79ZM186.029 68.3638C185.309 68.3638 184.684 68.2016 184.156 67.8772C183.627 67.5528 183.218 67.1061 182.929 66.5373C182.645 65.964 182.502 65.3041 182.502 64.5575C182.502 63.8065 182.649 63.1466 182.942 62.5777C183.236 62.0045 183.647 61.5601 184.176 61.2445C184.704 60.9246 185.322 60.7646 186.029 60.7646C186.749 60.7646 187.373 60.9268 187.902 61.2512C188.431 61.5756 188.84 62.0222 189.128 62.5911C189.417 63.1599 189.562 63.8154 189.562 64.5575C189.562 65.3086 189.415 65.9707 189.122 66.544C188.833 67.1128 188.424 67.5594 187.895 67.8838C187.366 68.2038 186.744 68.3638 186.029 68.3638ZM186.029 67.0506C186.718 67.0506 187.231 66.8195 187.569 66.3573C187.911 65.8907 188.082 65.2908 188.082 64.5575C188.082 63.8065 187.909 63.2066 187.562 62.7577C187.22 62.3044 186.709 62.0778 186.029 62.0778C185.562 62.0778 185.178 62.1844 184.875 62.3977C184.573 62.6066 184.349 62.8977 184.202 63.271C184.056 63.6398 183.982 64.0687 183.982 64.5575C183.982 65.313 184.156 65.9174 184.502 66.3707C184.849 66.824 185.358 67.0506 186.029 67.0506ZM193.689 68.1638L193.696 58.5648H195.109V64.4309L197.935 60.9646H199.708L196.722 64.5642L200.015 68.1638H198.122L195.109 64.6975V68.1638H193.689ZM205.74 68.1638V64.6242C205.74 64.3442 205.715 64.0576 205.666 63.7643C205.622 63.4665 205.533 63.191 205.4 62.9377C205.271 62.6844 205.087 62.48 204.847 62.3244C204.611 62.1689 204.302 62.0911 203.92 62.0911C203.671 62.0911 203.436 62.1333 203.213 62.2178C202.991 62.2978 202.796 62.4289 202.627 62.6111C202.462 62.7933 202.331 63.0332 202.233 63.331C202.14 63.6287 202.093 63.9909 202.093 64.4175L201.227 64.0909C201.227 63.4376 201.349 62.8621 201.594 62.3644C201.838 61.8622 202.189 61.4712 202.647 61.1912C203.105 60.9112 203.658 60.7712 204.307 60.7712C204.804 60.7712 205.222 60.8512 205.56 61.0112C205.898 61.1712 206.171 61.3823 206.38 61.6445C206.593 61.9022 206.755 62.1844 206.866 62.4911C206.977 62.7977 207.053 63.0977 207.093 63.391C207.133 63.6843 207.153 63.942 207.153 64.1642V68.1638H205.74ZM200.68 68.1638V60.9646H201.927V63.0443H202.093V68.1638H200.68ZM211.924 68.3638C211.205 68.3638 210.58 68.2016 210.051 67.8772C209.522 67.5528 209.114 67.1061 208.825 66.5373C208.54 65.964 208.398 65.3041 208.398 64.5575C208.398 63.8065 208.545 63.1466 208.838 62.5777C209.131 62.0045 209.542 61.5601 210.071 61.2445C210.6 60.9246 211.218 60.7646 211.924 60.7646C212.644 60.7646 213.269 60.9268 213.798 61.2512C214.326 61.5756 214.735 62.0222 215.024 62.5911C215.313 63.1599 215.457 63.8154 215.457 64.5575C215.457 65.3086 215.311 65.9707 215.017 66.544C214.729 67.1128 214.32 67.5594 213.791 67.8838C213.262 68.2038 212.64 68.3638 211.924 68.3638ZM211.924 67.0506C212.613 67.0506 213.127 66.8195 213.464 66.3573C213.806 65.8907 213.978 65.2908 213.978 64.5575C213.978 63.8065 213.804 63.2066 213.458 62.7577C213.115 62.3044 212.604 62.0778 211.924 62.0778C211.458 62.0778 211.073 62.1844 210.771 62.3977C210.469 62.6066 210.245 62.8977 210.098 63.271C209.951 63.6398 209.878 64.0687 209.878 64.5575C209.878 65.313 210.051 65.9174 210.398 66.3707C210.745 66.824 211.253 67.0506 211.924 67.0506ZM218.195 68.1638L215.995 60.9579L217.375 60.9646L218.882 65.9041L220.402 60.9646H221.601L223.121 65.9041L224.628 60.9646H226.001L223.801 68.1638H222.681L221.001 62.951L219.315 68.1638H218.195ZM233.983 68.1638C233.53 68.2527 233.086 68.2905 232.65 68.2771C232.215 68.2638 231.826 68.1794 231.483 68.0238C231.141 67.8683 230.884 67.6239 230.71 67.2906C230.555 66.9928 230.47 66.6906 230.457 66.384C230.448 66.0729 230.444 65.7218 230.444 65.3308V58.9648H231.843V65.2641C231.843 65.553 231.846 65.8041 231.85 66.0174C231.859 66.2307 231.906 66.4107 231.99 66.5573C232.15 66.8328 232.403 66.9906 232.75 67.0306C233.101 67.0662 233.512 67.0506 233.983 66.9839V68.1638ZM229.064 62.0844V60.9646H233.983V62.0844H229.064ZM238.302 68.3638C237.582 68.3638 236.958 68.2016 236.429 67.8772C235.9 67.5528 235.491 67.1061 235.202 66.5373C234.918 65.964 234.776 65.3041 234.776 64.5575C234.776 63.8065 234.922 63.1466 235.216 62.5777C235.509 62.0045 235.92 61.5601 236.449 61.2445C236.978 60.9246 237.595 60.7646 238.302 60.7646C239.022 60.7646 239.646 60.9268 240.175 61.2512C240.704 61.5756 241.113 62.0222 241.402 62.5911C241.691 63.1599 241.835 63.8154 241.835 64.5575C241.835 65.3086 241.688 65.9707 241.395 66.544C241.106 67.1128 240.697 67.5594 240.168 67.8838C239.64 68.2038 239.017 68.3638 238.302 68.3638ZM238.302 67.0506C238.991 67.0506 239.504 66.8195 239.842 66.3573C240.184 65.8907 240.355 65.2908 240.355 64.5575C240.355 63.8065 240.182 63.2066 239.835 62.7577C239.493 62.3044 238.982 62.0778 238.302 62.0778C237.835 62.0778 237.451 62.1844 237.149 62.3977C236.847 62.6066 236.622 62.8977 236.475 63.271C236.329 63.6398 236.256 64.0687 236.256 64.5575C236.256 65.313 236.429 65.9174 236.775 66.3707C237.122 66.824 237.631 67.0506 238.302 67.0506ZM246.159 68.3638C245.488 68.3638 244.909 68.1971 244.42 67.8638C243.935 67.5306 243.56 67.0773 243.293 66.504C243.031 65.9263 242.9 65.2774 242.9 64.5575C242.9 63.8332 243.033 63.1866 243.3 62.6177C243.566 62.0444 243.944 61.5934 244.433 61.2645C244.926 60.9312 245.511 60.7646 246.186 60.7646C246.866 60.7646 247.437 60.9312 247.899 61.2645C248.366 61.5934 248.717 62.0444 248.953 62.6177C249.193 63.191 249.312 63.8376 249.312 64.5575C249.312 65.2774 249.193 65.924 248.953 66.4973C248.713 67.0706 248.359 67.5261 247.893 67.8638C247.426 68.1971 246.848 68.3638 246.159 68.3638ZM246.353 67.1039C246.811 67.1039 247.184 66.995 247.473 66.7773C247.762 66.5595 247.973 66.2596 248.106 65.8774C248.239 65.4952 248.306 65.0552 248.306 64.5575C248.306 64.0598 248.237 63.6198 248.099 63.2377C247.966 62.8555 247.757 62.5577 247.473 62.3444C247.193 62.1311 246.835 62.0245 246.399 62.0245C245.937 62.0245 245.557 62.1378 245.26 62.3644C244.962 62.5911 244.74 62.8955 244.593 63.2777C244.451 63.6598 244.38 64.0865 244.38 64.5575C244.38 65.033 244.451 65.4641 244.593 65.8507C244.74 66.2329 244.957 66.5373 245.246 66.764C245.54 66.9906 245.908 67.1039 246.353 67.1039ZM248.306 68.1638V62.9844H248.146V58.5648H249.546V68.1638H248.306ZM253.444 68.3638C252.911 68.3638 252.464 68.266 252.104 68.0705C251.744 67.8705 251.471 67.6083 251.284 67.2839C251.102 66.9551 251.011 66.5951 251.011 66.204C251.011 65.8396 251.075 65.5196 251.204 65.2441C251.333 64.9686 251.524 64.7353 251.778 64.5442C252.031 64.3487 252.342 64.1909 252.711 64.0709C253.031 63.9776 253.393 63.8954 253.797 63.8243C254.202 63.7532 254.626 63.6865 255.071 63.6243C255.519 63.5621 255.964 63.4999 256.404 63.4376L255.897 63.7176C255.906 63.1532 255.786 62.7355 255.537 62.4644C255.293 62.1889 254.871 62.0511 254.271 62.0511C253.893 62.0511 253.546 62.14 253.231 62.3178C252.915 62.4911 252.695 62.7799 252.571 63.1843L251.271 62.7844C251.449 62.1667 251.786 61.6756 252.284 61.3112C252.786 60.9468 253.453 60.7646 254.284 60.7646C254.928 60.7646 255.488 60.8757 255.964 61.0979C256.444 61.3156 256.795 61.6623 257.017 62.1378C257.133 62.3733 257.204 62.6222 257.23 62.8844C257.257 63.1466 257.27 63.4288 257.27 63.7309V68.1638H256.037V66.5173L256.277 66.7306C255.979 67.2817 255.599 67.6928 255.137 67.9638C254.679 68.2305 254.115 68.3638 253.444 68.3638ZM253.691 67.2239C254.086 67.2239 254.426 67.155 254.711 67.0173C254.995 66.8751 255.224 66.6951 255.397 66.4773C255.571 66.2596 255.684 66.0329 255.737 65.7974C255.813 65.5841 255.855 65.3441 255.864 65.0775C255.877 64.8108 255.884 64.5975 255.884 64.4375L256.337 64.6042C255.897 64.6708 255.497 64.7308 255.137 64.7842C254.777 64.8375 254.451 64.8908 254.157 64.9441C253.868 64.993 253.611 65.053 253.384 65.1241C253.193 65.1908 253.022 65.2708 252.871 65.3641C252.724 65.4574 252.606 65.5708 252.517 65.7041C252.433 65.8374 252.391 65.9996 252.391 66.1907C252.391 66.3773 252.437 66.5507 252.531 66.7106C252.624 66.8662 252.766 66.9906 252.957 67.0839C253.149 67.1773 253.393 67.2239 253.691 67.2239ZM259.571 71.3635L260.964 67.5705L260.984 68.6904L257.844 60.9646H259.298L261.644 66.9306H261.217L263.457 60.9646H264.87L260.897 71.3635H259.571ZM267.701 65.5574C267.701 65.2375 267.726 64.9375 267.774 64.6575C267.828 64.3775 267.926 64.1109 268.068 63.8576C268.188 63.6176 268.328 63.4243 268.488 63.2777C268.652 63.1266 268.83 62.9799 269.021 62.8377C269.217 62.691 269.421 62.5044 269.634 62.2778C269.812 62.0822 269.93 61.8845 269.988 61.6845C270.05 61.4845 270.081 61.269 270.081 61.0379C270.081 60.869 270.061 60.7113 270.021 60.5646C269.981 60.4179 269.914 60.2913 269.821 60.1846C269.679 60.0069 269.499 59.8824 269.281 59.8113C269.063 59.7358 268.837 59.698 268.601 59.698C268.388 59.698 268.183 59.7269 267.988 59.7847C267.797 59.8425 267.637 59.9313 267.508 60.0513C267.37 60.1669 267.268 60.3113 267.201 60.4846C267.139 60.6535 267.11 60.8379 267.115 61.0379H265.648C265.684 60.6202 265.79 60.2291 265.968 59.8647C266.146 59.5003 266.386 59.2047 266.688 58.9781C266.946 58.7737 267.239 58.6226 267.568 58.5248C267.897 58.4226 268.226 58.3715 268.554 58.3715C269.025 58.3715 269.47 58.4448 269.888 58.5915C270.31 58.7381 270.661 58.9759 270.941 59.3047C271.145 59.5358 271.299 59.8002 271.401 60.098C271.507 60.3913 271.561 60.6957 271.561 61.0112C271.561 61.4334 271.47 61.8245 271.287 62.1844C271.11 62.5444 270.881 62.8733 270.601 63.171C270.454 63.3265 270.305 63.4687 270.154 63.5976C270.003 63.7221 269.863 63.8443 269.734 63.9643C269.605 64.0842 269.499 64.2153 269.414 64.3575C269.294 64.562 269.225 64.7464 269.208 64.9108C269.19 65.0708 269.181 65.2863 269.181 65.5574H267.701ZM267.708 68.1638V66.5507H269.181V68.1638H267.708Z" fill="#CCCCCC"/>
<rect x="305.797" y="47.4275" width="30.4731" height="30.4731" rx="15.2365" fill="#E65713"/>
<path d="M320.601 67.1515V57.3164M320.601 57.3164L315.684 62.2339M320.601 57.3164L325.519 62.2339" stroke="white" stroke-width="1.40501" stroke-linecap="round" stroke-linejoin="round"/>
</g>
<defs>
<filter id="filter0_i_618_2094" x="-48.6797" y="127.629" width="502.25" height="502.25" filterUnits="userSpaceOnUse" color-interpolation-filters="sRGB">
<feFlood flood-opacity="0" result="BackgroundImageFix"/>
<feBlend mode="normal" in="SourceGraphic" in2="BackgroundImageFix" result="shape"/>
<feColorMatrix in="SourceAlpha" type="matrix" values="0 0 0 0 0 0 0 0 0 0 0 0 0 0 0 0 0 0 127 0" result="hardAlpha"/>
<feOffset/>
<feGaussianBlur stdDeviation="59.6422"/>
<feComposite in2="hardAlpha" operator="arithmetic" k2="-1" k3="1"/>
<feColorMatrix type="matrix" values="0 0 0 0 1 0 0 0 0 0.464006 0 0 0 0 0.079064 0 0 0 1 0"/>
<feBlend mode="normal" in2="shape" result="effect1_innerShadow_618_2094"/>
</filter>
<filter id="filter1_i_618_2094" x="-56.7734" y="136.411" width="518.453" height="484.688" filterUnits="userSpaceOnUse" color-interpolation-filters="sRGB">
<feFlood flood-opacity="0" result="BackgroundImageFix"/>
<feBlend mode="normal" in="SourceGraphic" in2="BackgroundImageFix" result="shape"/>
<feColorMatrix in="SourceAlpha" type="matrix" values="0 0 0 0 0 0 0 0 0 0 0 0 0 0 0 0 0 0 127 0" result="hardAlpha"/>
<feOffset/>
<feGaussianBlur stdDeviation="59.6422"/>
<feComposite in2="hardAlpha" operator="arithmetic" k2="-1" k3="1"/>
<feColorMatrix type="matrix" values="0 0 0 0 1 0 0 0 0 0.464006 0 0 0 0 0.079064 0 0 0 1 0"/>
<feBlend mode="normal" in2="shape" result="effect1_innerShadow_618_2094"/>
</filter>
<filter id="filter2_i_618_2094" x="-76.7812" y="178.389" width="540.441" height="427.831" filterUnits="userSpaceOnUse" color-interpolation-filters="sRGB">
<feFlood flood-opacity="0" result="BackgroundImageFix"/>
<feBlend mode="normal" in="SourceGraphic" in2="BackgroundImageFix" result="shape"/>
<feColorMatrix in="SourceAlpha" type="matrix" values="0 0 0 0 0 0 0 0 0 0 0 0 0 0 0 0 0 0 127 0" result="hardAlpha"/>
<feOffset/>
<feGaussianBlur stdDeviation="59.6422"/>
<feComposite in2="hardAlpha" operator="arithmetic" k2="-1" k3="1"/>
<feColorMatrix type="matrix" values="0 0 0 0 1 0 0 0 0 0.464006 0 0 0 0 0.079064 0 0 0 1 0"/>
<feBlend mode="normal" in2="shape" result="effect1_innerShadow_618_2094"/>
</filter>
<clipPath id="clip0_618_2094">
<rect width="384" height="323" rx="28" fill="white"/>
</clipPath>
</defs>
</svg>
