<svg width="75" height="50" viewBox="0 0 75 50" fill="none" xmlns="http://www.w3.org/2000/svg">
<rect x="-0.39375" y="0.39375" width="73.6125" height="48.4125" rx="24.2063" transform="matrix(-1 0 0 1 73.6125 0)" fill="white" fill-opacity="0.1"/>
<rect x="-0.39375" y="0.39375" width="73.6125" height="48.4125" rx="24.2063" transform="matrix(-1 0 0 1 73.6125 0)" stroke="url(#paint0_linear_618_2506)" stroke-width="0.7875"/>
<path d="M42.2008 25.7301V29.4271H40.0578V25.9771C40.0578 25.1111 39.7478 24.5201 38.9718 24.5201C38.3798 24.5201 38.0268 24.9181 37.8718 25.3041C37.8158 25.4421 37.8008 25.6341 37.8008 25.8261V29.4271H35.6568C35.6568 29.4271 35.6858 23.5851 35.6568 22.9801H37.8008V23.8931L37.7868 23.9141H37.8008V23.8931C38.0858 23.4531 38.5938 22.8281 39.7328 22.8281C41.1428 22.8281 42.2008 23.7501 42.2008 25.7301ZM33.4138 19.8711C32.6808 19.8711 32.2008 20.3531 32.2008 20.9851C32.2008 21.6051 32.6668 22.1001 33.3858 22.1001H33.3998C34.1478 22.1001 34.6128 21.6041 34.6128 20.9851C34.5988 20.3531 34.1478 19.8711 33.4138 19.8711ZM32.3278 29.4271H34.4718V22.9801H32.3278V29.4271Z" fill="white"/>
<path d="M31.2008 16.5996C30.6703 16.5996 30.1616 16.8103 29.7866 17.1854C29.4115 17.5605 29.2008 18.0692 29.2008 18.5996V30.5996C29.2008 31.13 29.4115 31.6388 29.7866 32.0138C30.1616 32.3889 30.6703 32.5996 31.2008 32.5996H43.2008C43.7312 32.5996 44.2399 32.3889 44.615 32.0138C44.9901 31.6388 45.2008 31.13 45.2008 30.5996V18.5996C45.2008 18.0692 44.9901 17.5605 44.615 17.1854C44.2399 16.8103 43.7312 16.5996 43.2008 16.5996H31.2008ZM31.2008 14.5996H43.2008C44.2616 14.5996 45.2791 15.021 46.0292 15.7712C46.7794 16.5213 47.2008 17.5387 47.2008 18.5996V30.5996C47.2008 31.6605 46.7794 32.6779 46.0292 33.428C45.2791 34.1782 44.2616 34.5996 43.2008 34.5996H31.2008C30.1399 34.5996 29.1225 34.1782 28.3724 33.428C27.6222 32.6779 27.2008 31.6605 27.2008 30.5996V18.5996C27.2008 17.5387 27.6222 16.5213 28.3724 15.7712C29.1225 15.021 30.1399 14.5996 31.2008 14.5996Z" fill="white"/>
<defs>
<linearGradient id="paint0_linear_618_2506" x1="38.44" y1="-18.45" x2="37.5927" y2="82.0033" gradientUnits="userSpaceOnUse">
<stop stop-color="white" stop-opacity="0.4"/>
<stop offset="0.5" stop-color="#E55812" stop-opacity="0.39"/>
<stop offset="1" stop-color="white" stop-opacity="0.34"/>
</linearGradient>
</defs>
</svg>
