<svg width="40" height="40" viewBox="0 0 40 40" fill="none" xmlns="http://www.w3.org/2000/svg">
<rect width="40" height="40" rx="20" fill="white" fill-opacity="0.2"/>
<path d="M16.0645 15.7786C15.9183 15.6323 15.7237 15.5518 15.5166 15.5518H11.6518C11.4447 15.5518 11.2501 15.6323 11.1038 15.7786C10.9575 15.9249 10.877 16.1195 10.877 16.3266V27.9226C10.877 28.1297 10.9575 28.3243 11.1038 28.4706C11.2501 28.6169 11.4447 28.6975 11.6518 28.6975H15.5166C15.7237 28.6975 15.9183 28.6169 16.0645 28.4706C16.2108 28.3244 16.2914 28.1297 16.2914 27.9226V16.3266C16.2914 16.1195 16.2108 15.9249 16.0645 15.7786ZM14.7418 17.1015V27.1477H12.4266V17.1015H14.7418Z" fill="white"/>
<path d="M16.077 11.0473C16.0084 10.8862 15.9252 10.7334 15.8283 10.5898C15.7313 10.4463 15.6204 10.312 15.4965 10.188C14.983 9.67442 14.3024 9.3916 13.58 9.3916C13.2145 9.3916 12.8589 9.46422 12.5227 9.60742C12.2006 9.74466 11.9115 9.93998 11.6635 10.188C11.15 10.7015 10.8672 11.3822 10.8672 12.1047C10.8672 12.4702 10.9398 12.8259 11.083 13.1621C11.2202 13.4843 11.4155 13.7735 11.6635 14.0215C12.1769 14.535 12.8576 14.8178 13.58 14.8178C13.9454 14.8178 14.3011 14.7452 14.6372 14.602C14.9594 14.4648 15.2485 14.2695 15.4965 14.0215C16.01 13.5079 16.2928 12.8272 16.2928 12.1047C16.2928 11.7393 16.2202 11.3835 16.077 11.0473ZM13.5856 13.2625C13.4295 13.2625 13.278 13.2318 13.1354 13.1711C12.9977 13.1126 12.8741 13.029 12.7677 12.9227C12.6614 12.8163 12.5778 12.6926 12.5193 12.5549C12.4587 12.4123 12.4279 12.2608 12.4279 12.1047C12.4279 11.9487 12.4587 11.7972 12.5193 11.6545C12.5778 11.5169 12.6614 11.3932 12.7677 11.2868C12.8741 11.1805 12.9977 11.0969 13.1354 11.0383C13.278 10.9777 13.4295 10.9469 13.5856 10.9469C13.7416 10.9469 13.8931 10.9777 14.0357 11.0383C14.1734 11.0969 14.297 11.1805 14.4034 11.2868C14.5097 11.3932 14.5933 11.5169 14.6518 11.6545C14.7124 11.7972 14.7432 11.9486 14.7432 12.1047C14.7432 12.1828 14.7355 12.2597 14.7202 12.3349C14.705 12.4101 14.6821 12.4836 14.6518 12.5549C14.5933 12.6926 14.5097 12.8163 14.4034 12.9227C14.297 13.029 14.1734 13.1126 14.0357 13.1711C13.8931 13.2318 13.7416 13.2625 13.5856 13.2625Z" fill="white"/>
<path d="M30.4144 20.472C30.3835 20.0911 30.3369 19.7425 30.2743 19.4207C30.2015 19.0471 30.1044 18.6984 29.9857 18.3844C29.8568 18.0432 29.6971 17.7288 29.5112 17.4498C29.3093 17.1471 29.0708 16.877 28.8022 16.6473C28.5228 16.4083 28.203 16.2061 27.8516 16.0462C27.4947 15.8839 27.0944 15.7605 26.6619 15.6794C26.2257 15.5976 25.7423 15.5561 25.225 15.5561C24.7691 15.5561 24.3246 15.6077 23.904 15.7097C23.5092 15.8055 23.1337 15.9457 22.7879 16.1267C22.665 16.1904 22.5455 16.2592 22.4301 16.3322V16.3309C22.4301 16.1238 22.3496 15.9292 22.2033 15.7829C22.057 15.6366 21.8624 15.5561 21.6553 15.5561H18.6043V15.5449H18.0912C17.8842 15.5449 17.6895 15.6255 17.5433 15.7718C17.397 15.9181 17.3164 16.1127 17.3164 16.3198V27.9157C17.3164 28.1229 17.397 28.3175 17.5433 28.4638C17.6896 28.6101 17.8842 28.6906 18.0912 28.6906H21.8057C22.0128 28.6906 22.2074 28.61 22.3536 28.4638C22.4999 28.3175 22.5805 28.1229 22.5805 27.9157V22.3183C22.5805 21.948 22.601 21.644 22.6432 21.3891C22.6904 21.1041 22.7631 20.8812 22.8656 20.7078C22.9608 20.5466 23.0852 20.4282 23.2459 20.3459C23.4462 20.2434 23.713 20.1914 24.0388 20.1914C24.3227 20.1914 24.5476 20.244 24.7072 20.3478C24.8342 20.4305 24.9307 20.5531 25.0022 20.7224L25.003 20.7246C25.0844 20.917 25.1381 21.1657 25.1673 21.485C25.1943 21.7802 25.1965 22.0824 25.1965 22.4185V27.9213C25.1965 28.1284 25.277 28.323 25.4233 28.4694C25.5696 28.6156 25.7642 28.6962 25.9713 28.6962H29.6858C29.8928 28.6962 30.0874 28.6156 30.2337 28.4694C30.38 28.323 30.4606 28.1284 30.4606 27.9213V21.7167C30.4606 21.266 30.4453 20.8529 30.4144 20.472ZM26.7019 21.3108C26.6572 20.8497 26.5675 20.464 26.4279 20.132C26.3825 20.0233 26.3317 19.9199 26.276 19.8223C26.2203 19.7248 26.1595 19.6331 26.0942 19.5481C25.9482 19.3578 25.7754 19.195 25.5805 19.0642C25.3753 18.9265 25.1415 18.8215 24.8858 18.7522C24.6285 18.6825 24.3416 18.6472 24.0333 18.6472C23.4582 18.6472 22.9547 18.7548 22.537 18.9671C22.1139 19.1821 21.7732 19.5065 21.5244 19.9314C21.3313 20.2616 21.1985 20.6438 21.118 21.0999C21.0557 21.454 21.0253 21.8561 21.0253 22.3294V27.152H18.866V17.1058H20.875V18.1577C20.875 18.3648 20.9555 18.5595 21.1018 18.7058C21.2481 18.852 21.4427 18.9326 21.6498 18.9326H21.6999C21.8416 18.9326 21.9804 18.8939 22.1012 18.8205C22.2138 18.7521 22.308 18.6553 22.3738 18.5402L22.3753 18.5374C22.481 18.3495 22.6293 18.1618 22.8042 17.9947C23.0037 17.8037 23.2362 17.639 23.4954 17.5049L23.4982 17.5035C23.7351 17.3787 23.9942 17.2818 24.2684 17.2153C24.5678 17.1426 24.8878 17.1058 25.2195 17.1058C25.6257 17.1058 25.9998 17.1362 26.3315 17.196C26.6417 17.2521 26.9236 17.3356 27.1693 17.4442C27.3975 17.5451 27.6022 17.6713 27.7779 17.8193C27.9447 17.9597 28.0924 18.1261 28.2171 18.3137C28.3419 18.5015 28.4506 18.7197 28.5401 18.9621C28.6274 19.1988 28.6997 19.4672 28.7548 19.7601C28.8561 20.2978 28.9054 20.9396 28.9054 21.7223V27.152H26.7405V22.4241C26.7405 22.0329 26.7376 21.6792 26.7019 21.3108Z" fill="white"/>
</svg>
