<svg width="24" height="25" viewBox="0 0 24 25" fill="none" xmlns="http://www.w3.org/2000/svg">
<path opacity="0.4" d="M17.5401 9.30965C19.1748 9.30965 20.5001 7.98441 20.5001 6.34965C20.5001 4.71489 19.1748 3.38965 17.5401 3.38965C15.9053 3.38965 14.5801 4.71489 14.5801 6.34965C14.5801 7.98441 15.9053 9.30965 17.5401 9.30965Z" fill="white"/>
<path d="M6.46 9.30965C8.09476 9.30965 9.42 7.98441 9.42 6.34965C9.42 4.71489 8.09476 3.38965 6.46 3.38965C4.82524 3.38965 3.5 4.71489 3.5 6.34965C3.5 7.98441 4.82524 9.30965 6.46 9.30965Z" fill="white"/>
<path d="M17.5401 21.6104C19.1748 21.6104 20.5001 20.2852 20.5001 18.6504C20.5001 17.0157 19.1748 15.6904 17.5401 15.6904C15.9053 15.6904 14.5801 17.0157 14.5801 18.6504C14.5801 20.2852 15.9053 21.6104 17.5401 21.6104Z" fill="white"/>
<path opacity="0.4" d="M6.46 21.6104C8.09476 21.6104 9.42 20.2852 9.42 18.6504C9.42 17.0157 8.09476 15.6904 6.46 15.6904C4.82524 15.6904 3.5 17.0157 3.5 18.6504C3.5 20.2852 4.82524 21.6104 6.46 21.6104Z" fill="white"/>
</svg>
