<svg width="1409" height="373" viewBox="0 0 1409 373" fill="none" xmlns="http://www.w3.org/2000/svg">
<g opacity="0.4" clip-path="url(#clip0_618_2450)" filter="url(#filter0_n_618_2450)">
<path d="M401.568 361.023C398.278 361.023 396.633 359.373 396.633 356.074V168.396C396.633 166.982 396.984 165.804 397.689 164.862C398.629 163.919 399.923 163.448 401.568 163.448H433.291C434.936 163.448 436.111 163.919 436.816 164.862C437.756 165.804 438.226 166.982 438.226 168.396V181.473C438.226 184.065 438.932 185.361 440.342 185.361C441.282 185.361 442.456 184.654 443.865 183.241C451.386 174.758 459.024 168.749 466.778 165.215C474.767 161.681 483.581 159.913 493.216 159.913C522.824 159.913 542.916 170.634 553.491 192.077C557.486 199.852 559.953 207.746 560.894 215.757C561.834 223.769 562.303 233.665 562.303 245.446V356.074C562.303 357.724 561.834 359.019 560.894 359.962C559.953 360.669 558.779 361.023 557.37 361.023H525.292C523.883 361.023 522.707 360.669 521.766 359.962C520.828 359.019 520.357 357.724 520.357 356.074V245.446C520.357 235.079 519.534 226.596 517.889 219.999C516.48 213.401 514.012 208.217 510.487 204.447C504.847 198.085 495.917 194.904 483.697 194.904C469.363 194.904 458.671 199.146 451.621 207.628C446.922 213.048 443.514 220.234 441.398 229.188C439.284 238.142 438.226 250.396 438.226 265.945V356.074C438.226 359.373 436.581 361.023 433.291 361.023H401.568ZM678.883 364.91C659.613 364.91 642.458 360.551 627.42 351.833C612.614 342.879 601.099 330.744 592.874 315.429C584.649 299.877 580.537 282.44 580.537 263.119C580.537 245.211 584.18 228.363 591.465 212.576C598.985 196.789 610.029 184.065 624.599 174.405C639.404 164.744 657.146 159.913 677.824 159.913C695.215 159.913 711.312 163.684 726.117 171.224C741.156 178.528 753.142 189.72 762.072 204.8C771.235 219.881 775.819 238.378 775.819 260.29V265.945C775.819 267.595 775.348 268.892 774.408 269.835C773.469 270.541 772.293 270.894 770.884 270.894H628.124C624.599 270.894 623.189 272.661 623.894 276.196C624.834 281.615 626.713 287.152 629.534 292.807C634.233 303.883 640.931 312.6 649.625 318.962C658.555 325.324 668.661 328.506 679.941 328.506C690.985 328.506 700.619 325.796 708.844 320.377C717.069 314.956 723.296 307.888 727.526 299.17C728.936 296.812 730.817 295.635 733.166 295.635H766.3C768.181 295.635 769.474 296.106 770.179 297.049C771.119 297.755 771.353 298.698 770.884 299.877C764.068 319.198 752.906 334.868 737.397 346.884C721.887 358.901 702.382 364.91 678.883 364.91ZM726.822 238.024C728.702 238.024 729.994 237.553 730.699 236.61C731.639 235.668 731.875 234.372 731.404 232.722C729.525 226.596 727.762 222.119 726.117 219.292C721.417 211.045 714.955 204.8 706.73 200.559C698.505 196.082 689.34 193.844 679.236 193.844C668.895 193.844 659.731 196.082 651.742 200.559C643.75 204.8 637.288 211.045 632.353 219.292C629.769 223.769 627.889 228.246 626.713 232.722C626.479 233.194 626.362 233.783 626.362 234.49C626.362 236.846 627.889 238.024 630.943 238.024H726.822ZM885.345 364.91C866.074 364.91 849.037 360.551 834.234 351.833C819.429 343.115 807.914 330.979 799.689 315.429C791.464 299.641 787.351 281.615 787.351 261.351C787.351 241.794 791.464 224.358 799.689 209.042C807.914 193.49 819.429 181.473 834.234 172.991C849.037 164.273 866.074 159.913 885.345 159.913C907.434 159.913 926.351 165.333 942.097 176.172C957.84 186.775 968.533 201.384 974.173 219.999C974.408 220.47 974.526 221.059 974.526 221.766C974.526 224.358 972.999 225.654 969.942 225.654H934.694C932.109 225.654 930.228 224.24 929.054 221.412C925.529 212.93 919.889 206.332 912.135 201.62C904.615 196.907 895.685 194.551 885.345 194.551C874.535 194.551 864.901 197.378 856.44 203.033C847.981 208.453 841.401 216.229 836.702 226.361C832 236.493 829.65 248.156 829.65 261.351C829.65 275.017 832 287.034 836.702 297.403C841.401 307.77 847.981 315.781 856.44 321.436C864.901 327.091 874.535 329.919 885.345 329.919C896.625 329.919 906.142 327.209 913.896 321.79C921.652 316.37 927.174 308.949 930.464 299.523C931.169 296.931 933.049 295.635 936.104 295.635H971C974.76 295.635 976.289 297.403 975.582 300.936C970.178 320.966 959.368 336.635 943.153 347.945C926.938 359.255 907.669 364.91 885.345 364.91ZM1056.04 361.023C1040.77 361.023 1029.25 357.488 1021.5 350.42C1013.74 343.349 1009.87 331.687 1009.87 315.429V203.033C1009.87 199.735 1008.22 198.085 1004.93 198.085H985.191C981.901 198.085 980.256 196.436 980.256 193.137V168.396C980.256 166.982 980.609 165.804 981.314 164.862C982.254 163.919 983.546 163.448 985.191 163.448H1004.93C1008.22 163.448 1009.87 161.798 1009.87 158.5V96.2939C1009.87 92.995 1011.51 91.3457 1014.8 91.3457H1046.53C1049.82 91.3457 1051.46 92.995 1051.46 96.2939V158.5C1051.46 160.149 1051.93 161.445 1052.87 162.388C1053.81 163.094 1054.98 163.448 1056.4 163.448H1086.71C1088.35 163.448 1089.53 163.919 1090.23 164.862C1091.17 165.804 1091.64 166.982 1091.64 168.396V193.137C1091.64 196.436 1090 198.085 1086.71 198.085H1056.4C1054.98 198.085 1053.81 198.556 1052.87 199.499C1051.93 200.206 1051.46 201.384 1051.46 203.033V303.765C1051.46 311.305 1052.63 316.96 1054.98 320.729C1057.33 324.265 1062.5 326.032 1070.49 326.032H1086.36C1089.65 326.032 1091.29 327.682 1091.29 330.979V356.074C1091.29 359.373 1089.65 361.023 1086.36 361.023H1056.04ZM1165.31 364.91C1146.04 364.91 1130.53 359.844 1118.78 349.711C1107.03 339.58 1101.15 325.442 1101.15 307.3C1101.15 288.92 1108.32 274.429 1122.65 263.825C1133 256.285 1148.27 250.512 1168.48 246.507L1226.29 235.55C1227.7 235.314 1228.76 234.725 1229.46 233.783C1230.4 232.84 1230.75 231.544 1230.52 229.895C1229.34 218.585 1225.94 210.102 1220.3 204.447C1213.01 197.143 1203.14 193.49 1190.69 193.49C1181.29 193.49 1172.94 195.965 1165.66 200.913C1158.61 205.861 1153.79 212.576 1151.21 221.059C1150.03 224.122 1148.15 225.654 1145.57 225.654H1113.84C1112.2 225.654 1111.02 225.182 1110.32 224.24C1109.61 223.062 1109.38 221.648 1109.61 219.999C1113.84 200.677 1123.48 185.833 1138.52 175.465C1153.79 165.097 1171.3 159.913 1191.04 159.913C1202.79 159.913 1213.72 161.563 1223.82 164.862C1234.16 168.16 1242.97 173.109 1250.26 179.706C1259.89 188.66 1265.89 199.146 1268.23 211.162C1270.82 223.18 1272.11 237.435 1272.11 253.929V356.074C1272.11 359.373 1270.47 361.023 1267.18 361.023H1235.45C1232.16 361.023 1230.52 359.373 1230.52 356.074V342.643C1230.52 339.816 1229.81 338.401 1228.4 338.401C1227.93 338.401 1227.11 338.991 1225.94 340.169C1221.24 346.06 1216.18 350.654 1210.78 353.953C1199.73 361.257 1184.58 364.91 1165.31 364.91ZM1174.47 330.979C1184.11 330.979 1193.15 328.977 1201.61 324.971C1211.95 319.787 1219.36 312.955 1223.82 304.471C1228.29 295.988 1230.75 285.032 1231.22 271.6C1231.22 269.951 1230.75 268.774 1229.81 268.067C1228.87 267.124 1227.58 266.77 1225.94 267.006L1178.7 276.549C1165.07 279.377 1155.44 283.383 1149.8 288.567C1145.1 293.279 1142.75 299.17 1142.75 306.239C1142.75 314.014 1145.57 320.141 1151.21 324.617C1157.08 328.859 1164.84 330.979 1174.47 330.979ZM1303.11 361.023C1299.82 361.023 1298.17 359.373 1298.17 356.074V168.396C1298.17 166.982 1298.53 165.804 1299.23 164.862C1300.17 163.919 1301.46 163.448 1303.11 163.448H1334.83C1336.48 163.448 1337.65 163.919 1338.36 164.862C1339.3 165.804 1339.77 166.982 1339.77 168.396V179.706C1339.77 182.298 1340.47 183.594 1341.88 183.594C1342.82 183.594 1344 182.887 1345.41 181.473C1352.69 173.698 1360.45 168.16 1368.67 164.862C1377.13 161.563 1386.89 159.913 1397.93 159.913C1401.22 159.913 1402.86 161.563 1402.86 164.862V195.611C1402.86 197.025 1402.4 198.203 1401.46 199.146C1400.75 200.088 1399.57 200.559 1397.93 200.559H1392.29C1376.55 200.559 1364.44 204.8 1355.98 213.283C1345.17 223.415 1339.77 240.852 1339.77 265.593V356.074C1339.77 359.373 1338.12 361.023 1334.83 361.023H1303.11Z" fill="url(#paint0_linear_618_2450)"/>
<path d="M224.32 300.357C224.772 300.34 225.221 300.449 225.613 300.672C226.008 300.897 226.333 301.225 226.55 301.622C227.191 302.717 227.812 303.832 228.432 304.945L233.864 314.536L239.044 323.76C240.164 325.753 241.304 327.736 242.426 329.719L247.066 337.949C248.544 340.564 250.042 343.162 251.52 345.777C252.255 347.079 252.971 348.403 253.706 349.705L256.285 354.282C256.5 354.68 256.689 355.087 256.773 355.388C256.979 355.791 257.098 356.232 257.125 356.684C257.151 357.135 257.083 357.587 256.925 358.011C256.549 359.154 256.153 360.286 255.756 361.42C254.994 363.581 254.251 365.742 253.479 367.896C252.5 370.651 251.453 373.399 250.513 376.156C249.458 379.095 248.414 382.029 247.378 384.955C246.228 388.171 245.086 391.391 243.95 394.615L241.304 402.167C240.504 404.433 239.684 406.688 238.884 408.954C237.71 412.24 236.541 415.526 235.373 418.811C235.252 419.169 235.119 419.518 234.977 419.867C234.807 420.348 234.513 420.778 234.124 421.109C233.735 421.441 233.266 421.664 232.765 421.756C231.823 421.945 230.881 422.133 229.941 422.303L226.174 422.926C225.327 423.059 224.404 423.181 223.622 423.293C222.841 423.407 222.069 423.55 221.297 423.69C219.678 423.964 218.134 424.257 216.438 424.53C214.745 424.806 213.038 425.04 211.345 425.314C210.402 425.475 209.46 425.683 208.52 425.844C207.974 425.938 207.408 425.994 206.862 426.08L201.656 426.911C201.026 427.014 200.394 427.147 199.773 427.261L194.687 428.127C193.991 428.251 193.285 428.337 192.58 428.45C191.045 428.695 189.453 428.931 187.871 429.195C186.139 429.516 184.406 429.838 182.683 430.14L180.801 430.451L173.711 431.574C173.03 431.745 172.31 431.67 171.679 431.362C171.047 431.055 170.543 430.536 170.255 429.895C169.116 427.958 168.015 425.994 166.885 424.06C164.65 420.238 162.413 416.418 160.172 412.598C158.572 409.891 156.976 407.179 155.388 404.459C153.364 401.014 151.359 397.541 149.334 394.075L141.388 380.584C140.324 378.781 139.222 376.94 138.177 375.167C137.132 373.392 136.105 371.605 135.079 369.812C134.707 369.199 134.495 368.501 134.462 367.784C134.429 367.066 134.577 366.352 134.891 365.707C135.22 365.064 135.532 364.423 135.833 363.771C137.377 360.479 138.914 357.184 140.446 353.885C141.736 351.195 142.96 348.496 144.212 345.814C145.586 342.851 146.981 339.904 148.356 336.95C150.534 332.18 152.73 327.413 154.946 322.656C156.019 320.343 157.102 318.03 158.166 315.717L161.067 309.552C162.015 307.476 162.975 305.401 163.948 303.33C164.135 302.855 164.457 302.445 164.873 302.151C165.289 301.854 165.782 301.689 166.292 301.671C166.631 301.594 166.97 301.594 167.299 301.594L176.168 301.367V301.273H182.119C183.06 301.264 184.002 301.178 184.943 301.178C185.429 301.144 185.919 301.183 186.394 301.29C186.959 301.446 187.464 301.766 187.845 302.211C188.228 302.655 188.471 303.202 188.54 303.785C188.918 305.626 189.303 307.607 189.641 309.298C189.982 310.988 190.339 312.679 190.668 314.368C191.025 316.208 191.356 318.058 191.705 319.899C191.808 320.456 191.939 321.005 192.051 321.552C192.55 324.092 193.07 326.632 193.56 329.172C193.935 331.125 194.285 333.08 194.651 335.033C194.915 336.393 195.188 337.762 195.451 339.121C195.762 340.744 196.072 342.36 196.394 343.983C196.459 344.313 196.534 344.644 196.61 344.974C196.781 345.634 197.167 346.215 197.711 346.626C198.212 346.997 198.839 347.158 199.457 347.079C200.076 347.001 200.641 346.686 201.035 346.2C201.405 345.724 201.633 345.151 201.695 344.551C201.807 343.171 201.91 341.754 202.022 340.405C202.136 339.055 202.239 337.715 202.362 336.363C202.542 334.305 202.738 332.257 202.908 330.199C203.144 327.395 203.37 324.609 203.596 321.777C203.738 320.021 203.878 318.255 204.03 316.501C204.095 315.717 204.189 314.934 204.256 314.15C204.471 311.498 204.669 308.835 204.886 306.182C204.97 305.172 205.075 304.162 205.15 303.151C205.194 302.587 205.404 302.047 205.751 301.603C205.94 301.339 206.181 301.12 206.46 300.957C206.74 300.794 207.051 300.692 207.372 300.66C207.557 300.649 207.742 300.649 207.925 300.66L223.538 300.357H224.32ZM46.3545 233.391C48.5198 233.448 50.6953 233.543 52.8606 233.609C53.868 233.684 54.8855 233.684 55.8929 233.684C57.0885 233.722 58.3974 233.845 59.4801 233.845C60.5628 233.845 61.6558 233.76 62.7386 233.845C65.5065 234.109 68.3316 233.976 71.1562 234.108C73.6981 234.222 76.2404 234.279 79.8273 234.392C81.701 234.439 84.6201 234.495 87.5292 234.59C89.996 234.675 92.4629 234.816 94.9391 234.892C97.1798 234.958 99.4309 235.024 101.672 235.024C102.679 235.052 103.686 235.137 104.702 235.137C106.143 235.175 107.546 235.232 108.968 235.232C110.541 235.28 112.104 235.421 113.676 235.421C114.33 235.416 114.973 235.588 115.537 235.921C116.1 236.253 116.563 236.734 116.877 237.31C118.464 239.991 120.05 242.672 121.632 245.353C123.396 248.367 125.153 251.379 126.904 254.388C127.123 254.74 127.318 255.106 127.488 255.482C127.79 256.11 127.876 256.823 127.733 257.505C127.59 258.187 127.226 258.806 126.698 259.259C123.807 261.818 120.897 264.358 118.007 266.907C116.641 268.172 115.22 269.447 113.817 270.682L105.71 277.801L96.0033 286.344C95.6692 286.636 95.3541 286.953 95.0613 287.289C94.7503 287.63 94.5177 288.037 94.3824 288.479C94.2472 288.919 94.2115 289.386 94.2783 289.843C94.345 290.301 94.5136 290.738 94.7693 291.122C95.0251 291.506 95.3632 291.828 95.7588 292.066C96.1579 292.316 96.6097 292.469 97.0785 292.514C97.5477 292.558 98.0214 292.492 98.4605 292.319C99.3172 292.083 100.146 291.725 100.965 291.375L115.087 285.362L126.161 280.689L136.198 276.442C136.543 276.294 136.903 276.183 137.271 276.11C137.803 275.982 138.36 276.014 138.874 276.2C139.389 276.384 139.839 276.713 140.17 277.15C140.409 277.446 140.623 277.763 140.811 278.095C142.794 281.448 144.774 284.807 146.751 288.168C148.22 290.649 149.709 293.133 151.178 295.615C151.366 295.935 151.544 296.267 151.704 296.606C151.923 297.045 152.045 297.525 152.06 298.012C152.074 298.501 151.982 298.988 151.79 299.438C151.413 300.299 151.008 301.138 150.612 301.989C149.002 305.378 147.401 308.775 145.782 312.154C144.935 313.91 144.059 315.657 143.212 317.414C141.981 319.987 140.767 322.591 139.568 325.222C137.817 328.913 136.112 332.538 134.314 336.294C132.516 340.052 130.679 343.773 128.881 347.548C127.516 350.38 126.197 353.212 124.832 356.044C123.721 358.348 122.583 360.623 121.453 362.918C121.165 363.527 120.713 364.042 120.15 364.406C119.586 364.771 118.931 364.974 118.26 364.987C115.398 365.261 112.479 365.516 109.655 365.78C108.421 365.892 107.16 365.986 105.889 366.11C105.296 366.166 104.702 366.278 104.109 366.337C102.283 366.505 100.494 366.629 98.5172 366.816C96.54 367.006 94.5719 367.233 92.6043 367.431C90.9282 367.591 89.3548 367.742 87.5658 367.894C85.7772 368.044 83.9795 368.121 82.2006 368.348C78.1896 368.867 74.1582 369.122 70.1283 369.499L62.2019 370.245C60.4131 370.413 58.6144 370.546 56.8257 370.717C54.632 370.923 52.3521 371.178 50.2338 371.377C48.1157 371.575 45.9883 371.735 43.8609 371.924C43.2989 371.98 42.7316 371.885 42.2198 371.647C41.7079 371.407 41.2694 371.034 40.9509 370.565C40.6805 370.205 40.4284 369.83 40.1969 369.442L33.437 358.114C32.2036 356.027 30.9327 353.949 29.6711 351.863C27.7881 348.747 25.904 345.651 24.021 342.526C22.138 339.402 20.2558 336.23 18.3728 333.085C17.0547 330.905 15.7077 328.733 14.3895 326.553C12.7608 323.863 11.1605 321.153 9.53179 318.454C8.24189 316.3 6.92268 314.158 5.62334 312.004C4.83259 310.692 4.05216 309.361 3.25199 308.049C2.61174 306.992 1.94286 305.952 1.2932 304.895C0.986887 304.428 0.70703 303.942 0.45528 303.442C0.127199 302.831 -0.0288003 302.141 0.00437505 301.446C0.0375993 300.754 0.258424 300.081 0.643309 299.504C2.72095 296.213 4.81695 292.923 6.93225 289.639C8.64571 286.901 10.3123 284.145 12.0163 281.407C13.0709 279.727 14.1729 278.074 15.2274 276.393C16.4326 274.487 17.61 272.55 18.7964 270.663C20.086 268.596 21.3196 266.678 22.6848 264.47C24.0498 262.262 25.4052 260.052 26.7702 257.863C27.9283 256.011 29.1063 254.189 30.2644 252.348C31.6578 250.092 33.0802 247.826 34.4831 245.569L37.3071 240.991C38.462 239.147 39.6229 237.306 40.7903 235.468C40.9503 235.214 41.1208 234.976 41.2997 234.731C41.5745 234.325 41.9427 233.992 42.373 233.759C42.8039 233.525 43.2855 233.399 43.775 233.391H46.3545ZM264.544 242.578C265.626 242.644 266.711 242.748 267.793 242.814C269.582 242.927 271.371 243.012 273.169 243.125C274.769 243.238 276.37 243.391 277.97 243.504L281.445 243.74C283.684 243.882 285.927 244.004 288.167 244.165C291.341 244.391 294.523 244.447 297.686 244.787C299.286 244.957 300.897 244.977 302.507 245.071C302.808 245.08 303.101 245.146 303.402 245.146C303.817 245.156 304.221 245.275 304.576 245.492C304.929 245.709 305.219 246.018 305.417 246.383C305.821 247.053 306.215 247.734 306.593 248.422C307.787 250.594 308.965 252.766 310.162 254.937C310.999 256.448 311.855 257.94 312.693 259.449L315.179 263.981C316.385 266.144 317.637 268.399 318.785 270.466C319.934 272.534 321.065 274.601 322.213 276.668L325.866 283.278L330.5 291.641C330.876 292.331 331.207 293.049 331.629 293.71C332.149 294.552 332.336 295.558 332.156 296.531C332.093 296.902 332.001 297.27 331.883 297.626C330.973 300.647 330.057 303.663 329.133 306.672C328.042 310.22 326.931 313.76 325.857 317.32C324.52 321.7 323.211 326.12 321.875 330.538C321.073 333.162 320.256 335.777 319.447 338.392C318.871 340.328 318.306 342.217 317.723 344.105C317.469 344.965 317.205 345.833 316.902 346.682C316.772 347.021 316.59 347.34 316.366 347.625C316.233 347.808 316.061 347.958 315.863 348.065C315.663 348.17 315.442 348.232 315.218 348.239C313.203 348.391 311.188 348.569 309.175 348.731C306.84 348.92 304.475 349.145 302.131 349.287C299.25 349.477 296.396 349.855 293.506 349.921C291.829 349.958 290.154 350.204 288.477 350.354L286.35 350.494L281.643 350.826L278.289 351.128L270.9 351.703L269.337 351.846H268.771C268.365 351.896 267.952 351.835 267.578 351.668C267.202 351.503 266.879 351.238 266.643 350.901C266.415 350.603 266.211 350.286 266.03 349.956L259.14 337.827C257.143 334.315 255.149 330.783 253.152 327.262L247.699 317.68L242.295 308.24C241.306 306.55 240.329 304.756 239.424 303.151C238.521 301.545 237.661 299.929 236.721 298.344C236.356 297.776 236.141 297.124 236.095 296.449C236.046 295.776 236.167 295.099 236.448 294.484C238.059 290.595 239.622 286.704 241.213 282.805C241.777 281.418 242.333 280.029 242.906 278.642C243.007 278.359 243.131 278.085 243.275 277.821C243.469 277.386 243.815 277.036 244.249 276.841C244.682 276.644 245.174 276.612 245.628 276.755C245.918 276.824 246.198 276.927 246.468 277.056C248.471 277.999 250.374 278.897 252.474 279.889C254.573 280.878 256.7 281.823 258.809 282.768L269.487 287.742C271.257 288.563 273.027 289.358 274.797 290.16C274.932 290.228 275.07 290.288 275.212 290.34C275.511 290.498 275.85 290.573 276.188 290.559C276.528 290.544 276.859 290.439 277.145 290.258C277.431 290.074 277.663 289.819 277.82 289.517C277.977 289.216 278.052 288.876 278.035 288.537C278.08 288.05 278.013 287.557 277.841 287.099C277.667 286.642 277.392 286.228 277.037 285.892C275.287 284.248 273.554 282.588 271.812 280.936C268.423 277.714 265.024 274.49 261.615 271.268L252.7 262.866C252.158 262.404 251.689 261.863 251.307 261.261C251.042 260.843 250.883 260.365 250.844 259.872C250.806 259.377 250.89 258.883 251.089 258.429C251.578 257.154 252.087 255.899 252.605 254.654C253.451 252.568 254.309 250.489 255.156 248.403L256.87 244.117C256.988 243.792 257.128 243.476 257.295 243.173C257.437 242.888 257.657 242.649 257.928 242.483C258.199 242.316 258.512 242.227 258.829 242.228C258.904 242.224 258.979 242.224 259.054 242.228L264.544 242.578ZM162.721 173.594C165.376 173.745 168.011 174.076 170.647 174.416C171.24 174.503 171.838 174.557 172.436 174.577C173.82 174.605 175.186 174.812 176.56 174.972C178.5 175.208 180.431 175.398 182.371 175.615C184.894 175.907 187.417 176.21 189.948 176.493L196.756 177.229L207.019 178.353C208.395 178.504 209.771 178.655 211.154 178.787C212.274 178.894 213.36 179.234 214.343 179.783C215.326 180.332 216.186 181.079 216.868 181.977C217.626 183.002 218.302 184.085 218.893 185.216C220.437 187.831 221.953 190.465 223.469 193.099C225.351 196.378 227.234 199.66 229.116 202.945L233.9 211.215C235.237 213.519 236.556 215.833 237.893 218.136L241.942 225.15C242.628 226.349 243.364 227.529 244.013 228.756C244.708 229.965 245.116 231.318 245.211 232.71C245.305 234.102 245.082 235.498 244.559 236.79C243.449 239.622 242.319 242.455 241.198 245.287C239.848 248.673 238.497 252.05 237.14 255.417C236.123 257.966 235.087 260.496 234.07 263.036C232.909 265.97 231.745 268.899 230.578 271.825C230.079 273.1 229.559 274.348 229.06 275.602C228.176 277.821 227.301 280.02 226.415 282.211C225.91 283.6 224.978 284.79 223.749 285.609C222.847 286.215 221.787 286.541 220.699 286.552C219.467 286.552 218.233 286.563 216.999 286.648C214.119 286.856 211.294 286.788 208.471 286.854C205.948 286.912 203.441 286.949 200.936 287.073C196.973 287.279 192.999 287.195 189.036 287.326C186.946 287.394 184.922 287.45 182.747 287.572C180.572 287.695 178.369 287.695 176.157 287.695C174.405 287.733 172.644 287.754 170.883 287.828C169.36 287.93 167.839 287.613 166.483 286.912C165.128 286.209 163.988 285.148 163.19 283.844C162.211 282.38 161.374 280.822 160.479 279.302C158.916 276.627 157.347 273.943 155.771 271.25L150.245 261.808C147.477 257.132 144.715 252.446 141.959 247.751C140.151 244.683 138.372 241.595 136.574 238.527C135.209 236.196 133.843 233.864 132.45 231.551C131.832 230.567 131.384 229.485 131.123 228.352C130.633 226.281 130.914 224.101 131.913 222.223C133.777 218.721 135.735 215.247 137.618 211.764C138.87 209.451 140.122 207.071 141.384 204.73C142.241 203.163 143.108 201.567 143.975 200.009C144.841 198.452 145.688 196.865 146.554 195.288L151.262 186.698C152.373 184.659 153.477 182.612 154.575 180.561C155.225 179.371 155.838 178.173 156.507 177.002C157.076 175.87 157.975 174.938 159.085 174.33C160.194 173.721 161.463 173.464 162.721 173.594ZM247.24 132.453C248.021 132.547 248.793 132.68 249.574 132.812C250.902 133.02 252.173 133.227 253.558 133.463C254.941 133.699 256.362 133.963 257.766 134.199L263.63 135.144L270.947 136.268C272.491 136.513 274.055 136.73 275.599 136.994C277.622 137.344 279.646 137.74 281.671 138.089C283.996 138.485 286.322 138.844 288.647 139.231C289.231 139.326 289.825 139.458 290.41 139.581C291.031 139.744 291.567 140.136 291.915 140.677C292.175 141.047 292.414 141.431 292.631 141.829C295.179 146.335 297.729 150.835 300.276 155.328C302.215 158.755 304.232 162.249 306.114 165.601C307.997 168.952 309.879 172.246 311.762 175.56C313.138 177.967 314.541 180.357 315.915 182.774C316.527 183.84 317.101 184.945 317.684 186.03C317.88 186.394 317.996 186.796 318.02 187.209C318.045 187.621 317.979 188.035 317.828 188.419C316.594 191.997 315.398 195.594 314.192 199.191C313.711 200.626 313.25 202.042 312.769 203.458C312.018 205.695 311.227 207.98 310.483 210.17C309.739 212.36 309.014 214.578 308.27 216.778C306.901 220.831 305.529 224.881 304.155 228.928C304.004 229.381 303.864 229.864 303.714 230.327C303.684 230.544 303.609 230.753 303.497 230.942C303.387 231.131 303.241 231.295 303.066 231.427C302.89 231.558 302.692 231.655 302.48 231.709C302.267 231.763 302.047 231.774 301.83 231.742H299.25C296.859 231.657 294.457 231.6 292.066 231.496C289.195 231.374 286.266 231.204 283.441 231.072C280.071 230.911 276.71 230.78 273.349 230.638C272.481 230.591 271.625 230.59 270.76 230.59C267.098 230.524 263.434 230.261 259.781 230.034C259.332 230.001 258.882 230.001 258.433 230.034C257.857 230.091 257.278 229.97 256.771 229.686C256.267 229.402 255.861 228.969 255.609 228.447C255.139 227.588 254.62 226.757 254.13 225.917L248.905 216.855C248.238 215.684 247.55 214.522 246.89 213.342C246.712 213.016 246.57 212.671 246.468 212.313C246.325 211.882 246.311 211.419 246.423 210.979C246.535 210.54 246.768 210.14 247.099 209.829L250.12 206.809L254.442 202.542L266.447 190.703C266.559 190.6 266.655 190.486 266.776 190.392C268.432 188.995 267.322 186.548 265.899 185.878C265.66 185.772 265.4 185.717 265.139 185.717C264.877 185.717 264.615 185.772 264.376 185.878L262.69 186.502L251.778 190.581L240.093 194.904C239.706 195.055 239.312 195.169 238.925 195.31C238.472 195.502 237.968 195.539 237.491 195.418C237.014 195.297 236.588 195.025 236.278 194.641C235.797 194.059 235.38 193.425 235.037 192.752C233.154 189.504 231.27 186.256 229.387 183.008C228.445 181.347 227.505 179.675 226.563 178.033C226.249 177.541 226.069 176.976 226.043 176.393C226.017 175.809 226.144 175.229 226.411 174.711C228.232 170.796 230.045 166.906 231.853 163.042C234.038 158.236 236.233 153.43 238.446 148.625C240.486 144.22 242.516 139.815 244.536 135.409C244.839 134.758 245.14 134.115 245.432 133.463C245.565 133.108 245.821 132.812 246.152 132.627C246.482 132.442 246.868 132.38 247.24 132.453ZM45.303 96.635C45.8711 96.4268 46.488 96.3919 47.0756 96.5361C48.5443 96.7816 49.9381 97.0937 51.3692 97.358C51.8115 97.4429 52.2633 97.462 52.7054 97.5374C54.4441 97.8583 56.174 98.1735 57.8936 98.4819C58.8917 98.6612 59.8714 98.8974 60.8692 99.0768C63.8445 99.6243 66.8391 100.143 69.8144 100.7C71.3678 101.003 72.9407 101.352 74.5223 101.645C76.9138 102.079 79.3146 102.475 81.7058 102.919C83.4383 103.23 85.1527 103.59 86.8757 103.92C87.4684 104.033 88.0614 104.107 88.6446 104.211C90.1605 104.476 91.6672 104.723 93.183 104.996C94.0207 105.148 94.8587 105.345 95.7059 105.496C97.4006 105.798 99.097 106.071 100.792 106.355L102.674 106.704C105.687 107.28 108.701 107.876 111.723 108.414C112.41 108.509 113.064 108.767 113.631 109.168C114.197 109.569 114.66 110.1 114.98 110.717C116.966 114.285 119.011 117.826 121.035 121.375C122.513 123.943 124.001 126.511 125.46 129.089C127.72 133.063 129.951 137.056 132.211 141.03C133.692 143.642 135.176 146.252 136.663 148.857L141.72 157.752C143.085 160.159 144.45 162.5 145.805 164.879C145.937 165.106 146.06 165.341 146.172 165.577C146.402 165.99 146.523 166.455 146.523 166.928C146.523 167.4 146.402 167.864 146.172 168.277C145.796 168.966 145.392 169.645 145.006 170.325L139.517 179.889C138.763 181.192 137.973 182.466 137.238 183.779C136.954 184.338 136.475 184.773 135.891 185C135.307 185.226 134.66 185.229 134.075 185.007C133.198 184.684 132.342 184.305 131.513 183.874L124.79 180.513C121.777 179.003 118.633 177.415 115.743 175.999C112.852 174.583 109.953 173.176 107.062 171.751L97.1096 166.776C96.7796 166.602 96.4401 166.447 96.0928 166.313C95.759 166.188 95.4027 166.133 95.0467 166.15C94.691 166.166 94.3416 166.254 94.0208 166.41C93.6999 166.565 93.4139 166.785 93.1793 167.054C92.945 167.322 92.7661 167.635 92.6553 167.975C92.5147 168.405 92.4938 168.867 92.5932 169.309C92.6927 169.751 92.9099 170.157 93.2213 170.486C93.5696 170.903 93.9603 171.284 94.3878 171.619L105.518 181.778C108.559 184.553 111.59 187.348 114.64 190.123C116.467 191.794 118.314 193.446 120.141 195.107C121.685 196.542 123.238 197.941 124.763 199.376C125.134 199.733 125.452 200.143 125.705 200.593C125.995 201.146 126.128 201.77 126.09 202.394C126.052 203.018 125.843 203.62 125.487 204.133L121.637 210.741C120.3 213.045 118.973 215.359 117.645 217.662C117.231 218.379 116.788 219.079 116.393 219.796C116.174 220.258 115.824 220.646 115.387 220.911C114.95 221.176 114.446 221.306 113.935 221.286H113.021L111.139 221.136C107.928 220.909 104.726 220.56 101.496 220.475C100.602 220.456 99.7083 220.324 98.8237 220.248C96.7338 220.05 94.6523 219.853 92.5622 219.674C91.4043 219.579 90.2367 219.597 89.0882 219.456C87.8386 219.3 86.5812 219.208 85.3223 219.181C84.7293 219.172 84.1261 219.04 83.5331 219.04C82.6764 218.984 81.8086 218.954 80.9519 218.888C80.0956 218.822 79.2488 218.719 78.3924 218.634L76.828 218.493L72.5728 218.152C72.055 218.115 71.5278 218.039 71.01 218.039L67.244 217.746L66.678 217.68L58.9489 217.208C58.8017 217.218 58.6541 217.218 58.5071 217.208C56.8027 216.969 55.0847 216.825 53.3646 216.774C52.4705 216.68 51.5766 216.548 50.692 216.472C48.7148 216.302 46.7365 216.161 44.7499 216.029C44.1889 215.995 43.6382 215.863 43.1215 215.641C42.4151 215.343 41.8321 214.81 41.473 214.131C40.0984 211.686 38.6676 209.25 37.2744 206.815C35.1559 203.095 32.9905 199.27 30.9379 195.655C28.8856 192.039 26.8416 188.405 24.7986 184.789L20.9012 177.936C18.1206 173.052 15.3363 168.164 12.5494 163.274L7.12575 153.833C6.60796 152.917 6.07148 152.038 5.56311 151.094C5.39425 150.769 5.24974 150.431 5.13045 150.084C4.93184 149.595 4.8726 149.061 4.96068 148.541C5.04886 148.02 5.28013 147.534 5.62882 147.139C7.09758 145.307 8.5508 143.448 9.98818 141.559C11.9372 139.067 13.859 136.528 15.808 134.007C17.9169 131.269 20.0539 128.568 22.1535 125.83C25.0437 122.092 27.8961 118.373 30.7865 114.597C33.2972 111.368 35.8096 108.139 38.3203 104.91C40.0652 102.664 41.8036 100.41 43.536 98.1507L43.8846 97.7076C44.2407 97.217 44.7346 96.8435 45.303 96.635ZM155.023 60.9633C155.423 60.7926 155.869 60.7603 156.289 60.8718L159.763 61.6644L164.567 62.7883L169.481 63.9305L177.343 65.8195L184.95 67.6316C187.54 68.2453 190.129 68.8304 192.709 69.4346C194.291 69.8028 195.853 70.19 197.416 70.5677L204.845 72.3048L207.133 72.8704C207.634 72.984 208.107 73.2073 208.514 73.5238C208.92 73.8403 209.253 74.2431 209.486 74.7026C210.529 76.5404 211.578 78.4029 212.633 80.2909C214.717 83.9414 216.788 87.5921 218.846 91.2425C220.654 94.443 222.452 97.654 224.26 100.845C226.049 103.954 227.832 107.081 229.608 110.228C231.199 113.003 232.754 115.788 234.317 118.564C234.975 119.734 235.652 120.906 236.321 122.085V122.181C236.796 122.735 237.07 123.436 237.097 124.167C237.123 124.897 236.898 125.615 236.463 126.202C234.951 129.425 233.431 132.651 231.905 135.88C230.505 138.819 229.1 141.761 227.688 144.706C226.38 147.444 225.041 150.181 223.733 152.919C222.639 155.223 221.568 157.537 220.474 159.84C219.929 160.992 219.364 162.143 218.818 163.285C218.394 164.229 217.913 165.174 217.452 166.119C217.339 166.354 217.218 166.58 217.115 166.816C216.953 167.264 216.637 167.641 216.225 167.879C215.814 168.118 215.332 168.203 214.863 168.119L213.074 167.901C209.808 167.486 206.54 167.081 203.282 166.657C201.757 166.458 200.243 166.23 198.717 166.042C198.192 165.991 197.687 165.806 197.255 165.505C196.822 165.205 196.472 164.799 196.24 164.325C196.025 163.931 195.868 163.508 195.777 163.069C195.42 161.417 195.111 159.793 194.771 158.103C194.433 156.413 194.064 154.723 193.717 153.033C193.143 150.276 192.595 147.52 192.012 144.763C191.662 143.073 191.27 141.391 190.901 139.702C190.817 139.305 190.769 138.89 190.685 138.484C190.288 136.653 189.885 134.764 189.488 132.876C189.159 131.413 188.868 130.016 188.546 128.582C188.443 128.084 188.219 127.621 187.89 127.235C187.561 126.848 187.138 126.551 186.665 126.372C186.405 126.234 186.117 126.159 185.823 126.153C185.529 126.146 185.238 126.209 184.972 126.336C184.707 126.462 184.475 126.649 184.295 126.881C184.115 127.114 183.99 127.387 183.933 127.676C183.87 127.891 183.826 128.113 183.802 128.336C183.708 129.233 183.622 130.13 183.528 131.027C183.105 134.945 182.672 138.863 182.258 142.78C182.126 144.008 182.041 145.245 181.918 146.482C181.767 147.935 181.589 149.379 181.429 150.833C181.297 152.031 181.175 153.221 181.053 154.42C180.827 156.582 180.609 158.755 180.374 160.916C180.304 161.321 180.2 161.719 180.063 162.106C179.985 162.4 179.822 162.664 179.594 162.866C179.367 163.067 179.084 163.196 178.784 163.237C178.265 163.304 177.74 163.303 177.221 163.237C175.442 163.039 173.661 162.785 171.872 162.558C169.566 162.256 167.193 161.982 164.859 161.68C163.484 161.5 162.118 161.266 160.744 161.096C160.202 161.033 159.684 160.838 159.234 160.528C158.785 160.219 158.418 159.804 158.164 159.32C156.987 157.272 155.828 155.213 154.67 153.155L151.488 147.49C149.662 144.199 147.778 140.835 145.838 137.399C143.899 133.963 141.966 130.532 140.039 127.108C138.645 124.666 137.257 122.217 135.876 119.763C134.643 117.544 133.42 115.345 132.196 113.155C130.709 110.606 129.306 108.076 127.884 105.518C127.674 105.086 127.527 104.624 127.45 104.149C127.397 103.832 127.408 103.508 127.481 103.195C127.554 102.883 127.686 102.586 127.873 102.326C128.579 101.259 129.267 100.193 129.964 99.1171C132.123 95.7374 134.292 92.3635 136.47 88.9966C137.995 86.6461 139.549 84.2856 141.074 81.9255C142.326 79.9807 143.58 78.0166 144.842 76.0718L152.129 64.8457C152.666 64.0247 153.183 63.203 153.71 62.3819C153.823 62.1934 153.955 62.0049 154.077 61.8163C154.289 61.4347 154.622 61.1343 155.023 60.9633Z" fill="url(#paint1_linear_618_2450)"/>
</g>
<defs>
<filter id="filter0_n_618_2450" x="0" y="0" width="1411.35" height="373" filterUnits="userSpaceOnUse" color-interpolation-filters="sRGB">
<feFlood flood-opacity="0" result="BackgroundImageFix"/>
<feBlend mode="normal" in="SourceGraphic" in2="BackgroundImageFix" result="shape"/>
<feTurbulence type="fractalNoise" baseFrequency="0.90909087657928467 0.90909087657928467" stitchTiles="stitch" numOctaves="3" result="noise" seed="3550" />
<feColorMatrix in="noise" type="luminanceToAlpha" result="alphaNoise" />
<feComponentTransfer in="alphaNoise" result="coloredNoise1">
<feFuncA type="discrete" tableValues="1 1 1 1 1 1 1 1 1 1 1 1 1 1 1 1 1 1 1 1 1 1 1 1 1 1 1 1 1 1 1 1 1 1 1 1 1 1 1 1 1 1 1 1 1 1 1 1 1 1 1 0 0 0 0 0 0 0 0 0 0 0 0 0 0 0 0 0 0 0 0 0 0 0 0 0 0 0 0 0 0 0 0 0 0 0 0 0 0 0 0 0 0 0 0 0 0 0 0 0 "/>
</feComponentTransfer>
<feComposite operator="in" in2="shape" in="coloredNoise1" result="noise1Clipped" />
<feComponentTransfer in="alphaNoise" result="coloredNoise2">
<feFuncA type="discrete" tableValues="0 0 0 0 0 0 0 0 0 0 0 0 0 0 0 0 0 0 0 0 0 0 0 0 0 0 0 0 0 0 0 0 0 0 0 0 0 0 0 0 0 0 0 0 0 0 0 0 0 1 1 1 1 1 1 1 1 1 1 1 1 1 1 1 1 1 1 1 1 1 1 1 1 1 1 1 1 1 1 1 1 1 1 1 1 1 1 1 1 1 1 1 1 1 1 1 1 1 1 1 "/>
</feComponentTransfer>
<feComposite operator="in" in2="shape" in="coloredNoise2" result="noise2Clipped" />
<feFlood flood-color="rgba(0, 0, 0, 0.25)" result="color1Flood" />
<feComposite operator="in" in2="noise1Clipped" in="color1Flood" result="color1" />
<feFlood flood-color="rgba(255, 255, 255, 0.25)" result="color2Flood" />
<feComposite operator="in" in2="noise2Clipped" in="color2Flood" result="color2" />
<feMerge result="effect1_noise_618_2450">
<feMergeNode in="shape" />
<feMergeNode in="color1" />
<feMergeNode in="color2" />
</feMerge>
</filter>
<linearGradient id="paint0_linear_618_2450" x1="938" y1="118.5" x2="938" y2="346" gradientUnits="userSpaceOnUse">
<stop stop-color="white"/>
<stop offset="1" stop-color="#FFAB84" stop-opacity="0.36"/>
</linearGradient>
<linearGradient id="paint1_linear_618_2450" x1="133.315" y1="60.8066" x2="133.315" y2="417.499" gradientUnits="userSpaceOnUse">
<stop stop-color="white"/>
<stop offset="1" stop-color="#FF8145" stop-opacity="0.13"/>
</linearGradient>
<clipPath id="clip0_618_2450">
<rect width="1411.35" height="373" fill="white"/>
</clipPath>
</defs>
</svg>
