<svg width="140" height="37" viewBox="0 0 140 37" fill="none" xmlns="http://www.w3.org/2000/svg">
<g clip-path="url(#clip0_618_2464)">
<path d="M39.8333 29.8602C39.5069 29.8602 39.3438 29.6966 39.3438 29.3693V10.7524C39.3438 10.6122 39.3786 10.4953 39.4485 10.4018C39.5418 10.3083 39.6701 10.2616 39.8333 10.2616H42.98C43.1432 10.2616 43.2599 10.3083 43.3298 10.4018C43.423 10.4953 43.4696 10.6122 43.4696 10.7524V12.0497C43.4696 12.3068 43.5397 12.4353 43.6795 12.4353C43.7728 12.4353 43.8892 12.3652 44.029 12.2249C44.775 11.3835 45.5327 10.7875 46.3018 10.4369C47.0944 10.0863 47.9687 9.911 48.9244 9.911C51.8614 9.911 53.8544 10.9745 54.9034 13.1015C55.2997 13.8728 55.5444 14.6558 55.6377 15.4505C55.731 16.2452 55.7775 17.2268 55.7775 18.3955V29.3693C55.7775 29.533 55.731 29.6614 55.6377 29.755C55.5444 29.825 55.428 29.8602 55.2882 29.8602H52.1062C51.9664 29.8602 51.8497 29.825 51.7565 29.755C51.6634 29.6614 51.6166 29.533 51.6166 29.3693V18.3955C51.6166 17.3671 51.5351 16.5257 51.3719 15.8712C51.2321 15.2167 50.9873 14.7025 50.6376 14.3286C50.0781 13.6975 49.1923 13.3819 47.9802 13.3819C46.5583 13.3819 45.4976 13.8027 44.7984 14.6441C44.3322 15.1817 43.9942 15.8946 43.7843 16.7828C43.5745 17.6709 43.4696 18.8864 43.4696 20.4289V29.3693C43.4696 29.6966 43.3064 29.8602 42.98 29.8602H39.8333ZM67.3417 30.2458C65.4303 30.2458 63.7286 29.8133 62.2368 28.9486C60.7682 28.0604 59.6259 26.8567 58.8101 25.3375C57.9942 23.7948 57.5862 22.0651 57.5862 20.1485C57.5862 18.3721 57.9476 16.7009 58.6702 15.1349C59.4162 13.5689 60.5117 12.3068 61.957 11.3485C63.4256 10.3902 65.1855 9.911 67.2368 9.911C68.9618 9.911 70.5586 10.285 72.0272 11.0329C73.519 11.7575 74.7079 12.8677 75.5937 14.3636C76.5027 15.8595 76.9574 17.6943 76.9574 19.868V20.4289C76.9574 20.5925 76.9107 20.7212 76.8174 20.8147C76.7243 20.8848 76.6077 20.9198 76.4679 20.9198H62.3067C61.957 20.9198 61.8172 21.0951 61.8871 21.4458C61.9804 21.9833 62.1667 22.5325 62.4465 23.0935C62.9127 24.1921 63.5771 25.0569 64.4395 25.6879C65.3253 26.319 66.3278 26.6347 67.4467 26.6347C68.5422 26.6347 69.4979 26.3658 70.3138 25.8283C71.1297 25.2906 71.7474 24.5895 72.167 23.7247C72.3068 23.4908 72.4933 23.374 72.7264 23.374H76.0132C76.1997 23.374 76.328 23.4207 76.3979 23.5142C76.4912 23.5843 76.5144 23.6778 76.4679 23.7948C75.7918 25.7114 74.6846 27.2657 73.1461 28.4577C71.6075 29.6497 69.6728 30.2458 67.3417 30.2458ZM72.0971 17.6592C72.2836 17.6592 72.4118 17.6125 72.4817 17.519C72.5749 17.4255 72.5983 17.297 72.5516 17.1333C72.3652 16.5257 72.1903 16.0816 72.0272 15.8011C71.561 14.983 70.92 14.3636 70.1041 13.9429C69.2882 13.4988 68.379 13.2768 67.3768 13.2768C66.351 13.2768 65.442 13.4988 64.6494 13.9429C63.8567 14.3636 63.2157 14.983 62.7262 15.8011C62.4699 16.2452 62.2834 16.6892 62.1667 17.1333C62.1435 17.1801 62.1319 17.2385 62.1319 17.3087C62.1319 17.5424 62.2834 17.6592 62.5863 17.6592H72.0971ZM87.8219 30.2458C85.9103 30.2458 84.2203 29.8133 82.7519 28.9486C81.2833 28.0838 80.141 26.8799 79.3252 25.3375C78.5093 23.7714 78.1013 21.9833 78.1013 19.9732C78.1013 18.0332 78.5093 16.3036 79.3252 14.7843C80.141 13.2417 81.2833 12.0497 82.7519 11.2082C84.2203 10.3434 85.9103 9.911 87.8219 9.911C90.013 9.911 91.8895 10.4486 93.4514 11.5238C95.0131 12.5756 96.0738 14.0247 96.6332 15.8712C96.6566 15.9179 96.6683 15.9764 96.6683 16.0465C96.6683 16.3036 96.5168 16.4321 96.2136 16.4321H92.7171C92.4607 16.4321 92.2741 16.2919 92.1577 16.0114C91.808 15.17 91.2485 14.5155 90.4794 14.0481C89.7334 13.5806 88.8476 13.3469 87.8219 13.3469C86.7496 13.3469 85.7939 13.6274 84.9546 14.1883C84.1156 14.7259 83.4628 15.4972 82.9967 16.5023C82.5303 17.5073 82.2972 18.6643 82.2972 19.9732C82.2972 21.3288 82.5303 22.5208 82.9967 23.5494C83.4628 24.5777 84.1156 25.3724 84.9546 25.9334C85.7939 26.4943 86.7496 26.7749 87.8219 26.7749C88.9408 26.7749 89.8849 26.506 90.654 25.9685C91.4234 25.4308 91.9711 24.6947 92.2975 23.7597C92.3674 23.5025 92.5539 23.374 92.8569 23.374H96.3186C96.6915 23.374 96.8431 23.5494 96.7731 23.8998C96.237 25.8867 95.1646 27.4411 93.5562 28.563C91.9478 29.6849 90.0364 30.2458 87.8219 30.2458ZM104.754 29.8602C103.239 29.8602 102.097 29.5095 101.328 28.8084C100.558 28.1071 100.174 26.9502 100.174 25.3375V14.1883C100.174 13.8611 100.011 13.6975 99.6843 13.6975H97.7262C97.3998 13.6975 97.2366 13.5339 97.2366 13.2066V10.7524C97.2366 10.6122 97.2717 10.4953 97.3416 10.4018C97.4348 10.3083 97.563 10.2616 97.7262 10.2616H99.6843C100.011 10.2616 100.174 10.098 100.174 9.77075V3.60021C100.174 3.27297 100.337 3.10938 100.663 3.10938H103.81C104.137 3.10938 104.3 3.27297 104.3 3.60021V9.77075C104.3 9.93437 104.346 10.0629 104.44 10.1564C104.533 10.2265 104.649 10.2616 104.789 10.2616H107.796C107.96 10.2616 108.076 10.3083 108.146 10.4018C108.239 10.4953 108.286 10.6122 108.286 10.7524V13.2066C108.286 13.5339 108.123 13.6975 107.796 13.6975H104.789C104.649 13.6975 104.533 13.7442 104.44 13.8377C104.346 13.9078 104.3 14.0247 104.3 14.1883V24.1804C104.3 24.9284 104.416 25.4894 104.649 25.8633C104.882 26.2139 105.395 26.3893 106.188 26.3893H107.761C108.088 26.3893 108.251 26.5529 108.251 26.8799V29.3693C108.251 29.6966 108.088 29.8602 107.761 29.8602H104.754ZM115.593 30.2458C113.682 30.2458 112.143 29.7432 110.977 28.7381C109.812 27.7332 109.229 26.3307 109.229 24.5311C109.229 22.7078 109.94 21.2704 111.362 20.2186C112.388 19.4706 113.903 18.898 115.908 18.5007L121.642 17.4138C121.782 17.3904 121.887 17.332 121.957 17.2385C122.05 17.145 122.085 17.0165 122.062 16.8529C121.945 15.7309 121.607 14.8895 121.048 14.3286C120.325 13.604 119.346 13.2417 118.111 13.2417C117.178 13.2417 116.35 13.4871 115.628 13.9779C114.929 14.4688 114.451 15.1349 114.194 15.9764C114.078 16.2802 113.891 16.4321 113.635 16.4321H110.488C110.325 16.4321 110.208 16.3854 110.138 16.2919C110.068 16.175 110.045 16.0348 110.068 15.8712C110.488 13.9546 111.444 12.4821 112.936 11.4536C114.451 10.4252 116.187 9.911 118.145 9.911C119.311 9.911 120.395 10.0746 121.397 10.4018C122.423 10.7291 123.297 11.2199 124.02 11.8744C124.975 12.7625 125.57 13.8027 125.803 14.9947C126.059 16.1867 126.188 17.6008 126.188 19.2369V29.3693C126.188 29.6966 126.024 29.8602 125.698 29.8602H122.551C122.225 29.8602 122.062 29.6966 122.062 29.3693V28.037C122.062 27.7566 121.992 27.6162 121.852 27.6162C121.805 27.6162 121.724 27.6748 121.607 27.7915C121.141 28.3759 120.64 28.8316 120.104 29.1589C119.008 29.8834 117.504 30.2458 115.593 30.2458ZM116.502 26.8799C117.458 26.8799 118.355 26.6814 119.194 26.284C120.22 25.7697 120.954 25.092 121.397 24.2505C121.84 23.409 122.085 22.3222 122.132 20.9899C122.132 20.8262 122.085 20.7095 121.992 20.6394C121.899 20.5459 121.77 20.5107 121.607 20.5341L116.922 21.4807C115.57 21.7613 114.614 22.1586 114.054 22.6729C113.588 23.1403 113.355 23.7247 113.355 24.4258C113.355 25.1971 113.635 25.8049 114.194 26.2489C114.777 26.6696 115.546 26.8799 116.502 26.8799ZM129.262 29.8602C128.936 29.8602 128.773 29.6966 128.773 29.3693V10.7524C128.773 10.6122 128.808 10.4953 128.878 10.4018C128.971 10.3083 129.099 10.2616 129.262 10.2616H132.409C132.572 10.2616 132.689 10.3083 132.759 10.4018C132.852 10.4953 132.899 10.6122 132.899 10.7524V11.8744C132.899 12.1315 132.969 12.26 133.109 12.26C133.202 12.26 133.318 12.1899 133.458 12.0497C134.181 11.2783 134.95 10.7291 135.766 10.4018C136.605 10.0746 137.573 9.911 138.668 9.911C138.994 9.911 139.158 10.0746 139.158 10.4018V13.452C139.158 13.5923 139.111 13.7092 139.018 13.8027C138.948 13.8961 138.831 13.9429 138.668 13.9429H138.109C136.547 13.9429 135.346 14.3636 134.507 15.205C133.435 16.2101 132.899 17.9397 132.899 20.394V29.3693C132.899 29.6966 132.736 29.8602 132.409 29.8602H129.262Z" fill="white"/>
<path d="M22.2515 23.8424C22.2964 23.8408 22.3409 23.8515 22.3799 23.8737C22.419 23.896 22.4513 23.9285 22.4728 23.9679C22.5364 24.0765 22.5979 24.1871 22.6595 24.2976L23.1984 25.249L23.7122 26.1639C23.8233 26.3616 23.9364 26.5583 24.0476 26.755L24.5079 27.5714C24.6545 27.8308 24.8031 28.0885 24.9497 28.3479C25.0226 28.4771 25.0936 28.6084 25.1665 28.7376L25.4224 29.1916C25.4437 29.231 25.4625 29.2714 25.4708 29.3013C25.4912 29.3413 25.5031 29.385 25.5057 29.4298C25.5083 29.4746 25.5016 29.5194 25.4858 29.5614C25.4485 29.6749 25.4092 29.7872 25.3699 29.8996C25.2943 30.114 25.2207 30.3284 25.1441 30.542C25.0469 30.8153 24.9431 31.0879 24.8498 31.3614C24.7452 31.653 24.6416 31.9439 24.5388 32.2342C24.4248 32.5532 24.3115 32.8727 24.1987 33.1925L23.9364 33.9416C23.857 34.1664 23.7756 34.39 23.6962 34.6148C23.5798 34.9408 23.4639 35.2667 23.348 35.5926C23.3359 35.6281 23.3228 35.6627 23.3087 35.6973C23.2918 35.7451 23.2627 35.7877 23.2241 35.8206C23.1856 35.8535 23.139 35.8756 23.0893 35.8847C22.9959 35.9035 22.9024 35.9221 22.8091 35.939L22.4355 36.0007C22.3515 36.0139 22.2599 36.026 22.1824 36.0372C22.1049 36.0485 22.0283 36.0627 21.9517 36.0766C21.7911 36.1037 21.638 36.1327 21.4698 36.1599C21.3018 36.1872 21.1325 36.2105 20.9645 36.2376C20.871 36.2536 20.7776 36.2742 20.6843 36.2902C20.6301 36.2995 20.574 36.3051 20.5198 36.3137L20.0034 36.396C19.9409 36.4062 19.8782 36.4195 19.8167 36.4308L19.3121 36.5167C19.2431 36.529 19.173 36.5375 19.1031 36.5487C18.9509 36.573 18.7929 36.5965 18.636 36.6227C18.4642 36.6545 18.2923 36.6864 18.1214 36.7164L17.9347 36.7472L17.2313 36.8586C17.1638 36.8755 17.0924 36.8681 17.0298 36.8376C16.9672 36.8071 16.9171 36.7556 16.8885 36.692C16.7755 36.5 16.6663 36.3051 16.5543 36.1132C16.3326 35.7341 16.1107 35.3552 15.8884 34.9763C15.7296 34.7078 15.5713 34.4387 15.4138 34.169C15.213 33.8272 15.0141 33.4827 14.8133 33.1389L14.0251 31.8006C13.9195 31.6217 13.8102 31.4391 13.7065 31.2633C13.6029 31.0872 13.501 30.91 13.3992 30.732C13.3624 30.6712 13.3413 30.6021 13.338 30.5309C13.3348 30.4597 13.3494 30.3888 13.3806 30.3249C13.4133 30.2611 13.4442 30.1975 13.474 30.1328C13.6272 29.8063 13.7797 29.4794 13.9316 29.1522C14.0596 28.8854 14.181 28.6177 14.3052 28.3516C14.4415 28.0576 14.5799 27.7654 14.7163 27.4723C14.9323 26.9991 15.1502 26.5263 15.37 26.0544C15.4765 25.825 15.5839 25.5956 15.6894 25.3661L15.9772 24.7546C16.0712 24.5486 16.1664 24.3428 16.2629 24.1373C16.2815 24.0903 16.3134 24.0496 16.3547 24.0204C16.396 23.991 16.4449 23.9746 16.4954 23.9728C16.529 23.9651 16.5627 23.9651 16.5954 23.9651L17.4751 23.9426V23.9333H18.0654C18.1588 23.9324 18.2522 23.9239 18.3456 23.9239C18.3938 23.9205 18.4424 23.9244 18.4895 23.935C18.5455 23.9505 18.5956 23.9822 18.6334 24.0263C18.6714 24.0704 18.6955 24.1247 18.7024 24.1825C18.7399 24.3651 18.7781 24.5616 18.8116 24.7293C18.8454 24.897 18.8808 25.0647 18.9134 25.2322C18.9488 25.4148 18.9817 25.5983 19.0163 25.7809C19.0265 25.8361 19.0395 25.8906 19.0506 25.9449C19.1002 26.1969 19.1517 26.4488 19.2003 26.7007C19.2376 26.8945 19.2722 27.0884 19.3086 27.2821C19.3347 27.4171 19.3618 27.5528 19.3879 27.6876C19.4187 27.8487 19.4495 28.0089 19.4814 28.1699C19.4879 28.2027 19.4953 28.2356 19.5029 28.2683C19.5198 28.3337 19.5582 28.3914 19.6121 28.4321C19.6618 28.4689 19.7239 28.4849 19.7853 28.4771C19.8467 28.4693 19.9027 28.438 19.9418 28.3899C19.9785 28.3427 20.0012 28.2858 20.0073 28.2263C20.0184 28.0894 20.0286 27.9489 20.0397 27.815C20.051 27.6811 20.0612 27.5482 20.0735 27.4141C20.0913 27.21 20.1107 27.0068 20.1276 26.8026C20.151 26.5245 20.1734 26.2482 20.1959 25.9672C20.21 25.793 20.2239 25.6179 20.2389 25.4438C20.2454 25.3661 20.2546 25.2884 20.2613 25.2107C20.2826 24.9476 20.3023 24.6834 20.3238 24.4203C20.3322 24.3201 20.3425 24.2199 20.35 24.1196C20.3544 24.0637 20.3752 24.0101 20.4097 23.9661C20.4284 23.9399 20.4523 23.9181 20.4799 23.9019C20.5078 23.8857 20.5385 23.8757 20.5704 23.8725C20.5888 23.8714 20.6071 23.8714 20.6253 23.8725L22.174 23.8424H22.2515ZM4.59817 17.1997C4.81296 17.2053 5.02876 17.2148 5.24354 17.2213C5.34347 17.2288 5.4444 17.2288 5.54433 17.2288C5.66293 17.2325 5.79277 17.2447 5.90017 17.2447C6.00757 17.2447 6.116 17.2363 6.2234 17.2447C6.49796 17.2709 6.7782 17.2578 7.05839 17.2709C7.31054 17.2821 7.56272 17.2878 7.91853 17.299C8.10438 17.3037 8.39395 17.3093 8.68252 17.3186C8.92721 17.3271 9.17193 17.3411 9.41755 17.3486C9.63982 17.3551 9.86312 17.3617 10.0854 17.3617C10.1853 17.3645 10.2852 17.3729 10.386 17.3729C10.5289 17.3767 10.6681 17.3824 10.8092 17.3824C10.9652 17.387 11.1202 17.4011 11.2762 17.4011C11.341 17.4006 11.4048 17.4177 11.4607 17.4506C11.5166 17.4836 11.5626 17.5313 11.5936 17.5884C11.7512 17.8544 11.9085 18.1203 12.0654 18.3863C12.2403 18.6853 12.4146 18.9841 12.5883 19.2825C12.61 19.3175 12.6294 19.3537 12.6463 19.3911C12.6762 19.4534 12.6847 19.524 12.6706 19.5917C12.6564 19.6594 12.6203 19.7207 12.5679 19.7657C12.2811 20.0195 11.9925 20.2715 11.7057 20.5243C11.5703 20.6498 11.4293 20.7763 11.2901 20.8988L10.4859 21.6049L9.52311 22.4524C9.48998 22.4814 9.45871 22.5128 9.42968 22.5461C9.39882 22.58 9.37575 22.6203 9.36233 22.6642C9.34892 22.7079 9.34538 22.7542 9.352 22.7995C9.35862 22.8449 9.37534 22.8882 9.40071 22.9263C9.42608 22.9645 9.45962 22.9964 9.49886 23.0201C9.53845 23.0448 9.58327 23.06 9.62977 23.0645C9.67632 23.0688 9.7233 23.0623 9.76686 23.0452C9.85184 23.0217 9.93406 22.9862 10.0153 22.9515L11.4162 22.355L12.5146 21.8915L13.5102 21.4701C13.5445 21.4555 13.5802 21.4445 13.6167 21.4372C13.6694 21.4246 13.7247 21.4278 13.7757 21.4462C13.8268 21.4644 13.8714 21.4971 13.9043 21.5404C13.9279 21.5698 13.9492 21.6012 13.9678 21.6341C14.1646 21.9668 14.361 22.3 14.5571 22.6333C14.7028 22.8795 14.8505 23.1259 14.9962 23.372C15.0149 23.4038 15.0325 23.4367 15.0484 23.4704C15.0701 23.5139 15.0822 23.5615 15.0837 23.6098C15.0851 23.6584 15.076 23.7067 15.0569 23.7513C15.0195 23.8367 14.9793 23.92 14.9401 24.0044C14.7804 24.3405 14.6216 24.6774 14.4609 25.0127C14.3769 25.1869 14.29 25.3602 14.206 25.5344C14.0839 25.7897 13.9635 26.0479 13.8445 26.309C13.6708 26.6751 13.5017 27.0347 13.3234 27.4073C13.145 27.78 12.9628 28.1491 12.7844 28.5236C12.649 28.8045 12.5182 29.0855 12.3828 29.3664C12.2726 29.5949 12.1597 29.8206 12.0476 30.0482C12.019 30.1086 11.9742 30.1598 11.9183 30.1958C11.8624 30.2321 11.7975 30.2522 11.7309 30.2535C11.447 30.2806 11.1574 30.3059 10.8773 30.3321C10.7549 30.3433 10.6298 30.3526 10.5037 30.3648C10.4449 30.3704 10.386 30.3816 10.3271 30.3873C10.146 30.4041 9.96857 30.4163 9.77248 30.4349C9.57635 30.4537 9.38113 30.4762 9.18595 30.4959C9.01969 30.5117 8.86361 30.5268 8.68615 30.5418C8.50873 30.5567 8.33041 30.5643 8.15395 30.5868C7.75607 30.6383 7.35617 30.6636 6.95642 30.701L6.17016 30.775C5.99272 30.7917 5.8143 30.8049 5.63686 30.8219C5.41926 30.8423 5.19311 30.8676 4.98298 30.8873C4.77287 30.907 4.56185 30.9228 4.35081 30.9416C4.29507 30.9472 4.23879 30.9377 4.18802 30.9141C4.13725 30.8903 4.09375 30.8533 4.06215 30.8068C4.03534 30.7711 4.01032 30.7339 3.98736 30.6954L3.31681 29.5717C3.19446 29.3647 3.06839 29.1585 2.94324 28.9516C2.75646 28.6426 2.56956 28.3354 2.38278 28.0255C2.196 27.7155 2.00929 27.4009 1.8225 27.0889C1.69175 26.8727 1.55813 26.6572 1.42738 26.441C1.26582 26.1742 1.10707 25.9053 0.945513 25.6376C0.817561 25.4239 0.6867 25.2114 0.557811 24.9978C0.479373 24.8676 0.401957 24.7356 0.322584 24.6055C0.259074 24.5006 0.192723 24.3974 0.12828 24.2926C0.0978949 24.2463 0.0701343 24.1981 0.0451618 24.1485C0.0126176 24.0879 -0.00285687 24.0194 0.000433986 23.9504C0.00372969 23.8818 0.0256345 23.8151 0.0638135 23.7578C0.269907 23.4313 0.47782 23.105 0.68765 22.7793C0.857617 22.5076 1.02294 22.2343 1.19197 21.9627C1.29657 21.7961 1.40589 21.6321 1.5105 21.4653C1.63004 21.2762 1.74684 21.0842 1.86452 20.8969C1.99245 20.6918 2.11481 20.5016 2.25023 20.2826C2.38563 20.0636 2.52009 19.8444 2.65549 19.6272C2.77037 19.4435 2.88722 19.2628 3.0021 19.0802C3.14032 18.8563 3.28141 18.6316 3.42058 18.4077L3.70071 17.9536C3.81527 17.7707 3.93042 17.5881 4.04622 17.4058C4.06209 17.3805 4.079 17.357 4.09675 17.3326C4.12401 17.2924 4.16054 17.2593 4.20322 17.2362C4.24597 17.213 4.29373 17.2005 4.3423 17.1997H4.59817ZM26.2416 18.111C26.349 18.1176 26.4565 18.1279 26.5639 18.1344C26.7414 18.1457 26.9188 18.1541 27.0972 18.1653C27.2559 18.1765 27.4147 18.1917 27.5734 18.2029L27.9181 18.2263C28.1403 18.2403 28.3628 18.2525 28.5849 18.2684C28.8998 18.2909 29.2154 18.2965 29.5291 18.3302C29.6879 18.347 29.8477 18.3489 30.0074 18.3583C30.0372 18.3592 30.0663 18.3658 30.0962 18.3658C30.1373 18.3667 30.1774 18.3785 30.2126 18.4001C30.2477 18.4216 30.2764 18.4522 30.2961 18.4885C30.3361 18.555 30.3752 18.6224 30.4127 18.6907C30.5312 18.9062 30.648 19.1217 30.7667 19.337C30.8498 19.4868 30.9347 19.6348 31.0178 19.7845L31.2644 20.2341C31.384 20.4487 31.5082 20.6723 31.6221 20.8774C31.7361 21.0825 31.8483 21.2876 31.9622 21.4926L32.3245 22.1482L32.7842 22.9779C32.8214 23.0463 32.8543 23.1175 32.8962 23.1831C32.9477 23.2666 32.9663 23.3664 32.9485 23.4629C32.9422 23.4998 32.9331 23.5362 32.9214 23.5715C32.8311 23.8712 32.7402 24.1704 32.6486 24.4688C32.5403 24.8208 32.4302 25.172 32.3236 25.5251C32.191 25.9596 32.0612 26.398 31.9286 26.8363C31.8491 27.0966 31.768 27.3559 31.6877 27.6153C31.6306 27.8074 31.5746 27.9948 31.5168 28.182C31.4915 28.2674 31.4654 28.3534 31.4354 28.4377C31.4224 28.4713 31.4044 28.5029 31.3821 28.5312C31.369 28.5494 31.3519 28.5643 31.3323 28.5749C31.3124 28.5853 31.2905 28.5914 31.2683 28.5922C31.0684 28.6072 30.8685 28.6249 30.6688 28.6409C30.4372 28.6597 30.2026 28.682 29.9701 28.6961C29.6843 28.7149 29.4012 28.7525 29.1145 28.759C28.9482 28.7627 28.782 28.787 28.6157 28.8019L28.4047 28.8159L27.9378 28.8488L27.6051 28.8787L26.8721 28.9358L26.7171 28.9499H26.6609C26.6207 28.9549 26.5797 28.9488 26.5426 28.9322C26.5053 28.9159 26.4732 28.8897 26.4499 28.8562C26.4272 28.8266 26.407 28.7952 26.3891 28.7625L25.7056 27.5593C25.5075 27.2109 25.3097 26.8606 25.1116 26.5113L24.5707 25.5608L24.0346 24.6244C23.9365 24.4567 23.8396 24.2788 23.7498 24.1196C23.6603 23.9603 23.575 23.8 23.4817 23.6427C23.4455 23.5864 23.4242 23.5217 23.4196 23.4548C23.4147 23.388 23.4268 23.3209 23.4546 23.2599C23.6145 22.8741 23.7695 22.4881 23.9273 22.1014C23.9833 21.9638 24.0383 21.826 24.0953 21.6884C24.1053 21.6604 24.1175 21.6332 24.1318 21.607C24.1511 21.5639 24.1854 21.5291 24.2284 21.5098C24.2714 21.4902 24.3202 21.4871 24.3653 21.5012C24.394 21.5081 24.4218 21.5183 24.4485 21.5311C24.6473 21.6247 24.8361 21.7137 25.0443 21.8121C25.2525 21.9102 25.4636 22.004 25.6727 22.0977L26.7319 22.5911C26.9075 22.6726 27.0831 22.7514 27.2587 22.831C27.2721 22.8377 27.2858 22.8436 27.2999 22.8488C27.3296 22.8644 27.3631 22.8719 27.3967 22.8706C27.4304 22.8691 27.4632 22.8587 27.4916 22.8406C27.52 22.8224 27.543 22.7971 27.5586 22.7672C27.5741 22.7373 27.5816 22.7036 27.5799 22.67C27.5843 22.6216 27.5777 22.5727 27.5606 22.5273C27.5434 22.482 27.5161 22.4409 27.4809 22.4076C27.3073 22.2445 27.1354 22.0798 26.9626 21.916C26.6264 21.5964 26.2893 21.2766 25.9511 20.957L25.0667 20.1235C25.013 20.0777 24.9664 20.024 24.9286 19.9643C24.9023 19.9228 24.8865 19.8754 24.8826 19.8265C24.8789 19.7774 24.8873 19.7284 24.9069 19.6834C24.9555 19.5569 25.0059 19.4324 25.0573 19.3089C25.1413 19.102 25.2264 18.8958 25.3104 18.6888L25.4804 18.2637C25.4921 18.2315 25.506 18.2001 25.5225 18.17C25.5366 18.1418 25.5585 18.1181 25.5854 18.1016C25.6123 18.085 25.6433 18.0762 25.6748 18.0763C25.6822 18.0759 25.6896 18.0759 25.697 18.0763L26.2416 18.111ZM16.1412 11.2681C16.4045 11.2831 16.666 11.3159 16.9275 11.3496C16.9863 11.3582 17.0456 11.3636 17.1049 11.3656C17.2422 11.3684 17.3777 11.3889 17.514 11.4048C17.7064 11.4282 17.898 11.447 18.0904 11.4686C18.3407 11.4976 18.591 11.5276 18.842 11.5557L19.5174 11.6287L20.5354 11.7402C20.6719 11.7552 20.8083 11.7701 20.9456 11.7832C21.0566 11.7939 21.1644 11.8276 21.2619 11.882C21.3594 11.9365 21.4447 12.0106 21.5124 12.0997C21.5875 12.2014 21.6546 12.3088 21.7132 12.4209C21.8664 12.6803 22.0168 12.9417 22.1672 13.2029C22.3539 13.5282 22.5406 13.8537 22.7274 14.1796L23.2019 15C23.3345 15.2285 23.4654 15.458 23.598 15.6865L23.9996 16.3823C24.0676 16.5012 24.1407 16.6182 24.2051 16.7399C24.274 16.8599 24.3145 16.9941 24.3239 17.1321C24.3332 17.2702 24.3111 17.4087 24.2592 17.5369C24.1491 17.8178 24.0371 18.0988 23.9258 18.3797C23.7919 18.7156 23.6578 19.0506 23.5232 19.3846C23.4224 19.6374 23.3196 19.8884 23.2187 20.1404C23.1036 20.4314 22.9881 20.722 22.8724 21.0122C22.8229 21.1386 22.7713 21.2625 22.7218 21.3869C22.6341 21.607 22.5473 21.8251 22.4594 22.0424C22.4093 22.1802 22.3168 22.2983 22.195 22.3795C22.1054 22.4396 22.0003 22.4719 21.8924 22.4731C21.7702 22.4731 21.6478 22.4742 21.5254 22.4825C21.2396 22.5032 20.9595 22.4965 20.6795 22.503C20.4291 22.5088 20.1805 22.5125 19.932 22.5247C19.5389 22.5452 19.1447 22.5368 18.7515 22.5498C18.5442 22.5565 18.3434 22.5621 18.1277 22.5742C17.912 22.5865 17.6935 22.5865 17.474 22.5865C17.3003 22.5902 17.1255 22.5922 16.9508 22.5997C16.7998 22.6097 16.6489 22.5783 16.5144 22.5088C16.3799 22.439 16.2669 22.3338 16.1878 22.2044C16.0906 22.0592 16.0076 21.9047 15.9189 21.7539C15.7638 21.4886 15.6081 21.2223 15.4518 20.9551L14.9037 20.0186C14.6291 19.5547 14.3551 19.0899 14.0817 18.6241C13.9024 18.3198 13.7259 18.0135 13.5475 17.7092C13.4121 17.4779 13.2767 17.2466 13.1385 17.0172C13.0772 16.9196 13.0327 16.8123 13.0068 16.6998C12.9583 16.4944 12.9861 16.2782 13.0852 16.0919C13.2701 15.7445 13.4643 15.3999 13.6511 15.0544C13.7753 14.825 13.8996 14.5889 14.0247 14.3566C14.1097 14.2012 14.1957 14.0429 14.2817 13.8884C14.3676 13.7339 14.4516 13.5765 14.5375 13.4201L15.0045 12.568C15.1148 12.3657 15.2242 12.1627 15.3332 11.9592C15.3976 11.8412 15.4585 11.7223 15.5248 11.6062C15.5813 11.4939 15.6704 11.4015 15.7805 11.3411C15.8906 11.2807 16.0164 11.2552 16.1412 11.2681ZM24.5251 7.18709C24.6026 7.19646 24.6792 7.20957 24.7567 7.22269C24.8884 7.24329 25.0145 7.26391 25.1519 7.28732C25.2891 7.31073 25.43 7.33691 25.5693 7.36032L26.151 7.45401L26.8767 7.56549C27.0299 7.58985 27.1851 7.61136 27.3383 7.63758C27.5389 7.67221 27.7397 7.71152 27.9405 7.74616C28.1712 7.78548 28.4019 7.82107 28.6326 7.85947C28.6904 7.86882 28.7494 7.88196 28.8074 7.89414C28.869 7.91037 28.9222 7.94925 28.9567 8.00289C28.9825 8.03958 29.0062 8.07771 29.0277 8.11711C29.2805 8.5641 29.5334 9.01046 29.7861 9.45619C29.9784 9.79615 30.1785 10.1427 30.3652 10.4752C30.552 10.8076 30.7387 11.1344 30.9254 11.4631C31.0619 11.7019 31.2012 11.9389 31.3374 12.1787C31.3981 12.2845 31.455 12.394 31.5129 12.5017C31.5323 12.5378 31.5438 12.5777 31.5462 12.6186C31.5487 12.6596 31.5422 12.7006 31.5271 12.7386C31.4048 13.0936 31.2861 13.4504 31.1665 13.8072C31.1188 13.9495 31.073 14.09 31.0254 14.2305C30.9508 14.4524 30.8724 14.679 30.7986 14.8963C30.7248 15.1135 30.6528 15.3336 30.579 15.5517C30.4433 15.9538 30.3072 16.3556 30.1709 16.757C30.1559 16.802 30.142 16.8499 30.1271 16.8957C30.1242 16.9173 30.1168 16.938 30.1056 16.9568C30.0947 16.9755 30.0802 16.9918 30.0628 17.0049C30.0454 17.0179 30.0257 17.0275 30.0048 17.0328C29.9836 17.0382 29.9617 17.0393 29.9402 17.0361H29.6843C29.4472 17.0277 29.2089 17.0221 28.9717 17.0118C28.6869 16.9996 28.3963 16.9828 28.1162 16.9696C27.7818 16.9537 27.4484 16.9407 27.115 16.9266C27.029 16.9219 26.944 16.9219 26.8582 16.9219C26.4949 16.9153 26.1315 16.8892 25.7692 16.8667C25.7247 16.8634 25.68 16.8634 25.6355 16.8667C25.5784 16.8724 25.5209 16.8603 25.4706 16.8322C25.4205 16.8041 25.3803 16.7611 25.3553 16.7093C25.3087 16.6241 25.2572 16.5417 25.2086 16.4583L24.6903 15.5594C24.6241 15.4433 24.5559 15.328 24.4904 15.2109C24.4728 15.1785 24.4587 15.1443 24.4485 15.1089C24.4344 15.0661 24.4329 15.0202 24.4441 14.9765C24.4552 14.9329 24.4784 14.8933 24.5112 14.8625L24.8109 14.5629L25.2396 14.1397L26.4304 12.9653C26.4415 12.955 26.451 12.9437 26.463 12.9344C26.6273 12.7958 26.5172 12.5531 26.3761 12.4866C26.3523 12.4761 26.3266 12.4707 26.3006 12.4706C26.2746 12.4706 26.2487 12.4761 26.2249 12.4866L26.0577 12.5486L24.9753 12.9531L23.8162 13.382C23.7778 13.3969 23.7387 13.4082 23.7003 13.4223C23.6554 13.4412 23.6054 13.445 23.5581 13.433C23.5108 13.421 23.4685 13.3939 23.4377 13.3558C23.3901 13.2981 23.3487 13.2352 23.3146 13.1684C23.1279 12.8463 22.941 12.5241 22.7542 12.2019C22.6608 12.0371 22.5675 11.8713 22.4741 11.7084C22.4429 11.6597 22.4251 11.6036 22.4225 11.5457C22.4199 11.4879 22.4325 11.4303 22.459 11.3789C22.6396 10.9905 22.8195 10.6047 22.9988 10.2213C23.2156 9.74468 23.4333 9.26796 23.6528 8.79129C23.8551 8.3543 24.0565 7.91733 24.257 7.48034C24.287 7.41573 24.3169 7.35193 24.3458 7.28732C24.359 7.25205 24.3844 7.22269 24.4172 7.20434C24.45 7.18601 24.4882 7.17982 24.5251 7.18709ZM4.49387 3.6341C4.55022 3.61345 4.61141 3.60999 4.66969 3.62428C4.81539 3.64864 4.95364 3.6796 5.09561 3.70581C5.13948 3.71424 5.1843 3.71613 5.22815 3.72361C5.40062 3.75544 5.57222 3.78671 5.7428 3.8173C5.8418 3.83509 5.93898 3.85852 6.03797 3.87631C6.3331 3.93062 6.63016 3.98211 6.92529 4.03736C7.07938 4.06734 7.2354 4.10203 7.39229 4.13105C7.62952 4.17413 7.86766 4.21342 8.10487 4.25743C8.27672 4.28833 8.44678 4.32398 8.61769 4.35675C8.67649 4.36799 8.73531 4.37533 8.79317 4.38563C8.94353 4.41185 9.09299 4.43635 9.24335 4.46352C9.32645 4.4785 9.40957 4.4981 9.49361 4.51308C9.66172 4.54306 9.83 4.57015 9.99811 4.59824L10.1848 4.63292C10.4837 4.69005 10.7826 4.74914 11.0824 4.8025C11.1506 4.81195 11.2155 4.83759 11.2717 4.87732C11.3279 4.91707 11.3738 4.96975 11.4055 5.03094C11.6026 5.38493 11.8054 5.73611 12.0062 6.08822C12.1528 6.34293 12.3003 6.59771 12.4451 6.85336C12.6692 7.24761 12.8906 7.64369 13.1148 8.03794C13.2617 8.29703 13.4088 8.55588 13.5564 8.81434L14.058 9.6966C14.1934 9.93537 14.3288 10.1677 14.4633 10.4036C14.4764 10.4261 14.4885 10.4494 14.4997 10.4728C14.5224 10.5138 14.5344 10.5599 14.5344 10.6068C14.5344 10.6537 14.5224 10.6997 14.4997 10.7406C14.4623 10.809 14.4222 10.8764 14.384 10.9438L13.8395 11.8925C13.7647 12.0218 13.6863 12.1482 13.6135 12.2784C13.5853 12.3338 13.5377 12.377 13.4798 12.3995C13.4219 12.4219 13.3577 12.4222 13.2996 12.4002C13.2127 12.3682 13.1278 12.3306 13.0456 12.2878L12.3786 11.9545C12.0798 11.8046 11.7679 11.6472 11.4812 11.5067C11.1945 11.3662 10.9069 11.2267 10.6201 11.0853L9.63285 10.5918C9.60012 10.5746 9.56645 10.5592 9.532 10.5458C9.49888 10.5335 9.46353 10.528 9.42823 10.5297C9.39294 10.5313 9.35828 10.5401 9.32646 10.5554C9.29463 10.5708 9.26626 10.5927 9.24298 10.6193C9.21975 10.646 9.202 10.677 9.19101 10.7107C9.17706 10.7534 9.17499 10.7992 9.18485 10.843C9.19472 10.8869 9.21626 10.9272 9.24716 10.9598C9.2817 11.0012 9.32046 11.0389 9.36286 11.0722L10.4669 12.0799C10.7686 12.3552 11.0693 12.6324 11.3718 12.9077C11.553 13.0735 11.7362 13.2373 11.9174 13.4021C12.0706 13.5445 12.2246 13.6832 12.3759 13.8255C12.4128 13.861 12.4443 13.9017 12.4694 13.9463C12.4982 14.0012 12.5114 14.063 12.5076 14.125C12.5038 14.1869 12.4831 14.2465 12.4478 14.2974L12.0659 14.9529C11.9333 15.1814 11.8016 15.411 11.6699 15.6394C11.6288 15.7106 11.5849 15.78 11.5457 15.8512C11.5239 15.897 11.4892 15.9355 11.4459 15.9617C11.4026 15.988 11.3525 16.0009 11.3019 15.999H11.2112L11.0245 15.9841C10.706 15.9616 10.3884 15.927 10.068 15.9185C9.97933 15.9167 9.89064 15.9035 9.80289 15.896C9.59558 15.8763 9.3891 15.8568 9.18177 15.839C9.06692 15.8296 8.9511 15.8314 8.83717 15.8174C8.71321 15.8019 8.58849 15.7928 8.4636 15.7902C8.40478 15.7892 8.34494 15.7762 8.28613 15.7762C8.20114 15.7705 8.11507 15.7677 8.03008 15.7611C7.94514 15.7546 7.86114 15.7443 7.77619 15.7359L7.621 15.7219L7.19891 15.6881C7.14755 15.6844 7.09525 15.6769 7.04389 15.6769L6.67032 15.6478L6.61417 15.6413L5.84747 15.5944C5.83288 15.5954 5.81823 15.5954 5.80366 15.5944C5.63458 15.5707 5.46417 15.5564 5.29354 15.5514C5.20485 15.542 5.11617 15.5289 5.02843 15.5214C4.8323 15.5046 4.63606 15.4906 4.439 15.4775C4.38335 15.4741 4.32872 15.461 4.27747 15.439C4.2074 15.4094 4.14956 15.3565 4.11394 15.2892C3.97759 15.0467 3.83566 14.8051 3.69746 14.5635C3.48731 14.1945 3.27251 13.8151 3.06891 13.4564C2.86532 13.0978 2.66258 12.7373 2.45992 12.3786L2.07331 11.6988C1.79748 11.2143 1.5213 10.7295 1.24485 10.2444L0.706844 9.30786C0.655481 9.21703 0.602265 9.12987 0.551837 9.03623C0.535087 9.00395 0.520751 8.9704 0.508919 8.936C0.489217 8.88753 0.483341 8.83454 0.492078 8.78294C0.500825 8.73131 0.523766 8.68308 0.558355 8.64385C0.704049 8.46217 0.848203 8.27771 0.990784 8.09041C1.18412 7.84318 1.37475 7.5913 1.56808 7.34124C1.77728 7.06967 1.98926 6.80173 2.19753 6.53016C2.48423 6.15936 2.76718 5.79042 3.05389 5.41587C3.30294 5.09558 3.55216 4.77526 3.80121 4.45498C3.97429 4.23213 4.14674 4.00855 4.31858 3.78444L4.35316 3.74049C4.38849 3.69183 4.43748 3.65478 4.49387 3.6341ZM15.3776 0.0956224C15.4173 0.0786855 15.4615 0.0754795 15.5032 0.0865438L15.8478 0.165164L16.3243 0.276649L16.8118 0.389951L17.5917 0.577333L18.3463 0.75709C18.6032 0.817961 18.86 0.876003 19.1159 0.935937C19.2728 0.972459 19.4278 1.01087 19.5828 1.04833L20.3197 1.22064L20.5467 1.27675C20.5964 1.28802 20.6433 1.31017 20.6837 1.34157C20.724 1.37296 20.757 1.41292 20.7802 1.4585C20.8836 1.6408 20.9876 1.82555 21.0922 2.01283C21.299 2.37495 21.5044 2.73708 21.7086 3.09918C21.8879 3.41666 22.0663 3.73517 22.2456 4.05172C22.4231 4.3601 22.6 4.67031 22.7761 4.98245C22.9339 5.25777 23.0882 5.53401 23.2432 5.80933C23.3085 5.92544 23.3756 6.04163 23.442 6.15867V6.16812C23.4891 6.22312 23.5164 6.2926 23.519 6.36511C23.5216 6.4376 23.4993 6.50884 23.4561 6.56703C23.3061 6.88668 23.1553 7.20672 23.004 7.527C22.8651 7.81852 22.7257 8.1104 22.5857 8.40255C22.4559 8.67412 22.3231 8.94567 22.1933 9.21725C22.0848 9.44574 21.9786 9.67527 21.8701 9.90378C21.816 10.018 21.76 10.1322 21.7058 10.2455C21.6637 10.3391 21.6161 10.4329 21.5703 10.5266C21.5591 10.5499 21.5471 10.5724 21.5369 10.5958C21.5208 10.6402 21.4894 10.6776 21.4486 10.7012C21.4078 10.7249 21.36 10.7334 21.3134 10.725L21.136 10.7034C20.812 10.6622 20.4879 10.6221 20.1647 10.58C20.0134 10.5603 19.8632 10.5377 19.7119 10.5189C19.6598 10.5139 19.6097 10.4956 19.5669 10.4657C19.5239 10.4359 19.4892 10.3957 19.4662 10.3486C19.4449 10.3096 19.4293 10.2676 19.4202 10.2241C19.3848 10.0602 19.3542 9.89908 19.3204 9.73146C19.2869 9.56383 19.2504 9.39614 19.2159 9.2285C19.1589 8.95506 19.1046 8.68163 19.0467 8.40816C19.0121 8.24053 18.9731 8.07375 18.9366 7.90612C18.9283 7.86681 18.9234 7.82563 18.9151 7.78537C18.8758 7.6037 18.8357 7.41632 18.7964 7.22903C18.7638 7.08393 18.7349 6.94538 18.703 6.80307C18.6928 6.75374 18.6705 6.70774 18.6379 6.66944C18.6052 6.63114 18.5633 6.60167 18.5163 6.58391C18.4906 6.57021 18.462 6.56277 18.4328 6.56212C18.4037 6.56149 18.3748 6.56772 18.3485 6.58029C18.3222 6.59284 18.2991 6.61134 18.2813 6.63439C18.2634 6.65747 18.251 6.68452 18.2454 6.71319C18.2391 6.73457 18.2347 6.75657 18.2324 6.77875C18.223 6.86768 18.2146 6.9567 18.2052 7.04565C18.1632 7.43426 18.1203 7.82291 18.0792 8.21152C18.0661 8.33325 18.0576 8.456 18.0455 8.57866C18.0306 8.72285 18.0128 8.86609 17.997 9.01026C17.9839 9.12918 17.9718 9.24723 17.9597 9.36615C17.9372 9.5806 17.9157 9.79609 17.8923 10.0105C17.8853 10.0506 17.8751 10.0902 17.8615 10.1286C17.8537 10.1577 17.8376 10.1839 17.815 10.2039C17.7924 10.2239 17.7644 10.2366 17.7346 10.2408C17.6831 10.2473 17.631 10.2473 17.5796 10.2408C17.4031 10.2211 17.2265 10.1959 17.049 10.1734C16.8202 10.1434 16.5849 10.1162 16.3533 10.0863C16.2169 10.0685 16.0814 10.0452 15.9451 10.0283C15.8914 10.0221 15.8399 10.0027 15.7953 9.97205C15.7508 9.94138 15.7144 9.90019 15.6892 9.8522C15.5725 9.649 15.4575 9.44483 15.3426 9.24068L15.027 8.67871C14.8458 8.3522 14.6589 8.01857 14.4665 7.6777C14.2742 7.33684 14.0824 6.99653 13.8912 6.65691C13.753 6.41468 13.6153 6.17173 13.4784 5.92825C13.356 5.70822 13.2347 5.49001 13.1133 5.27277C12.9658 5.01997 12.8266 4.76902 12.6856 4.51526C12.6647 4.47237 12.6501 4.42657 12.6425 4.37946C12.6372 4.34803 12.6383 4.31587 12.6456 4.28486C12.6528 4.25382 12.6659 4.22445 12.6845 4.1986C12.7545 4.09281 12.8227 3.98703 12.8918 3.88031C13.106 3.54506 13.3212 3.21039 13.5372 2.8764C13.6885 2.64325 13.8426 2.40909 13.9939 2.17498C14.1181 1.98206 14.2425 1.78723 14.3677 1.59432L15.0906 0.480737C15.1438 0.399294 15.1951 0.317783 15.2474 0.23634C15.2586 0.217635 15.2717 0.19894 15.2838 0.180235C15.3048 0.142379 15.3378 0.112583 15.3776 0.0956224Z" fill="white"/>
</g>
<defs>
<clipPath id="clip0_618_2464">
<rect width="140" height="37" fill="white"/>
</clipPath>
</defs>
</svg>
