<svg width="140" height="37" viewBox="0 0 140 37" fill="none" xmlns="http://www.w3.org/2000/svg">
<g clip-path="url(#clip0_618_2042)">
<path d="M39.8333 29.8607C39.5069 29.8607 39.3438 29.6971 39.3438 29.3698V10.7529C39.3438 10.6127 39.3786 10.4958 39.4485 10.4023C39.5418 10.3088 39.6701 10.2621 39.8333 10.2621H42.98C43.1432 10.2621 43.2599 10.3088 43.3298 10.4023C43.423 10.4958 43.4696 10.6127 43.4696 10.7529V12.0501C43.4696 12.3072 43.5397 12.4358 43.6795 12.4358C43.7728 12.4358 43.8892 12.3657 44.029 12.2254C44.775 11.384 45.5327 10.788 46.3018 10.4374C47.0944 10.0868 47.9687 9.91149 48.9244 9.91149C51.8614 9.91149 53.8544 10.975 54.9034 13.1019C55.2997 13.8733 55.5444 14.6563 55.6377 15.451C55.731 16.2456 55.7775 17.2273 55.7775 18.396V29.3698C55.7775 29.5334 55.731 29.6619 55.6377 29.7554C55.5444 29.8255 55.428 29.8607 55.2882 29.8607H52.1062C51.9664 29.8607 51.8497 29.8255 51.7565 29.7554C51.6634 29.6619 51.6166 29.5334 51.6166 29.3698V18.396C51.6166 17.3676 51.5351 16.5261 51.3719 15.8717C51.2321 15.2172 50.9873 14.703 50.6376 14.329C50.0781 13.698 49.1923 13.3824 47.9802 13.3824C46.5583 13.3824 45.4976 13.8031 44.7984 14.6446C44.3322 15.1822 43.9942 15.8951 43.7843 16.7832C43.5745 17.6714 43.4696 18.8869 43.4696 20.4294V29.3698C43.4696 29.6971 43.3064 29.8607 42.98 29.8607H39.8333ZM67.3417 30.2463C65.4303 30.2463 63.7286 29.8138 62.2368 28.9491C60.7682 28.0609 59.6259 26.8572 58.8101 25.3379C57.9942 23.7953 57.5862 22.0656 57.5862 20.149C57.5862 18.3726 57.9476 16.7014 58.6702 15.1354C59.4162 13.5694 60.5117 12.3072 61.957 11.3489C63.4256 10.3906 65.1855 9.91149 67.2368 9.91149C68.9618 9.91149 70.5586 10.2855 72.0272 11.0334C73.519 11.758 74.7079 12.8682 75.5937 14.3641C76.5027 15.86 76.9574 17.6948 76.9574 19.8684V20.4294C76.9574 20.593 76.9107 20.7217 76.8174 20.8152C76.7243 20.8853 76.6077 20.9203 76.4679 20.9203H62.3067C61.957 20.9203 61.8172 21.0956 61.8871 21.4462C61.9804 21.9838 62.1667 22.533 62.4465 23.094C62.9127 24.1926 63.5771 25.0574 64.4395 25.6884C65.3253 26.3195 66.3278 26.6352 67.4467 26.6352C68.5422 26.6352 69.4979 26.3663 70.3138 25.8288C71.1297 25.2911 71.7474 24.5899 72.167 23.7252C72.3068 23.4913 72.4933 23.3745 72.7264 23.3745H76.0132C76.1997 23.3745 76.328 23.4212 76.3979 23.5147C76.4912 23.5848 76.5144 23.6783 76.4679 23.7953C75.7918 25.7118 74.6846 27.2662 73.1461 28.4582C71.6075 29.6502 69.6728 30.2463 67.3417 30.2463ZM72.0971 17.6597C72.2836 17.6597 72.4118 17.613 72.4817 17.5195C72.5749 17.426 72.5983 17.2974 72.5516 17.1338C72.3652 16.5261 72.1903 16.082 72.0272 15.8016C71.561 14.9835 70.92 14.3641 70.1041 13.9434C69.2882 13.4993 68.379 13.2772 67.3768 13.2772C66.351 13.2772 65.442 13.4993 64.6494 13.9434C63.8567 14.3641 63.2157 14.9835 62.7262 15.8016C62.4699 16.2456 62.2834 16.6897 62.1667 17.1338C62.1435 17.1806 62.1319 17.239 62.1319 17.3091C62.1319 17.5429 62.2834 17.6597 62.5863 17.6597H72.0971ZM87.8219 30.2463C85.9103 30.2463 84.2203 29.8138 82.7519 28.9491C81.2833 28.0843 80.141 26.8804 79.3252 25.3379C78.5093 23.7719 78.1013 21.9838 78.1013 19.9737C78.1013 18.0337 78.5093 16.3041 79.3252 14.7848C80.141 13.2422 81.2833 12.0501 82.7519 11.2087C84.2203 10.3439 85.9103 9.91149 87.8219 9.91149C90.013 9.91149 91.8895 10.4491 93.4514 11.5242C95.0131 12.576 96.0738 14.0252 96.6332 15.8717C96.6566 15.9184 96.6683 15.9769 96.6683 16.047C96.6683 16.3041 96.5168 16.4326 96.2136 16.4326H92.7171C92.4607 16.4326 92.2741 16.2924 92.1577 16.0119C91.808 15.1705 91.2485 14.516 90.4794 14.0486C89.7334 13.5811 88.8476 13.3474 87.8219 13.3474C86.7496 13.3474 85.7939 13.6278 84.9546 14.1888C84.1156 14.7264 83.4628 15.4977 82.9967 16.5028C82.5303 17.5078 82.2972 18.6647 82.2972 19.9737C82.2972 21.3293 82.5303 22.5213 82.9967 23.5499C83.4628 24.5782 84.1156 25.3729 84.9546 25.9338C85.7939 26.4948 86.7496 26.7754 87.8219 26.7754C88.9408 26.7754 89.8849 26.5065 90.654 25.969C91.4234 25.4313 91.9711 24.6952 92.2975 23.7601C92.3674 23.503 92.5539 23.3745 92.8569 23.3745H96.3186C96.6915 23.3745 96.8431 23.5499 96.7731 23.9003C96.237 25.8872 95.1646 27.4415 93.5562 28.5634C91.9478 29.6853 90.0364 30.2463 87.8219 30.2463ZM104.754 29.8607C103.239 29.8607 102.097 29.51 101.328 28.8089C100.558 28.1075 100.174 26.9507 100.174 25.3379V14.1888C100.174 13.8616 100.011 13.698 99.6843 13.698H97.7262C97.3998 13.698 97.2366 13.5343 97.2366 13.2071V10.7529C97.2366 10.6127 97.2717 10.4958 97.3416 10.4023C97.4348 10.3088 97.563 10.2621 97.7262 10.2621H99.6843C100.011 10.2621 100.174 10.0985 100.174 9.77124V3.6007C100.174 3.27346 100.337 3.10986 100.663 3.10986H103.81C104.137 3.10986 104.3 3.27346 104.3 3.6007V9.77124C104.3 9.93486 104.346 10.0634 104.44 10.1569C104.533 10.227 104.649 10.2621 104.789 10.2621H107.796C107.96 10.2621 108.076 10.3088 108.146 10.4023C108.239 10.4958 108.286 10.6127 108.286 10.7529V13.2071C108.286 13.5343 108.123 13.698 107.796 13.698H104.789C104.649 13.698 104.533 13.7447 104.44 13.8382C104.346 13.9083 104.3 14.0252 104.3 14.1888V24.1809C104.3 24.9289 104.416 25.4898 104.649 25.8637C104.882 26.2144 105.395 26.3897 106.188 26.3897H107.761C108.088 26.3897 108.251 26.5534 108.251 26.8804V29.3698C108.251 29.6971 108.088 29.8607 107.761 29.8607H104.754ZM115.593 30.2463C113.682 30.2463 112.143 29.7437 110.977 28.7386C109.812 27.7336 109.229 26.3312 109.229 24.5316C109.229 22.7083 109.94 21.2709 111.362 20.2191C112.388 19.4711 113.903 18.8985 115.908 18.5012L121.642 17.4143C121.782 17.3909 121.887 17.3325 121.957 17.239C122.05 17.1455 122.085 17.017 122.062 16.8534C121.945 15.7314 121.607 14.89 121.048 14.329C120.325 13.6045 119.346 13.2422 118.111 13.2422C117.178 13.2422 116.35 13.4876 115.628 13.9784C114.929 14.4693 114.451 15.1354 114.194 15.9769C114.078 16.2807 113.891 16.4326 113.635 16.4326H110.488C110.325 16.4326 110.208 16.3859 110.138 16.2924C110.068 16.1755 110.045 16.0353 110.068 15.8717C110.488 13.9551 111.444 12.4826 112.936 11.4541C114.451 10.4257 116.187 9.91149 118.145 9.91149C119.311 9.91149 120.395 10.0751 121.397 10.4023C122.423 10.7296 123.297 11.2204 124.02 11.8748C124.975 12.763 125.57 13.8031 125.803 14.9952C126.059 16.1872 126.188 17.6013 126.188 19.2374V29.3698C126.188 29.6971 126.024 29.8607 125.698 29.8607H122.551C122.225 29.8607 122.062 29.6971 122.062 29.3698V28.0375C122.062 27.7571 121.992 27.6167 121.852 27.6167C121.805 27.6167 121.724 27.6753 121.607 27.792C121.141 28.3764 120.64 28.8321 120.104 29.1594C119.008 29.8839 117.504 30.2463 115.593 30.2463ZM116.502 26.8804C117.458 26.8804 118.355 26.6818 119.194 26.2845C120.22 25.7702 120.954 25.0925 121.397 24.251C121.84 23.4095 122.085 22.3227 122.132 20.9903C122.132 20.8267 122.085 20.71 121.992 20.6399C121.899 20.5463 121.77 20.5112 121.607 20.5346L116.922 21.4812C115.57 21.7618 114.614 22.1591 114.054 22.6734C113.588 23.1408 113.355 23.7252 113.355 24.4263C113.355 25.1976 113.635 25.8054 114.194 26.2494C114.777 26.6701 115.546 26.8804 116.502 26.8804ZM129.262 29.8607C128.936 29.8607 128.773 29.6971 128.773 29.3698V10.7529C128.773 10.6127 128.808 10.4958 128.878 10.4023C128.971 10.3088 129.099 10.2621 129.262 10.2621H132.409C132.572 10.2621 132.689 10.3088 132.759 10.4023C132.852 10.4958 132.899 10.6127 132.899 10.7529V11.8748C132.899 12.132 132.969 12.2605 133.109 12.2605C133.202 12.2605 133.318 12.1904 133.458 12.0501C134.181 11.2788 134.95 10.7296 135.766 10.4023C136.605 10.0751 137.573 9.91149 138.668 9.91149C138.994 9.91149 139.158 10.0751 139.158 10.4023V13.4525C139.158 13.5928 139.111 13.7097 139.018 13.8031C138.948 13.8966 138.831 13.9434 138.668 13.9434H138.109C136.547 13.9434 135.346 14.3641 134.507 15.2055C133.435 16.2106 132.899 17.9402 132.899 20.3944V29.3698C132.899 29.6971 132.736 29.8607 132.409 29.8607H129.262Z" fill="white"/>
<path d="M22.2515 23.8419C22.2964 23.8403 22.3409 23.851 22.3799 23.8732C22.419 23.8955 22.4513 23.928 22.4728 23.9674C22.5364 24.076 22.5979 24.1866 22.6595 24.2971L23.1984 25.2485L23.7122 26.1635C23.8233 26.3611 23.9364 26.5578 24.0476 26.7545L24.5079 27.5709C24.6545 27.8303 24.8031 28.088 24.9497 28.3474C25.0226 28.4766 25.0936 28.6079 25.1665 28.7371L25.4224 29.1911C25.4437 29.2306 25.4625 29.2709 25.4708 29.3008C25.4912 29.3408 25.5031 29.3845 25.5057 29.4293C25.5083 29.4741 25.5016 29.5189 25.4858 29.5609C25.4485 29.6744 25.4092 29.7867 25.3699 29.8992C25.2943 30.1135 25.2207 30.3279 25.1441 30.5415C25.0469 30.8149 24.9431 31.0874 24.8498 31.3609C24.7452 31.6525 24.6416 31.9435 24.5388 32.2337C24.4248 32.5527 24.3115 32.8722 24.1987 33.192L23.9364 33.9411C23.857 34.1659 23.7756 34.3895 23.6962 34.6143C23.5798 34.9403 23.4639 35.2662 23.348 35.5921C23.3359 35.6276 23.3228 35.6622 23.3087 35.6968C23.2918 35.7446 23.2627 35.7872 23.2241 35.8201C23.1856 35.853 23.139 35.8751 23.0893 35.8842C22.9959 35.903 22.9024 35.9216 22.8091 35.9385L22.4355 36.0002C22.3515 36.0135 22.2599 36.0255 22.1824 36.0367C22.1049 36.048 22.0283 36.0622 21.9517 36.0761C21.7911 36.1033 21.638 36.1323 21.4698 36.1594C21.3018 36.1867 21.1325 36.21 20.9645 36.2371C20.871 36.2531 20.7776 36.2738 20.6843 36.2897C20.6301 36.299 20.574 36.3046 20.5198 36.3132L20.0034 36.3955C19.9409 36.4058 19.8782 36.419 19.8167 36.4303L19.3121 36.5162C19.2431 36.5285 19.173 36.537 19.1031 36.5482C18.9509 36.5725 18.7929 36.596 18.636 36.6222C18.4642 36.654 18.2923 36.686 18.1214 36.7159L17.9347 36.7468L17.2313 36.8581C17.1638 36.875 17.0924 36.8676 17.0298 36.8371C16.9672 36.8066 16.9171 36.7551 16.8885 36.6915C16.7755 36.4995 16.6663 36.3046 16.5543 36.1127C16.3326 35.7336 16.1107 35.3547 15.8884 34.9758C15.7296 34.7073 15.5713 34.4383 15.4138 34.1685C15.213 33.8267 15.0141 33.4822 14.8133 33.1384L14.0251 31.8001C13.9195 31.6212 13.8102 31.4387 13.7065 31.2628C13.6029 31.0867 13.501 30.9095 13.3992 30.7316C13.3624 30.6708 13.3413 30.6016 13.338 30.5304C13.3348 30.4592 13.3494 30.3883 13.3806 30.3244C13.4133 30.2606 13.4442 30.197 13.474 30.1323C13.6272 29.8058 13.7797 29.479 13.9316 29.1517C14.0596 28.8849 14.181 28.6172 14.3052 28.3511C14.4415 28.0571 14.5799 27.7649 14.7163 27.4718C14.9323 26.9986 15.1502 26.5258 15.37 26.0539C15.4765 25.8245 15.5839 25.5951 15.6894 25.3656L15.9772 24.7541C16.0712 24.5481 16.1664 24.3423 16.2629 24.1368C16.2815 24.0898 16.3134 24.0491 16.3547 24.0199C16.396 23.9905 16.4449 23.9741 16.4954 23.9723C16.529 23.9647 16.5627 23.9647 16.5954 23.9647L17.4751 23.9422V23.9329H18.0654C18.1588 23.9319 18.2522 23.9234 18.3456 23.9234C18.3938 23.92 18.4424 23.9239 18.4895 23.9345C18.5455 23.95 18.5956 23.9818 18.6334 24.0258C18.6714 24.0699 18.6955 24.1242 18.7024 24.182C18.7399 24.3646 18.7781 24.5611 18.8116 24.7288C18.8454 24.8965 18.8808 25.0642 18.9134 25.2318C18.9488 25.4143 18.9817 25.5979 19.0163 25.7804C19.0265 25.8357 19.0395 25.8901 19.0506 25.9444C19.1002 26.1964 19.1517 26.4483 19.2003 26.7002C19.2376 26.894 19.2722 27.0879 19.3086 27.2816C19.3347 27.4166 19.3618 27.5523 19.3879 27.6871C19.4187 27.8482 19.4495 28.0084 19.4814 28.1694C19.4879 28.2022 19.4953 28.2351 19.5029 28.2678C19.5198 28.3333 19.5582 28.3909 19.6121 28.4316C19.6618 28.4684 19.7239 28.4844 19.7853 28.4766C19.8467 28.4688 19.9027 28.4376 19.9418 28.3894C19.9785 28.3422 20.0012 28.2853 20.0073 28.2258C20.0184 28.0889 20.0286 27.9484 20.0397 27.8145C20.051 27.6806 20.0612 27.5477 20.0735 27.4136C20.0913 27.2095 20.1107 27.0063 20.1276 26.8021C20.151 26.524 20.1734 26.2477 20.1959 25.9667C20.21 25.7925 20.2239 25.6174 20.2389 25.4433C20.2454 25.3656 20.2546 25.2879 20.2613 25.2102C20.2826 24.9471 20.3023 24.6829 20.3238 24.4198C20.3322 24.3196 20.3425 24.2194 20.35 24.1192C20.3544 24.0632 20.3752 24.0096 20.4097 23.9656C20.4284 23.9394 20.4523 23.9176 20.4799 23.9014C20.5078 23.8853 20.5385 23.8752 20.5704 23.8721C20.5888 23.8709 20.6071 23.8709 20.6253 23.8721L22.174 23.8419H22.2515ZM4.59817 17.1992C4.81296 17.2048 5.02876 17.2143 5.24354 17.2208C5.34347 17.2283 5.4444 17.2283 5.54433 17.2283C5.66293 17.232 5.79277 17.2442 5.90017 17.2442C6.00757 17.2442 6.116 17.2358 6.2234 17.2442C6.49796 17.2705 6.7782 17.2573 7.05839 17.2704C7.31054 17.2816 7.56272 17.2873 7.91853 17.2985C8.10438 17.3032 8.39395 17.3088 8.68252 17.3181C8.92721 17.3266 9.17193 17.3406 9.41755 17.3481C9.63982 17.3546 9.86312 17.3612 10.0854 17.3612C10.1853 17.364 10.2852 17.3724 10.386 17.3724C10.5289 17.3762 10.6681 17.3819 10.8092 17.3819C10.9652 17.3866 11.1202 17.4006 11.2762 17.4006C11.341 17.4001 11.4048 17.4172 11.4607 17.4501C11.5166 17.4831 11.5626 17.5309 11.5936 17.588C11.7512 17.8539 11.9085 18.1198 12.0654 18.3858C12.2403 18.6848 12.4146 18.9836 12.5883 19.282C12.61 19.317 12.6294 19.3532 12.6463 19.3906C12.6762 19.4529 12.6847 19.5235 12.6706 19.5912C12.6564 19.6589 12.6203 19.7202 12.5679 19.7652C12.2811 20.019 11.9925 20.271 11.7057 20.5238C11.5703 20.6493 11.4293 20.7758 11.2901 20.8983L10.4859 21.6045L9.52311 22.4519C9.48998 22.4809 9.45871 22.5124 9.42968 22.5456C9.39882 22.5795 9.37575 22.6198 9.36233 22.6637C9.34892 22.7074 9.34538 22.7537 9.352 22.7991C9.35862 22.8444 9.37534 22.8877 9.40071 22.9259C9.42608 22.964 9.45962 22.996 9.49886 23.0196C9.53845 23.0443 9.58327 23.0595 9.62977 23.064C9.67632 23.0683 9.7233 23.0618 9.76686 23.0447C9.85184 23.0212 9.93406 22.9857 10.0153 22.951L11.4162 22.3545L12.5146 21.891L13.5102 21.4697C13.5445 21.455 13.5802 21.444 13.6167 21.4368C13.6694 21.4241 13.7247 21.4273 13.7757 21.4457C13.8268 21.4639 13.8714 21.4966 13.9043 21.5399C13.9279 21.5693 13.9492 21.6007 13.9678 21.6336C14.1646 21.9663 14.361 22.2995 14.5571 22.6328C14.7028 22.879 14.8505 23.1254 14.9962 23.3715C15.0149 23.4033 15.0325 23.4362 15.0484 23.4699C15.0701 23.5134 15.0822 23.561 15.0837 23.6093C15.0851 23.6579 15.076 23.7062 15.0569 23.7508C15.0195 23.8362 14.9793 23.9195 14.9401 24.0039C14.7804 24.34 14.6216 24.6769 14.4609 25.0122C14.3769 25.1864 14.29 25.3597 14.206 25.5339C14.0839 25.7892 13.9635 26.0474 13.8445 26.3085C13.6708 26.6746 13.5017 27.0342 13.3234 27.4068C13.145 27.7796 12.9628 28.1486 12.7844 28.5231C12.649 28.804 12.5182 29.085 12.3828 29.3659C12.2726 29.5944 12.1597 29.8201 12.0476 30.0477C12.019 30.1081 11.9742 30.1593 11.9183 30.1953C11.8624 30.2316 11.7975 30.2517 11.7309 30.253C11.447 30.2801 11.1574 30.3054 10.8773 30.3316C10.7549 30.3428 10.6298 30.3521 10.5037 30.3643C10.4449 30.3699 10.386 30.3811 10.3271 30.3868C10.146 30.4036 9.96857 30.4159 9.77248 30.4344C9.57635 30.4532 9.38113 30.4757 9.18595 30.4954C9.01969 30.5112 8.86361 30.5263 8.68615 30.5414C8.50873 30.5562 8.33041 30.5639 8.15395 30.5863C7.75607 30.6379 7.35617 30.6631 6.95642 30.7005L6.17016 30.7745C5.99272 30.7912 5.8143 30.8044 5.63686 30.8214C5.41926 30.8418 5.19311 30.8671 4.98298 30.8868C4.77287 30.9065 4.56185 30.9223 4.35081 30.9411C4.29507 30.9467 4.23879 30.9372 4.18802 30.9136C4.13725 30.8898 4.09375 30.8528 4.06215 30.8063C4.03534 30.7706 4.01032 30.7334 3.98736 30.6949L3.31681 29.5712C3.19446 29.3642 3.06839 29.158 2.94324 28.9511C2.75646 28.6421 2.56956 28.3349 2.38278 28.025C2.196 27.715 2.00929 27.4004 1.8225 27.0885C1.69175 26.8722 1.55813 26.6567 1.42738 26.4405C1.26582 26.1737 1.10707 25.9048 0.945513 25.6371C0.817561 25.4235 0.6867 25.2109 0.557811 24.9973C0.479373 24.8672 0.401957 24.7351 0.322584 24.605C0.259074 24.5001 0.192723 24.3969 0.12828 24.2921C0.0978949 24.2458 0.0701343 24.1976 0.0451618 24.148C0.0126176 24.0874 -0.00285687 24.0189 0.000433986 23.95C0.00372969 23.8814 0.0256345 23.8146 0.0638135 23.7573C0.269907 23.4308 0.47782 23.1045 0.68765 22.7788C0.857617 22.5071 1.02294 22.2338 1.19197 21.9622C1.29657 21.7956 1.40589 21.6316 1.5105 21.4648C1.63004 21.2757 1.74684 21.0837 1.86452 20.8964C1.99245 20.6914 2.11481 20.5012 2.25023 20.2821C2.38563 20.0631 2.52009 19.8439 2.65549 19.6267C2.77037 19.443 2.88722 19.2623 3.0021 19.0797C3.14032 18.8559 3.28141 18.6311 3.42058 18.4072L3.70071 17.9531C3.81527 17.7702 3.93042 17.5876 4.04622 17.4053C4.06209 17.38 4.079 17.3565 4.09675 17.3321C4.12401 17.2919 4.16054 17.2588 4.20322 17.2357C4.24597 17.2126 4.29373 17.2 4.3423 17.1992H4.59817ZM26.2416 18.1105C26.349 18.1171 26.4565 18.1274 26.5639 18.1339C26.7414 18.1452 26.9188 18.1536 27.0972 18.1648C27.2559 18.176 27.4147 18.1912 27.5734 18.2024L27.9181 18.2258C28.1403 18.2399 28.3628 18.252 28.5849 18.268C28.8998 18.2904 29.2154 18.296 29.5291 18.3297C29.6879 18.3465 29.8477 18.3485 30.0074 18.3578C30.0372 18.3588 30.0663 18.3653 30.0962 18.3653C30.1373 18.3662 30.1774 18.378 30.2126 18.3996C30.2477 18.4211 30.2764 18.4517 30.2961 18.488C30.3361 18.5545 30.3752 18.622 30.4127 18.6902C30.5312 18.9057 30.648 19.1212 30.7667 19.3365C30.8498 19.4863 30.9347 19.6343 31.0178 19.784L31.2644 20.2336C31.384 20.4482 31.5082 20.6718 31.6221 20.8769C31.7361 21.082 31.8483 21.2871 31.9622 21.4922L32.3245 22.1477L32.7842 22.9774C32.8214 23.0458 32.8543 23.117 32.8962 23.1826C32.9477 23.2661 32.9663 23.366 32.9485 23.4625C32.9422 23.4993 32.9331 23.5357 32.9214 23.571C32.8311 23.8708 32.7402 24.1699 32.6486 24.4683C32.5403 24.8203 32.4302 25.1715 32.3236 25.5246C32.191 25.9591 32.0612 26.3975 31.9286 26.8358C31.8491 27.0961 31.768 27.3554 31.6877 27.6148C31.6306 27.8069 31.5746 27.9943 31.5168 28.1815C31.4915 28.2669 31.4654 28.353 31.4354 28.4372C31.4224 28.4708 31.4044 28.5024 31.3821 28.5307C31.369 28.5489 31.3519 28.5638 31.3323 28.5744C31.3124 28.5848 31.2905 28.591 31.2683 28.5917C31.0684 28.6068 30.8685 28.6244 30.6688 28.6404C30.4372 28.6592 30.2026 28.6815 29.9701 28.6956C29.6843 28.7144 29.4012 28.752 29.1145 28.7585C28.9482 28.7622 28.782 28.7865 28.6157 28.8014L28.4047 28.8154L27.9378 28.8483L27.6051 28.8782L26.8721 28.9353L26.7171 28.9494H26.6609C26.6207 28.9544 26.5797 28.9483 26.5426 28.9318C26.5053 28.9154 26.4732 28.8892 26.4499 28.8557C26.4272 28.8262 26.407 28.7947 26.3891 28.762L25.7056 27.5589C25.5075 27.2104 25.3097 26.8601 25.1116 26.5108L24.5707 25.5603L24.0346 24.624C23.9365 24.4562 23.8396 24.2783 23.7498 24.1192C23.6603 23.9598 23.575 23.7995 23.4817 23.6422C23.4455 23.5859 23.4242 23.5212 23.4196 23.4543C23.4147 23.3875 23.4268 23.3204 23.4546 23.2594C23.6145 22.8736 23.7695 22.4876 23.9273 22.1009C23.9833 21.9633 24.0383 21.8255 24.0953 21.6879C24.1053 21.6599 24.1175 21.6327 24.1318 21.6065C24.1511 21.5634 24.1854 21.5286 24.2284 21.5093C24.2714 21.4897 24.3202 21.4866 24.3653 21.5007C24.394 21.5076 24.4218 21.5178 24.4485 21.5306C24.6473 21.6242 24.8361 21.7132 25.0443 21.8116C25.2525 21.9098 25.4636 22.0035 25.6727 22.0972L26.7319 22.5906C26.9075 22.6721 27.0831 22.7509 27.2587 22.8305C27.2721 22.8372 27.2858 22.8431 27.2999 22.8483C27.3296 22.8639 27.3631 22.8714 27.3967 22.8701C27.4304 22.8686 27.4632 22.8582 27.4916 22.8401C27.52 22.8219 27.543 22.7966 27.5586 22.7667C27.5741 22.7368 27.5816 22.7031 27.5799 22.6695C27.5843 22.6211 27.5777 22.5722 27.5606 22.5269C27.5434 22.4815 27.5161 22.4404 27.4809 22.4071C27.3073 22.2441 27.1354 22.0793 26.9626 21.9155C26.6264 21.5959 26.2893 21.2761 25.9511 20.9565L25.0667 20.123C25.013 20.0772 24.9664 20.0235 24.9286 19.9638C24.9023 19.9224 24.8865 19.8749 24.8826 19.826C24.8789 19.777 24.8873 19.7279 24.9069 19.6829C24.9555 19.5564 25.0059 19.4319 25.0573 19.3084C25.1413 19.1015 25.2264 18.8953 25.3104 18.6883L25.4804 18.2632C25.4921 18.231 25.506 18.1996 25.5225 18.1695C25.5366 18.1413 25.5585 18.1176 25.5854 18.1011C25.6123 18.0845 25.6433 18.0758 25.6748 18.0758C25.6822 18.0754 25.6896 18.0754 25.697 18.0758L26.2416 18.1105ZM16.1412 11.2676C16.4045 11.2826 16.666 11.3154 16.9275 11.3491C16.9863 11.3577 17.0456 11.3631 17.1049 11.3651C17.2422 11.3679 17.3777 11.3884 17.514 11.4043C17.7064 11.4277 17.898 11.4465 18.0904 11.4681C18.3407 11.4971 18.591 11.5271 18.842 11.5552L19.5174 11.6282L20.5354 11.7397C20.6719 11.7547 20.8083 11.7696 20.9456 11.7827C21.0566 11.7934 21.1644 11.8271 21.2619 11.8815C21.3594 11.936 21.4447 12.0101 21.5124 12.0992C21.5875 12.2009 21.6546 12.3083 21.7132 12.4204C21.8664 12.6798 22.0168 12.9412 22.1672 13.2024C22.3539 13.5277 22.5406 13.8533 22.7274 14.1791L23.2019 14.9995C23.3345 15.228 23.4654 15.4575 23.598 15.686L23.9996 16.3818C24.0676 16.5007 24.1407 16.6177 24.2051 16.7395C24.274 16.8594 24.3145 16.9936 24.3239 17.1317C24.3332 17.2697 24.3111 17.4082 24.2592 17.5364C24.1491 17.8173 24.0371 18.0983 23.9258 18.3792C23.7919 18.7151 23.6578 19.0502 23.5232 19.3841C23.4224 19.637 23.3196 19.888 23.2187 20.1399C23.1036 20.4309 22.9881 20.7215 22.8724 21.0117C22.8229 21.1381 22.7713 21.262 22.7218 21.3864C22.6341 21.6065 22.5473 21.8246 22.4594 22.042C22.4093 22.1797 22.3168 22.2978 22.195 22.379C22.1054 22.4391 22.0003 22.4714 21.8924 22.4726C21.7702 22.4726 21.6478 22.4737 21.5254 22.482C21.2396 22.5027 20.9595 22.496 20.6795 22.5025C20.4291 22.5083 20.1805 22.512 19.932 22.5243C19.5389 22.5447 19.1447 22.5363 18.7515 22.5494C18.5442 22.556 18.3434 22.5616 18.1277 22.5737C17.912 22.586 17.6935 22.586 17.474 22.586C17.3003 22.5897 17.1255 22.5917 16.9508 22.5992C16.7998 22.6092 16.6489 22.5778 16.5144 22.5083C16.3799 22.4385 16.2669 22.3333 16.1878 22.2039C16.0906 22.0587 16.0076 21.9042 15.9189 21.7534C15.7638 21.4881 15.6081 21.2218 15.4518 20.9546L14.9037 20.0181C14.6291 19.5542 14.3551 19.0894 14.0817 18.6236C13.9024 18.3193 13.7259 18.013 13.5475 17.7087C13.4121 17.4774 13.2767 17.2461 13.1385 17.0167C13.0772 16.9191 13.0327 16.8118 13.0068 16.6993C12.9583 16.4939 12.9861 16.2777 13.0852 16.0914C13.2701 15.744 13.4643 15.3994 13.6511 15.0539C13.7753 14.8245 13.8996 14.5884 14.0247 14.3562C14.1097 14.2007 14.1957 14.0424 14.2817 13.8879C14.3676 13.7334 14.4516 13.576 14.5375 13.4196L15.0045 12.5675C15.1148 12.3652 15.2242 12.1622 15.3332 11.9587C15.3976 11.8407 15.4585 11.7218 15.5248 11.6057C15.5813 11.4934 15.6704 11.401 15.7805 11.3406C15.8906 11.2802 16.0164 11.2547 16.1412 11.2676ZM24.5251 7.1866C24.6026 7.19597 24.6792 7.20908 24.7567 7.2222C24.8884 7.24281 25.0145 7.26343 25.1519 7.28683C25.2891 7.31024 25.43 7.33642 25.5693 7.35983L26.151 7.45352L26.8767 7.565C27.0299 7.58936 27.1851 7.61087 27.3383 7.63709C27.5389 7.67173 27.7397 7.71103 27.9405 7.74567C28.1712 7.785 28.4019 7.82058 28.6326 7.85898C28.6904 7.86833 28.7494 7.88147 28.8074 7.89365C28.869 7.90988 28.9222 7.94876 28.9567 8.0024C28.9825 8.03909 29.0062 8.07722 29.0277 8.11662C29.2805 8.56361 29.5334 9.00997 29.7861 9.4557C29.9784 9.79566 30.1785 10.1422 30.3652 10.4747C30.552 10.8071 30.7387 11.1339 30.9254 11.4626C31.0619 11.7014 31.2012 11.9385 31.3374 12.1782C31.3981 12.284 31.455 12.3936 31.5129 12.5012C31.5323 12.5373 31.5438 12.5772 31.5462 12.6181C31.5487 12.6591 31.5422 12.7001 31.5271 12.7382C31.4048 13.0931 31.2861 13.4499 31.1665 13.8067C31.1188 13.949 31.073 14.0895 31.0254 14.23C30.9508 14.4519 30.8724 14.6785 30.7986 14.8958C30.7248 15.113 30.6528 15.3331 30.579 15.5513C30.4433 15.9533 30.3072 16.3551 30.1709 16.7565C30.1559 16.8015 30.142 16.8494 30.1271 16.8953C30.1242 16.9168 30.1168 16.9375 30.1056 16.9563C30.0947 16.975 30.0802 16.9913 30.0628 17.0044C30.0454 17.0174 30.0257 17.027 30.0048 17.0323C29.9836 17.0377 29.9617 17.0388 29.9402 17.0356H29.6843C29.4472 17.0272 29.2089 17.0216 28.9717 17.0113C28.6869 16.9991 28.3963 16.9823 28.1162 16.9692C27.7818 16.9532 27.4484 16.9402 27.115 16.9261C27.029 16.9214 26.944 16.9214 26.8582 16.9214C26.4949 16.9148 26.1315 16.8887 25.7692 16.8662C25.7247 16.8629 25.68 16.8629 25.6355 16.8662C25.5784 16.8719 25.5209 16.8598 25.4706 16.8317C25.4205 16.8036 25.3803 16.7606 25.3553 16.7088C25.3087 16.6236 25.2572 16.5412 25.2086 16.4579L24.6903 15.5589C24.6241 15.4428 24.5559 15.3275 24.4904 15.2105C24.4728 15.1781 24.4587 15.1438 24.4485 15.1084C24.4344 15.0656 24.4329 15.0197 24.4441 14.976C24.4552 14.9324 24.4784 14.8928 24.5112 14.862L24.8109 14.5624L25.2396 14.1392L26.4304 12.9648C26.4415 12.9545 26.451 12.9433 26.463 12.9339C26.6273 12.7953 26.5172 12.5526 26.3761 12.4862C26.3523 12.4756 26.3266 12.4702 26.3006 12.4702C26.2746 12.4702 26.2487 12.4756 26.2249 12.4862L26.0577 12.5481L24.9753 12.9526L23.8162 13.3815C23.7778 13.3964 23.7387 13.4078 23.7003 13.4218C23.6554 13.4408 23.6054 13.4445 23.5581 13.4325C23.5108 13.4205 23.4685 13.3935 23.4377 13.3553C23.3901 13.2976 23.3487 13.2347 23.3146 13.168C23.1279 12.8458 22.941 12.5236 22.7542 12.2014C22.6608 12.0366 22.5675 11.8709 22.4741 11.7079C22.4429 11.6592 22.4251 11.6031 22.4225 11.5452C22.4199 11.4874 22.4325 11.4298 22.459 11.3784C22.6396 10.9901 22.8195 10.6042 22.9988 10.2209C23.2156 9.74419 23.4333 9.26747 23.6528 8.7908C23.8551 8.35381 24.0565 7.91684 24.257 7.47985C24.287 7.41524 24.3169 7.35144 24.3458 7.28683C24.359 7.25156 24.3844 7.2222 24.4172 7.20385C24.45 7.18552 24.4882 7.17933 24.5251 7.1866ZM4.49387 3.63361C4.55022 3.61296 4.61141 3.6095 4.66969 3.6238C4.81539 3.64815 4.95364 3.67911 5.09561 3.70533C5.13948 3.71375 5.1843 3.71565 5.22815 3.72312C5.40062 3.75495 5.57222 3.78622 5.7428 3.81681C5.8418 3.8346 5.93898 3.85803 6.03797 3.87582C6.3331 3.93013 6.63016 3.98162 6.92529 4.03688C7.07938 4.06685 7.2354 4.10154 7.39229 4.13057C7.62952 4.17365 7.86766 4.21293 8.10487 4.25694C8.27672 4.28784 8.44678 4.32349 8.61769 4.35627C8.67649 4.3675 8.73531 4.37484 8.79317 4.38514C8.94353 4.41136 9.09299 4.43586 9.24335 4.46303C9.32645 4.47801 9.40957 4.49761 9.49361 4.5126C9.66172 4.54257 9.83 4.56966 9.99811 4.59775L10.1848 4.63243C10.4837 4.68956 10.7826 4.74865 11.0824 4.80201C11.1506 4.81146 11.2155 4.8371 11.2717 4.87683C11.3279 4.91658 11.3738 4.96926 11.4055 5.03045C11.6026 5.38444 11.8054 5.73562 12.0062 6.08774C12.1528 6.34244 12.3003 6.59722 12.4451 6.85287C12.6692 7.24712 12.8906 7.64321 13.1148 8.03745C13.2617 8.29654 13.4088 8.5554 13.5564 8.81386L14.058 9.69611C14.1934 9.93488 14.3288 10.1672 14.4633 10.4031C14.4764 10.4256 14.4885 10.449 14.4997 10.4723C14.5224 10.5133 14.5344 10.5595 14.5344 10.6063C14.5344 10.6532 14.5224 10.6992 14.4997 10.7401C14.4623 10.8085 14.4222 10.8759 14.384 10.9433L13.8395 11.8921C13.7647 12.0213 13.6863 12.1477 13.6135 12.2779C13.5853 12.3333 13.5377 12.3765 13.4798 12.399C13.4219 12.4214 13.3577 12.4217 13.2996 12.3997C13.2127 12.3677 13.1278 12.3301 13.0456 12.2873L12.3786 11.954C12.0798 11.8041 11.7679 11.6467 11.4812 11.5062C11.1945 11.3657 10.9069 11.2262 10.6201 11.0848L9.63285 10.5913C9.60012 10.5741 9.56645 10.5587 9.532 10.5453C9.49888 10.533 9.46353 10.5275 9.42823 10.5292C9.39294 10.5308 9.35828 10.5396 9.32646 10.555C9.29463 10.5703 9.26626 10.5922 9.24298 10.6189C9.21975 10.6455 9.202 10.6765 9.19101 10.7102C9.17706 10.7529 9.17499 10.7987 9.18485 10.8426C9.19472 10.8864 9.21626 10.9267 9.24716 10.9593C9.2817 11.0007 9.32046 11.0384 9.36286 11.0717L10.4669 12.0794C10.7686 12.3547 11.0693 12.6319 11.3718 12.9072C11.553 13.073 11.7362 13.2368 11.9174 13.4016C12.0706 13.544 12.2246 13.6827 12.3759 13.8251C12.4128 13.8605 12.4443 13.9012 12.4694 13.9458C12.4982 14.0007 12.5114 14.0626 12.5076 14.1245C12.5038 14.1864 12.4831 14.246 12.4478 14.297L12.0659 14.9524C11.9333 15.1809 11.8016 15.4105 11.6699 15.639C11.6288 15.7101 11.5849 15.7795 11.5457 15.8507C11.5239 15.8965 11.4892 15.935 11.4459 15.9613C11.4026 15.9875 11.3525 16.0004 11.3019 15.9985H11.2112L11.0245 15.9836C10.706 15.9611 10.3884 15.9265 10.068 15.918C9.97933 15.9162 9.89064 15.903 9.80289 15.8955C9.59558 15.8759 9.3891 15.8563 9.18177 15.8385C9.06692 15.8291 8.9511 15.8309 8.83717 15.8169C8.71321 15.8014 8.58849 15.7923 8.4636 15.7897C8.40478 15.7887 8.34494 15.7757 8.28613 15.7757C8.20114 15.7701 8.11507 15.7672 8.03008 15.7606C7.94514 15.7541 7.86114 15.7438 7.77619 15.7354L7.621 15.7214L7.19891 15.6876C7.14755 15.6839 7.09525 15.6764 7.04389 15.6764L6.67032 15.6473L6.61417 15.6408L5.84747 15.5939C5.83288 15.5949 5.81823 15.5949 5.80366 15.5939C5.63458 15.5702 5.46417 15.5559 5.29354 15.5509C5.20485 15.5415 5.11617 15.5284 5.02843 15.5209C4.8323 15.5041 4.63606 15.4901 4.439 15.477C4.38335 15.4736 4.32872 15.4605 4.27747 15.4385C4.2074 15.4089 4.14956 15.3561 4.11394 15.2887C3.97759 15.0462 3.83566 14.8046 3.69746 14.563C3.48731 14.194 3.27251 13.8146 3.06891 13.4559C2.86532 13.0973 2.66258 12.7368 2.45992 12.3781L2.07331 11.6983C1.79748 11.2138 1.5213 10.729 1.24485 10.2439L0.706844 9.30737C0.655481 9.21654 0.602265 9.12938 0.551837 9.03574C0.535087 9.00347 0.520751 8.96991 0.508919 8.93551C0.489217 8.88704 0.483341 8.83405 0.492078 8.78245C0.500825 8.73082 0.523766 8.68259 0.558355 8.64336C0.704049 8.46169 0.848203 8.27723 0.990784 8.08992C1.18412 7.84269 1.37475 7.59081 1.56808 7.34075C1.77728 7.06918 1.98926 6.80124 2.19753 6.52967C2.48423 6.15887 2.76718 5.78993 3.05389 5.41538C3.30294 5.0951 3.55216 4.77478 3.80121 4.45449C3.97429 4.23164 4.14674 4.00806 4.31858 3.78396L4.35316 3.74C4.38849 3.69134 4.43748 3.65429 4.49387 3.63361ZM15.3776 0.0951341C15.4173 0.0781972 15.4615 0.0749913 15.5032 0.0860556L15.8478 0.164676L16.3243 0.276161L16.8118 0.389463L17.5917 0.576845L18.3463 0.756601C18.6032 0.817473 18.86 0.875515 19.1159 0.935449C19.2728 0.971971 19.4278 1.01038 19.5828 1.04784L20.3197 1.22015L20.5467 1.27626C20.5964 1.28753 20.6433 1.30968 20.6837 1.34108C20.724 1.37247 20.757 1.41243 20.7802 1.45801C20.8836 1.64031 20.9876 1.82506 21.0922 2.01234C21.299 2.37446 21.5044 2.7366 21.7086 3.09869C21.8879 3.41617 22.0663 3.73469 22.2456 4.05123C22.4231 4.35961 22.6 4.66982 22.7761 4.98196C22.9339 5.25728 23.0882 5.53352 23.2432 5.80884C23.3085 5.92496 23.3756 6.04114 23.442 6.15819V6.16763C23.4891 6.22263 23.5164 6.29211 23.519 6.36462C23.5216 6.43712 23.4993 6.50835 23.4561 6.56654C23.3061 6.88619 23.1553 7.20623 23.004 7.52652C22.8651 7.81803 22.7257 8.10991 22.5857 8.40206C22.4559 8.67363 22.3231 8.94518 22.1933 9.21677C22.0848 9.44525 21.9786 9.67478 21.8701 9.90329C21.816 10.0175 21.76 10.1317 21.7058 10.245C21.6637 10.3386 21.6161 10.4324 21.5703 10.5261C21.5591 10.5494 21.5471 10.5719 21.5369 10.5953C21.5208 10.6397 21.4894 10.6771 21.4486 10.7007C21.4078 10.7244 21.36 10.7329 21.3134 10.7245L21.136 10.7029C20.812 10.6617 20.4879 10.6216 20.1647 10.5795C20.0134 10.5598 19.8632 10.5372 19.7119 10.5185C19.6598 10.5134 19.6097 10.4951 19.5669 10.4652C19.5239 10.4354 19.4892 10.3952 19.4662 10.3481C19.4449 10.3091 19.4293 10.2671 19.4202 10.2236C19.3848 10.0597 19.3542 9.89859 19.3204 9.73097C19.2869 9.56334 19.2504 9.39565 19.2159 9.22801C19.1589 8.95457 19.1046 8.68114 19.0467 8.40767C19.0121 8.24004 18.9731 8.07326 18.9366 7.90563C18.9283 7.86632 18.9234 7.82514 18.9151 7.78488C18.8758 7.60321 18.8357 7.41583 18.7964 7.22854C18.7638 7.08345 18.7349 6.94489 18.703 6.80258C18.6928 6.75325 18.6705 6.70725 18.6379 6.66895C18.6052 6.63065 18.5633 6.60118 18.5163 6.58342C18.4906 6.56972 18.462 6.56228 18.4328 6.56163C18.4037 6.561 18.3748 6.56723 18.3485 6.5798C18.3222 6.59235 18.2991 6.61085 18.2813 6.6339C18.2634 6.65698 18.251 6.68403 18.2454 6.7127C18.2391 6.73408 18.2347 6.75608 18.2324 6.77826C18.223 6.86719 18.2146 6.95621 18.2052 7.04516C18.1632 7.43377 18.1203 7.82242 18.0792 8.21103C18.0661 8.33276 18.0576 8.45551 18.0455 8.57817C18.0306 8.72236 18.0128 8.8656 17.997 9.00977C17.9839 9.12869 17.9718 9.24674 17.9597 9.36566C17.9372 9.58011 17.9157 9.7956 17.8923 10.0101C17.8853 10.0502 17.8751 10.0897 17.8615 10.1281C17.8537 10.1572 17.8376 10.1835 17.815 10.2034C17.7924 10.2234 17.7644 10.2361 17.7346 10.2403C17.6831 10.2469 17.631 10.2468 17.5796 10.2403C17.4031 10.2206 17.2265 10.1954 17.049 10.1729C16.8202 10.143 16.5849 10.1157 16.3533 10.0858C16.2169 10.068 16.0814 10.0447 15.9451 10.0278C15.8914 10.0216 15.8399 10.0022 15.7953 9.97157C15.7508 9.94089 15.7144 9.8997 15.6892 9.85172C15.5725 9.64851 15.4575 9.44434 15.3426 9.24019L15.027 8.67822C14.8458 8.35171 14.6589 8.01808 14.4665 7.67721C14.2742 7.33635 14.0824 6.99604 13.8912 6.65642C13.753 6.41419 13.6153 6.17124 13.4784 5.92776C13.356 5.70773 13.2347 5.48953 13.1133 5.27229C12.9658 5.01948 12.8266 4.76853 12.6856 4.51477C12.6647 4.47188 12.6501 4.42608 12.6425 4.37897C12.6372 4.34755 12.6383 4.31538 12.6456 4.28437C12.6528 4.25334 12.6659 4.22396 12.6845 4.19811C12.7545 4.09232 12.8227 3.98655 12.8918 3.87982C13.106 3.54457 13.3212 3.2099 13.5372 2.87591C13.6885 2.64276 13.8426 2.4086 13.9939 2.17449C14.1181 1.98157 14.2425 1.78674 14.3677 1.59383L15.0906 0.480249C15.1438 0.398806 15.1951 0.317294 15.2474 0.235851C15.2586 0.217147 15.2717 0.198452 15.2838 0.179747C15.3048 0.14189 15.3378 0.112094 15.3776 0.0951341Z" fill="#E55812"/>
</g>
<defs>
<clipPath id="clip0_618_2042">
<rect width="140" height="37" fill="white"/>
</clipPath>
</defs>
</svg>
