<svg width="1141" height="214" viewBox="0 0 1141 214" fill="none" xmlns="http://www.w3.org/2000/svg">
<path d="M0.300001 209V5H51L115.5 112.1L131.1 144.5L128.7 5H176.7V209H126L61.5 101.9L45.9 69.2L48.3 209H0.300001ZM213.288 209V5H359.688V43.1H261.288V86H347.988V123.2H261.288V170.9H359.688V209H213.288ZM571.463 70.4H521.062C515.363 50.3 500.963 39.5 480.563 39.5C449.663 39.5 431.963 65.3 431.963 107.3C431.963 149.6 449.363 174.5 480.563 174.5C499.763 174.5 514.763 164.3 520.463 145.1H571.463C560.963 190.1 524.663 213.8 481.163 213.8C420.263 213.8 382.763 173.3 382.763 107.3C382.763 41.3 420.263 0.199988 481.763 0.199988C525.563 0.199988 562.763 23.9 571.463 70.4ZM646.641 209V44.3H583.341V5H758.241V44.3H694.941V209H646.641ZM899.761 209L886.261 170.9H806.161L792.661 209H744.361L818.761 5H876.361L951.061 209H899.761ZM840.061 75.2L819.361 134H873.061L852.361 75.2L846.361 52.1L840.061 75.2ZM971.491 209V5H1054.89C1102.59 5 1131.99 29 1131.99 66.8C1131.99 89.3 1122.69 104.9 1106.49 114.5C1115.79 121.4 1121.49 131.6 1125.09 146.6L1140.39 209H1090.29L1078.89 155.6C1074.99 137.3 1068.69 133.4 1051.29 133.4H1019.49V209H971.491ZM1053.99 43.1H1019.49V96.2H1052.79C1072.89 96.2 1082.49 85.4 1082.49 69.5C1082.49 53.6 1072.59 43.1 1053.99 43.1Z" fill="url(#paint0_linear_137_3300)"/>
<defs>
<linearGradient id="paint0_linear_137_3300" x1="565" y1="154.505" x2="565" y2="-473.756" gradientUnits="userSpaceOnUse">
<stop stop-color="white" stop-opacity="0"/>
<stop offset="1" stop-color="#FFD3AD"/>
</linearGradient>
</defs>
</svg>
