<svg width="14" height="16" viewBox="0 0 14 16" fill="none" xmlns="http://www.w3.org/2000/svg">
<path d="M9.45292 10.335C9.47199 10.3343 9.49089 10.339 9.50743 10.3486C9.52406 10.3583 9.53776 10.3724 9.5469 10.3896C9.57392 10.4368 9.60007 10.4849 9.62623 10.533L9.85515 10.9467L10.0734 11.3447C10.1206 11.4307 10.1687 11.5162 10.2159 11.6018L10.4115 11.9569C10.4738 12.0697 10.5369 12.1817 10.5992 12.2946C10.6301 12.3508 10.6603 12.4078 10.6913 12.4641L10.8 12.6615C10.809 12.6787 10.817 12.6962 10.8205 12.7092C10.8292 12.7266 10.8342 12.7456 10.8353 12.7651C10.8364 12.7846 10.8336 12.8041 10.8269 12.8224C10.8111 12.8717 10.7944 12.9205 10.7777 12.9695C10.7455 13.0627 10.7143 13.1559 10.6817 13.2489C10.6405 13.3677 10.5963 13.4863 10.5567 13.6052C10.5123 13.732 10.4682 13.8586 10.4246 13.9848C10.3762 14.1236 10.328 14.2625 10.2801 14.4016L10.1687 14.7274C10.135 14.8252 10.1004 14.9225 10.0667 15.0202C10.0172 15.162 9.96795 15.3038 9.91872 15.4455C9.9136 15.461 9.908 15.476 9.90202 15.491C9.89485 15.5118 9.88248 15.5304 9.8661 15.5447C9.84971 15.559 9.82994 15.5686 9.80883 15.5726C9.76912 15.5807 9.72942 15.5888 9.6898 15.5962L9.53107 15.623C9.49538 15.6288 9.45647 15.634 9.42354 15.6389C9.39061 15.6438 9.35808 15.65 9.32554 15.656C9.25732 15.6678 9.19226 15.6804 9.12081 15.6922C9.04944 15.7041 8.97752 15.7142 8.90615 15.726C8.86644 15.733 8.82674 15.742 8.78712 15.7489C8.76412 15.753 8.74025 15.7554 8.71725 15.7591L8.49786 15.7949C8.47131 15.7994 8.44468 15.8051 8.41853 15.8101L8.20418 15.8474C8.17488 15.8528 8.1451 15.8565 8.11541 15.8613C8.05073 15.8719 7.98362 15.8821 7.91697 15.8935C7.84397 15.9074 7.77094 15.9213 7.69834 15.9343L7.61903 15.9477L7.32024 15.9961C7.29154 16.0035 7.26123 16.0003 7.23462 15.987C7.20801 15.9737 7.18675 15.9513 7.17461 15.9237C7.1266 15.8402 7.08021 15.7554 7.0326 15.6719C6.93844 15.5071 6.84416 15.3423 6.74973 15.1775C6.68228 15.0607 6.61503 14.9437 6.5481 14.8263C6.46281 14.6777 6.37831 14.5278 6.29301 14.3783L5.95814 13.7962C5.91331 13.7185 5.86686 13.639 5.82282 13.5625C5.77878 13.486 5.73553 13.4089 5.69228 13.3315C5.67661 13.3051 5.66766 13.275 5.66628 13.244C5.66489 13.213 5.67111 13.1822 5.68435 13.1544C5.69823 13.1267 5.71136 13.099 5.72405 13.0709C5.78912 12.9289 5.8539 12.7867 5.91845 12.6444C5.9728 12.5283 6.02438 12.4119 6.07715 12.2962C6.13507 12.1683 6.19385 12.0412 6.25178 11.9138C6.34356 11.7079 6.43612 11.5023 6.52949 11.2971C6.57472 11.1973 6.62036 11.0975 6.66519 10.9977L6.78743 10.7317C6.82737 10.6421 6.86783 10.5526 6.90882 10.4632C6.91674 10.4428 6.93029 10.4251 6.94782 10.4124C6.96536 10.3996 6.98614 10.3925 7.0076 10.3917C7.02189 10.3884 7.03618 10.3884 7.05006 10.3884L7.42378 10.3786V10.3745H7.67457C7.71424 10.3741 7.75391 10.3704 7.79358 10.3704C7.81407 10.369 7.83471 10.3707 7.85473 10.3753C7.87853 10.382 7.8998 10.3958 7.91587 10.415C7.93202 10.4341 7.94226 10.4577 7.94517 10.4829C7.96109 10.5623 7.97731 10.6478 7.99157 10.7207C8.00591 10.7937 8.02096 10.8666 8.03482 10.9395C8.04986 11.0189 8.06381 11.0987 8.07854 11.1781C8.08287 11.2021 8.08839 11.2258 8.09311 11.2494C8.11415 11.359 8.13604 11.4686 8.15668 11.5782C8.17252 11.6624 8.18725 11.7468 8.20269 11.831C8.21379 11.8897 8.2253 11.9488 8.2364 12.0074C8.24948 12.0774 8.26256 12.1471 8.27611 12.2172C8.27886 12.2314 8.28201 12.2457 8.28524 12.2599C8.29241 12.2884 8.30872 12.3135 8.33164 12.3312C8.35275 12.3472 8.37914 12.3542 8.40522 12.3508C8.43129 12.3474 8.45508 12.3338 8.4717 12.3128C8.4873 12.2923 8.49691 12.2675 8.49951 12.2417C8.50424 12.1821 8.50857 12.121 8.5133 12.0628C8.5181 12.0046 8.52243 11.9467 8.52763 11.8884C8.5352 11.7996 8.54347 11.7113 8.55064 11.6225C8.56056 11.5015 8.57009 11.3813 8.57963 11.2591C8.58561 11.1834 8.59152 11.1072 8.5979 11.0315C8.60066 10.9977 8.6046 10.9639 8.60743 10.9301C8.61649 10.8157 8.62484 10.7008 8.63398 10.5863C8.63752 10.5427 8.64194 10.4992 8.64509 10.4556C8.64698 10.4312 8.6558 10.4079 8.67045 10.3888C8.67841 10.3774 8.68857 10.3679 8.70031 10.3609C8.71212 10.3538 8.7252 10.3495 8.73875 10.3481C8.74655 10.3476 8.75435 10.3476 8.76207 10.3481L9.41999 10.335H9.45292ZM1.9534 7.44586C2.04464 7.4483 2.13632 7.45241 2.22757 7.45526C2.27002 7.45852 2.3129 7.4585 2.35535 7.4585C2.40573 7.46013 2.46089 7.46545 2.50652 7.46545C2.55214 7.46545 2.5982 7.46178 2.64383 7.46545C2.76047 7.47685 2.87952 7.47112 2.99855 7.47682C3.10567 7.4817 3.2128 7.48417 3.36396 7.48906C3.44291 7.4911 3.56593 7.49352 3.68852 7.49759C3.79247 7.50125 3.89643 7.50736 4.00077 7.51062C4.0952 7.51347 4.19006 7.5163 4.28449 7.5163C4.32692 7.51752 4.36935 7.5212 4.41219 7.5212C4.47289 7.52283 4.53205 7.5253 4.59197 7.5253C4.65823 7.52734 4.72411 7.53344 4.79036 7.53344C4.81791 7.53323 4.84501 7.54066 4.86876 7.555C4.89251 7.56934 4.91201 7.5901 4.92522 7.61494C4.99214 7.73061 5.05897 7.84627 5.12562 7.96194C5.19994 8.09199 5.27399 8.22195 5.34779 8.35174C5.357 8.36694 5.36524 8.38271 5.37241 8.39896C5.38514 8.42605 5.38874 8.45678 5.38272 8.48622C5.37669 8.51565 5.36138 8.54234 5.3391 8.56191C5.21729 8.67229 5.09465 8.78187 4.97284 8.89185C4.91532 8.94643 4.85541 9.00142 4.79629 9.05471L4.45465 9.36184L4.04562 9.73043C4.03154 9.74305 4.01826 9.75671 4.00592 9.77119C3.99282 9.78591 3.98302 9.80346 3.97731 9.82254C3.97162 9.84154 3.97011 9.86168 3.97292 9.88141C3.97574 9.90114 3.98284 9.91998 3.99362 9.93656C4.0044 9.95314 4.01865 9.96705 4.03531 9.97732C4.05213 9.98807 4.07117 9.99471 4.09093 9.99665C4.1107 9.99851 4.13066 9.99568 4.14917 9.98824C4.18527 9.97805 4.2202 9.9626 4.25471 9.94748L4.84983 9.68806L5.31648 9.48646L5.73943 9.30321C5.75398 9.29683 5.76915 9.29205 5.78467 9.2889C5.80707 9.2834 5.83053 9.28478 5.85221 9.29278C5.8739 9.30071 5.89287 9.31494 5.90683 9.33378C5.91688 9.34656 5.92593 9.36022 5.93383 9.37454C6.01741 9.51921 6.10084 9.66412 6.18416 9.80912C6.24605 9.91618 6.30881 10.0233 6.37071 10.1304C6.37864 10.1442 6.38612 10.1585 6.39286 10.1732C6.40209 10.1921 6.40725 10.2128 6.40787 10.2338C6.40848 10.2549 6.40458 10.276 6.39648 10.2954C6.3806 10.3325 6.36353 10.3687 6.34686 10.4054C6.27902 10.5516 6.21155 10.6982 6.14331 10.844C6.1076 10.9197 6.0707 10.9951 6.035 11.0709C5.98315 11.1819 5.93197 11.2942 5.88144 11.4078C5.80765 11.567 5.73582 11.7234 5.66004 11.8854C5.58426 12.0476 5.50688 12.2081 5.4311 12.371C5.37357 12.4932 5.318 12.6154 5.26047 12.7375C5.21366 12.8369 5.16569 12.9351 5.11808 13.0341C5.10593 13.0604 5.08691 13.0826 5.06315 13.0983C5.0394 13.1141 5.01181 13.1228 4.98353 13.1234C4.86292 13.1352 4.73992 13.1462 4.62089 13.1576C4.56893 13.1624 4.51575 13.1665 4.46219 13.1718C4.4372 13.1742 4.41217 13.1791 4.38719 13.1816C4.31023 13.1889 4.23486 13.1942 4.15155 13.2023C4.06823 13.2104 3.9853 13.2202 3.90238 13.2288C3.83175 13.2357 3.76545 13.2422 3.69006 13.2488C3.61469 13.2552 3.53893 13.2586 3.46397 13.2683C3.29494 13.2907 3.12506 13.3017 2.95523 13.318L2.62121 13.3502C2.54583 13.3575 2.47004 13.3632 2.39466 13.3706C2.30221 13.3795 2.20614 13.3905 2.11687 13.399C2.02761 13.4076 1.93797 13.4145 1.84831 13.4226C1.82463 13.4251 1.80073 13.4209 1.77916 13.4107C1.75759 13.4003 1.73911 13.3842 1.72569 13.364C1.7143 13.3485 1.70367 13.3323 1.69392 13.3156L1.40905 12.8268C1.35708 12.7368 1.30352 12.6471 1.25035 12.5571C1.171 12.4227 1.0916 12.2891 1.01225 12.1543C0.932905 12.0195 0.853586 11.8827 0.774238 11.747C0.718692 11.653 0.661927 11.5592 0.606381 11.4652C0.537746 11.3491 0.470309 11.2322 0.401674 11.1158C0.347317 11.0228 0.291725 10.9304 0.23697 10.8375C0.203647 10.7809 0.17076 10.7235 0.13704 10.6669C0.11006 10.6213 0.0818728 10.5764 0.0544958 10.5308C0.0415878 10.5106 0.0297945 10.4897 0.0191857 10.4681C0.0053602 10.4417 -0.00121366 10.412 0.000184367 10.382C0.00158445 10.3521 0.0108901 10.3231 0.0271093 10.2982C0.114662 10.1562 0.202988 10.0143 0.292128 9.8726C0.364334 9.75445 0.434565 9.63558 0.506373 9.51743C0.550812 9.44497 0.597253 9.37365 0.641691 9.30111C0.692477 9.21887 0.742093 9.13533 0.792087 9.0539C0.846434 8.96471 0.898417 8.88198 0.955946 8.78672C1.01347 8.69146 1.07059 8.59612 1.12811 8.50166C1.17691 8.42177 1.22655 8.34317 1.27535 8.26375C1.33407 8.16639 1.39401 8.06862 1.45313 7.97126L1.57214 7.77375C1.62081 7.69419 1.66972 7.61477 1.71892 7.53549C1.72566 7.5245 1.73285 7.51426 1.74039 7.50367C1.75197 7.48617 1.76748 7.4718 1.78562 7.46174C1.80378 7.45167 1.82407 7.44619 1.8447 7.44586H1.9534ZM11.148 7.84222C11.1936 7.84507 11.2393 7.84956 11.2849 7.8524C11.3603 7.85729 11.4357 7.86094 11.5115 7.86583C11.5789 7.87072 11.6463 7.87729 11.7138 7.88218L11.8602 7.89237C11.9546 7.89847 12.0491 7.90376 12.1435 7.91069C12.2772 7.92046 12.4113 7.92288 12.5446 7.93754C12.612 7.94486 12.6799 7.94571 12.7478 7.94978C12.7604 7.95019 12.7728 7.95302 12.7855 7.95302C12.803 7.95344 12.82 7.95857 12.835 7.96794C12.8498 7.97731 12.8621 7.99062 12.8704 8.0064C12.8874 8.03531 12.904 8.06466 12.92 8.09434C12.9703 8.18806 13.0199 8.28179 13.0703 8.37543C13.1056 8.44061 13.1417 8.50498 13.177 8.57008L13.2818 8.76561C13.3326 8.85893 13.3854 8.95621 13.4337 9.04541C13.4822 9.13461 13.5298 9.2238 13.5782 9.313L13.7321 9.59813L13.9274 9.95896C13.9432 9.98872 13.9572 10.0197 13.975 10.0482C13.9969 10.0845 14.0048 10.128 13.9972 10.1699C13.9945 10.186 13.9907 10.2018 13.9857 10.2172C13.9473 10.3475 13.9087 10.4776 13.8698 10.6074C13.8238 10.7605 13.777 10.9133 13.7317 11.0668C13.6754 11.2558 13.6203 11.4465 13.5639 11.6371C13.5301 11.7503 13.4957 11.8631 13.4616 11.9759C13.4373 12.0595 13.4136 12.141 13.389 12.2224C13.3783 12.2595 13.3672 12.297 13.3544 12.3336C13.3489 12.3482 13.3412 12.362 13.3318 12.3743C13.3262 12.3822 13.3189 12.3887 13.3106 12.3933C13.3022 12.3978 13.2929 12.4005 13.2834 12.4008C13.1985 12.4074 13.1136 12.415 13.0287 12.422C12.9304 12.4302 12.8307 12.4399 12.7319 12.446C12.6105 12.4542 12.4902 12.4705 12.3685 12.4733C12.2978 12.475 12.2272 12.4856 12.1566 12.492L12.0669 12.4981L11.8685 12.5124L11.7272 12.5254L11.4158 12.5503L11.35 12.5564H11.3261C11.309 12.5586 11.2916 12.5559 11.2758 12.5487C11.26 12.5416 11.2464 12.5302 11.2365 12.5156C11.2268 12.5028 11.2183 12.4891 11.2106 12.4749L10.9203 11.9516C10.8361 11.8001 10.7521 11.6477 10.6679 11.4958L10.4382 11.0824L10.2104 10.6751C10.1687 10.6022 10.1275 10.5248 10.0894 10.4556C10.0514 10.3863 10.0151 10.3166 9.97551 10.2481C9.96015 10.2236 9.95109 10.1955 9.94912 10.1664C9.94708 10.1374 9.9522 10.1082 9.96401 10.0816C10.0319 9.91384 10.0978 9.74596 10.1648 9.57776C10.1886 9.51791 10.212 9.45799 10.2362 9.39815C10.2404 9.38594 10.2456 9.37413 10.2517 9.36273C10.2599 9.34397 10.2745 9.32885 10.2927 9.32044C10.311 9.31195 10.3317 9.31057 10.3509 9.31672C10.3631 9.31971 10.3749 9.32416 10.3862 9.32974C10.4707 9.37041 10.5509 9.40915 10.6393 9.45193C10.7278 9.49463 10.8175 9.53538 10.9063 9.57614L11.3563 9.79076C11.4309 9.82618 11.5055 9.86047 11.5801 9.89508C11.5857 9.89799 11.5916 9.90058 11.5976 9.90284C11.6102 9.90963 11.6244 9.91287 11.6387 9.9123C11.653 9.91165 11.667 9.90713 11.679 9.89928C11.6911 9.89136 11.7008 9.88036 11.7075 9.86734C11.7141 9.85432 11.7172 9.83968 11.7165 9.82505C11.7184 9.80402 11.7156 9.78275 11.7083 9.76302C11.701 9.74329 11.6894 9.72542 11.6744 9.71094C11.6007 9.64002 11.5277 9.56838 11.4543 9.49713C11.3115 9.35812 11.1682 9.21903 11.0246 9.08002L10.6489 8.7175C10.626 8.6976 10.6063 8.67423 10.5902 8.64828C10.579 8.63024 10.5723 8.60962 10.5707 8.58835C10.5691 8.567 10.5726 8.54566 10.581 8.52609C10.6016 8.4711 10.623 8.41692 10.6449 8.36322C10.6805 8.27322 10.7167 8.18353 10.7524 8.09353L10.8246 7.90864C10.8296 7.89461 10.8355 7.88097 10.8425 7.86789C10.8485 7.85561 10.8578 7.8453 10.8692 7.83811C10.8806 7.83092 10.8938 7.8271 10.9072 7.82714C10.9103 7.82694 10.9135 7.82694 10.9166 7.82714L11.148 7.84222ZM6.85713 4.86603C6.969 4.87255 7.08007 4.88682 7.19115 4.90148C7.21613 4.90522 7.24131 4.90756 7.26654 4.90843C7.32485 4.90966 7.3824 4.91857 7.44032 4.92549C7.52206 4.93567 7.60345 4.94384 7.68518 4.95321C7.7915 4.96583 7.89783 4.9789 8.00449 4.99111L8.29139 5.02286L8.72386 5.07135C8.78184 5.07787 8.83982 5.08437 8.89811 5.09007C8.9453 5.0947 8.99107 5.10935 9.0325 5.13303C9.07394 5.15672 9.11017 5.18895 9.13893 5.22771C9.17083 5.27192 9.19935 5.31864 9.22424 5.36742C9.28931 5.48024 9.35319 5.59391 9.41708 5.70754C9.49641 5.849 9.57573 5.9906 9.65506 6.13233L9.85664 6.48913C9.91297 6.5885 9.96858 6.68833 10.0249 6.78771L10.1955 7.09033C10.2244 7.14206 10.2555 7.19296 10.2828 7.2459C10.3121 7.29808 10.3293 7.35643 10.3333 7.41648C10.3372 7.47653 10.3279 7.53675 10.3058 7.59251C10.259 7.71469 10.2114 7.83692 10.1642 7.9591C10.1073 8.10518 10.0504 8.2509 9.99316 8.39613C9.95031 8.50611 9.90666 8.61528 9.86381 8.72486C9.81489 8.85141 9.76581 8.97781 9.71666 9.10404C9.69563 9.15903 9.67373 9.21289 9.65269 9.26699C9.61543 9.36273 9.57857 9.45759 9.54123 9.55212C9.51996 9.61204 9.48065 9.66339 9.4289 9.69873C9.39085 9.72485 9.34618 9.73892 9.30033 9.73941C9.24842 9.73941 9.19643 9.73989 9.14444 9.74353C9.02305 9.75251 8.90402 9.7496 8.78507 9.75243C8.67872 9.75494 8.57309 9.75655 8.46753 9.76189C8.30053 9.77079 8.13305 9.76715 7.96605 9.77281C7.87798 9.77572 7.79267 9.77814 7.70103 9.7834C7.60939 9.78874 7.51655 9.78874 7.42332 9.78874C7.34952 9.79035 7.27527 9.79124 7.20108 9.79448C7.13692 9.79885 7.0728 9.78518 7.01568 9.75494C6.95854 9.72461 6.91054 9.67884 6.8769 9.62256C6.83564 9.5594 6.80035 9.4922 6.76266 9.42662C6.6968 9.31122 6.63065 9.19542 6.56426 9.07921L6.33139 8.67189C6.21474 8.47013 6.09834 8.26796 5.98222 8.06539C5.90604 7.93303 5.83106 7.79982 5.75528 7.66745C5.69775 7.56686 5.64022 7.46627 5.5815 7.3665C5.55545 7.32403 5.53656 7.27735 5.52558 7.22845C5.50494 7.13912 5.51677 7.04506 5.55888 6.96406C5.63744 6.81297 5.71994 6.66309 5.79929 6.51281C5.85205 6.41302 5.90482 6.31034 5.95799 6.20933C5.9941 6.14172 6.03065 6.07287 6.06715 6.00566C6.10365 5.93847 6.13935 5.87 6.17585 5.802L6.37425 5.43138C6.42106 5.34341 6.46758 5.25511 6.51388 5.16659C6.54124 5.11528 6.5671 5.06357 6.59527 5.01307C6.61926 4.96422 6.65713 4.92403 6.70389 4.89777C6.75065 4.87151 6.8041 4.86042 6.85713 4.86603ZM10.4188 3.09106C10.4517 3.09514 10.4842 3.10084 10.5172 3.10655C10.5731 3.11551 10.6267 3.12448 10.685 3.13466C10.7433 3.14484 10.8032 3.15622 10.8624 3.16641L11.1095 3.20715L11.4178 3.25564C11.4829 3.26624 11.5488 3.27559 11.6139 3.28699C11.6991 3.30206 11.7844 3.31915 11.8697 3.33422C11.9677 3.35132 12.0657 3.3668 12.1637 3.3835C12.1883 3.38757 12.2133 3.39329 12.238 3.39858C12.2642 3.40564 12.2868 3.42255 12.3014 3.44588C12.3124 3.46184 12.3224 3.47842 12.3316 3.49556C12.439 3.68997 12.5464 3.88411 12.6538 4.07797C12.7355 4.22582 12.8205 4.37657 12.8998 4.52116C12.9791 4.66574 13.0584 4.80789 13.1378 4.95084C13.1957 5.05471 13.2549 5.1578 13.3128 5.26206C13.3386 5.30808 13.3627 5.35573 13.3873 5.40255C13.3956 5.41825 13.4005 5.43561 13.4015 5.45341C13.4025 5.47121 13.3998 5.48904 13.3934 5.50561C13.3414 5.65998 13.291 5.81518 13.2402 5.97036C13.2199 6.03226 13.2005 6.09335 13.1802 6.15444C13.1486 6.25097 13.1152 6.34954 13.0839 6.44403C13.0525 6.53851 13.022 6.63423 12.9906 6.72912C12.933 6.90398 12.8751 7.07873 12.8172 7.25333C12.8109 7.27288 12.8049 7.2937 12.7986 7.31366C12.7974 7.32303 12.7942 7.33205 12.7895 7.3402C12.7849 7.34834 12.7787 7.35545 12.7713 7.36113C12.7639 7.3668 12.7556 7.37095 12.7467 7.37328C12.7377 7.37561 12.7284 7.37609 12.7192 7.37471H12.6105C12.5098 7.37104 12.4086 7.36861 12.3078 7.36413C12.1868 7.35883 12.0634 7.35151 11.9443 7.3458C11.8023 7.33888 11.6607 7.3332 11.519 7.32709C11.4825 7.32505 11.4464 7.32504 11.4099 7.32504C11.2556 7.32218 11.1012 7.31081 10.9473 7.30103C10.9284 7.29961 10.9094 7.29961 10.8905 7.30103C10.8662 7.30351 10.8418 7.29825 10.8205 7.28602C10.7992 7.27378 10.7821 7.25511 10.7715 7.23256C10.7517 7.19551 10.7298 7.15967 10.7091 7.12342L10.489 6.73243C10.4608 6.68193 10.4319 6.6318 10.404 6.58089C10.3966 6.5668 10.3906 6.55192 10.3862 6.53651C10.3803 6.5179 10.3796 6.49791 10.3844 6.47894C10.3891 6.45997 10.3989 6.44275 10.4129 6.42934L10.5402 6.29904L10.7223 6.11496L11.2282 5.60417C11.2329 5.5997 11.2369 5.59481 11.2421 5.59075C11.3118 5.53046 11.2651 5.42492 11.2051 5.396C11.195 5.39142 11.1841 5.38906 11.173 5.38905C11.162 5.38905 11.151 5.3914 11.1409 5.396L11.0699 5.42293L10.61 5.59888L10.1176 5.78541C10.1013 5.79192 10.0847 5.79684 10.0684 5.80294C10.0493 5.81119 10.0281 5.81282 10.008 5.8076C9.98788 5.80238 9.96992 5.79062 9.95684 5.77404C9.9366 5.74894 9.91903 5.72158 9.90454 5.69254C9.82521 5.55242 9.74581 5.41229 9.66648 5.27217C9.62678 5.2005 9.58715 5.12839 9.54745 5.05753C9.53422 5.03633 9.52666 5.01193 9.52555 4.98677C9.52445 4.9616 9.52981 4.93656 9.54107 4.9142C9.6178 4.7453 9.69421 4.57748 9.77038 4.41076C9.86247 4.20344 9.95495 3.9961 10.0482 3.78878C10.1342 3.59872 10.2197 3.40867 10.3049 3.2186C10.3176 3.1905 10.3303 3.16276 10.3426 3.13466C10.3482 3.11932 10.359 3.10655 10.3729 3.09857C10.3869 3.09059 10.4031 3.0879 10.4188 3.09106ZM1.90909 1.54576C1.93303 1.53677 1.95902 1.53527 1.98378 1.54149C2.04568 1.55208 2.10441 1.56554 2.16472 1.57695C2.18336 1.58061 2.2024 1.58144 2.22103 1.58469C2.2943 1.59853 2.3672 1.61213 2.43966 1.62543C2.48172 1.63317 2.523 1.64336 2.56505 1.6511C2.69043 1.67472 2.81663 1.69711 2.94201 1.72115C3.00747 1.73418 3.07375 1.74927 3.1404 1.7619C3.24118 1.78063 3.34235 1.79772 3.44312 1.81686C3.51613 1.8303 3.58837 1.8458 3.66098 1.86006C3.68596 1.86495 3.71094 1.86814 3.73552 1.87262C3.7994 1.88402 3.86289 1.89468 3.92677 1.90649C3.96207 1.91301 3.99738 1.92154 4.03309 1.92805C4.1045 1.94109 4.17599 1.95287 4.24741 1.96509L4.32672 1.98017C4.45369 2.00502 4.58069 2.03072 4.70805 2.05393C4.73699 2.05804 4.76456 2.06919 4.78844 2.08647C4.81232 2.10376 4.83181 2.12667 4.84529 2.15328C4.92901 2.30725 5.01516 2.45999 5.10047 2.61313C5.16275 2.72391 5.22544 2.83472 5.28694 2.94591C5.38216 3.11738 5.4762 3.28965 5.57142 3.46112C5.63384 3.57381 5.69636 3.68639 5.75905 3.79881L5.97214 4.18253C6.02966 4.28638 6.08718 4.38741 6.1443 4.49004C6.14986 4.49981 6.15502 4.50996 6.15977 4.52013C6.16942 4.53794 6.17454 4.55802 6.17454 4.57841C6.17454 4.59879 6.16942 4.61881 6.15977 4.63661C6.1439 4.66634 6.12687 4.69567 6.11061 4.72498L5.87929 5.13761C5.84755 5.19381 5.81423 5.24881 5.78328 5.30543C5.77131 5.32954 5.7511 5.34833 5.72651 5.35809C5.70191 5.36786 5.67463 5.36798 5.64997 5.35841C5.61302 5.34448 5.57696 5.32815 5.54203 5.30953L5.25871 5.16454C5.13174 5.09937 4.99926 5.03089 4.87745 4.9698C4.75565 4.9087 4.63346 4.848 4.51166 4.7865L4.09224 4.57186C4.07833 4.56438 4.06403 4.55769 4.04939 4.55188C4.03532 4.54651 4.02031 4.54413 4.00531 4.54485C3.99032 4.54557 3.9756 4.54937 3.96208 4.55607C3.94855 4.56275 3.9365 4.57226 3.92661 4.58386C3.91674 4.59545 3.9092 4.60895 3.90453 4.62358C3.89861 4.64217 3.89773 4.66208 3.90192 4.68115C3.90611 4.70023 3.91526 4.71776 3.92839 4.73194C3.94306 4.74994 3.95953 4.76634 3.97754 4.78082L4.44657 5.21911C4.57472 5.33884 4.70245 5.4594 4.83099 5.57913C4.90796 5.65123 4.9858 5.72249 5.06277 5.79418C5.12784 5.85609 5.19328 5.91643 5.25755 5.97833C5.27321 5.99375 5.28662 6.01144 5.29725 6.03086C5.30948 6.05473 5.31509 6.08163 5.31348 6.10856C5.31187 6.13548 5.30308 6.16143 5.28809 6.18358L5.12585 6.46867C5.06951 6.56805 5.01356 6.66788 4.95761 6.76726C4.94015 6.79822 4.9215 6.82839 4.90484 6.85934C4.89561 6.87928 4.88085 6.896 4.86245 6.90743C4.84405 6.91887 4.82279 6.92447 4.80129 6.92362H4.76275L4.68343 6.91715C4.54814 6.90737 4.41319 6.8923 4.2771 6.88864C4.23943 6.88782 4.20175 6.88211 4.16447 6.87885C4.0764 6.87029 3.98869 6.86179 3.90061 6.85405C3.85182 6.84998 3.80261 6.85075 3.75421 6.84465C3.70155 6.83792 3.64857 6.83395 3.59552 6.83281C3.57053 6.8324 3.54511 6.82673 3.52012 6.82673C3.48402 6.82428 3.44745 6.82303 3.41135 6.82017C3.37526 6.81733 3.33958 6.81286 3.30349 6.8092L3.23756 6.80312L3.05825 6.78842C3.03643 6.7868 3.01421 6.78353 2.99239 6.78353L2.83369 6.77089L2.80984 6.76805L2.48413 6.74767C2.47793 6.74809 2.47171 6.74809 2.46551 6.74767C2.39369 6.73737 2.32129 6.73114 2.24881 6.72896C2.21113 6.72489 2.17346 6.71918 2.13618 6.71593C2.05286 6.7086 1.96949 6.70252 1.88578 6.69682C1.86214 6.69533 1.83893 6.68964 1.81716 6.68008C1.78739 6.66722 1.76282 6.64421 1.74769 6.61492C1.68976 6.50944 1.62947 6.40436 1.57076 6.29928C1.48148 6.1388 1.39023 5.97379 1.30374 5.81779C1.21725 5.6618 1.13112 5.505 1.04502 5.34901L0.880787 5.05335C0.763608 4.84263 0.646278 4.63177 0.528837 4.42078L0.300282 4.01345C0.278462 3.97395 0.255855 3.93604 0.234432 3.89531C0.227316 3.88127 0.221226 3.86668 0.216199 3.85172C0.20783 3.83064 0.205333 3.80759 0.209045 3.78515C0.212761 3.76269 0.222507 3.74172 0.237201 3.72465C0.299095 3.64564 0.360334 3.56541 0.420906 3.48394C0.503037 3.37642 0.584022 3.26687 0.666154 3.15811C0.755027 3.03999 0.845079 2.92346 0.933559 2.80534C1.05535 2.64407 1.17555 2.48361 1.29736 2.3207C1.40316 2.1814 1.50903 2.04208 1.61483 1.90278C1.68836 1.80586 1.76162 1.70861 1.83462 1.61115L1.84931 1.59203C1.86432 1.57087 1.88513 1.55475 1.90909 1.54576ZM6.53272 0.0067607C6.54959 -0.00060569 6.56838 -0.00200007 6.5861 0.00281214L6.7325 0.0370067L6.9349 0.085495L7.14199 0.134773L7.47332 0.216272L7.79389 0.294454C7.90303 0.320929 8.01213 0.346173 8.12084 0.37224C8.18748 0.388125 8.25334 0.404831 8.3192 0.421123L8.63225 0.496067L8.72867 0.520469C8.74978 0.525371 8.76971 0.535007 8.78688 0.548662C8.80398 0.562316 8.818 0.579694 8.82784 0.59952C8.8718 0.678806 8.91599 0.75916 8.96042 0.840616C9.04826 0.998112 9.13554 1.15562 9.22227 1.3131C9.29844 1.45118 9.37423 1.58972 9.4504 1.72739C9.52579 1.86152 9.60094 1.99643 9.67578 2.13219C9.74281 2.25194 9.80835 2.37208 9.87421 2.49183C9.90194 2.54233 9.93045 2.59287 9.95866 2.64377V2.64788C9.97866 2.6718 9.99024 2.70202 9.99135 2.73356C9.99245 2.76509 9.983 2.79607 9.96464 2.82138C9.90091 2.96041 9.83687 3.0996 9.77259 3.2389C9.71359 3.36569 9.65435 3.49264 9.59487 3.6197C9.53973 3.73782 9.48333 3.85592 9.42819 3.97405C9.3821 4.07342 9.33697 4.17325 9.29088 4.27264C9.26788 4.32231 9.24409 4.37198 9.22109 4.42126C9.20321 4.46199 9.18296 4.50278 9.1635 4.54351C9.15878 4.55366 9.15366 4.56343 9.14932 4.5736C9.14247 4.59294 9.12916 4.60919 9.11183 4.61947C9.0945 4.62976 9.07417 4.63345 9.0544 4.62983L8.97901 4.62043C8.84139 4.6025 8.7037 4.58505 8.56639 4.56672C8.50211 4.55817 8.4383 4.54834 8.37402 4.54019C8.35189 4.538 8.33062 4.53003 8.31242 4.51705C8.29415 4.50409 8.27941 4.48657 8.26965 4.46611C8.26059 4.44914 8.25397 4.43087 8.25011 4.41194C8.23506 4.34067 8.22207 4.27059 8.20773 4.19769C8.19347 4.12478 8.17795 4.05185 8.1633 3.97894C8.13912 3.86001 8.11604 3.74108 8.09146 3.62215C8.07673 3.54924 8.06018 3.4767 8.04467 3.40379C8.04112 3.38669 8.03907 3.36878 8.03553 3.35127C8.01883 3.27226 8.00181 3.19076 7.98511 3.10931C7.97125 3.0462 7.95896 2.98594 7.94541 2.92404C7.94108 2.90259 7.93162 2.88258 7.91776 2.86592C7.9039 2.84926 7.88609 2.83645 7.86612 2.82872C7.85519 2.82276 7.84303 2.81953 7.83066 2.81924C7.81827 2.81897 7.80599 2.82168 7.79481 2.82715C7.78364 2.8326 7.77386 2.84065 7.76627 2.85068C7.75867 2.86071 7.75343 2.87248 7.75103 2.88495C7.74835 2.89425 7.7465 2.90382 7.7455 2.91346C7.74153 2.95214 7.73792 2.99086 7.73395 3.02955C7.7161 3.19857 7.69787 3.3676 7.68041 3.53662C7.67486 3.58956 7.67127 3.64295 7.66611 3.6963C7.65976 3.75901 7.65223 3.82131 7.64549 3.88402C7.63994 3.93574 7.6348 3.98708 7.62964 4.0388C7.62012 4.13207 7.61095 4.2258 7.60102 4.31907C7.59807 4.33651 7.5937 4.35371 7.58795 4.3704C7.58463 4.38308 7.57777 4.39449 7.56817 4.40317C7.55859 4.41187 7.54669 4.4174 7.53402 4.41921C7.51216 4.42206 7.49003 4.42205 7.46817 4.41921C7.39318 4.41065 7.31816 4.39968 7.24277 4.38991C7.14557 4.37687 7.0456 4.36504 6.94721 4.352C6.88928 4.34426 6.83173 4.33414 6.77382 4.32681C6.751 4.32408 6.72914 4.31567 6.71019 4.30233C6.69125 4.28899 6.6758 4.27108 6.66511 4.2502C6.61552 4.16183 6.56668 4.07303 6.51787 3.98423L6.38379 3.73981C6.30682 3.5978 6.22742 3.4527 6.14569 3.30444C6.06396 3.15619 5.98249 3.00818 5.90129 2.86047C5.84257 2.75512 5.78408 2.64945 5.72589 2.54355C5.67392 2.44786 5.62238 2.35295 5.57081 2.25847C5.50813 2.14851 5.44901 2.03937 5.3891 1.929C5.38023 1.91034 5.37402 1.89043 5.37079 1.86994C5.36855 1.85627 5.36903 1.84228 5.3721 1.82879C5.37516 1.81529 5.38074 1.80252 5.38864 1.79128C5.41839 1.74526 5.44737 1.69926 5.47672 1.65284C5.56771 1.50703 5.65911 1.36147 5.75089 1.21621C5.81517 1.1148 5.88064 1.01296 5.94491 0.91114C5.99768 0.827232 6.05052 0.742495 6.10369 0.658591L6.41079 0.174259C6.43339 0.138837 6.4552 0.103385 6.47741 0.0679631C6.48216 0.0598279 6.48772 0.0516968 6.49287 0.0435613C6.50179 0.0270964 6.51583 0.0141372 6.53272 0.0067607Z" fill="#E65713"/>
</svg>
