<svg width="75" height="50" viewBox="0 0 75 50" fill="none" xmlns="http://www.w3.org/2000/svg">
<rect x="-0.39375" y="0.39375" width="73.6125" height="48.4125" rx="24.2063" transform="matrix(-1 0 0 1 73.6125 0)" fill="white" fill-opacity="0.1"/>
<rect x="-0.39375" y="0.39375" width="73.6125" height="48.4125" rx="24.2063" transform="matrix(-1 0 0 1 73.6125 0)" stroke="url(#paint0_linear_618_2510)" stroke-width="0.7875"/>
<path d="M39.4348 22.7621L48.1772 12.5996H46.1053L38.5146 21.4234L32.4516 12.5996H25.4586L34.627 25.9429L25.4586 36.5996H27.5305L35.5468 27.2814L41.9496 36.5996H48.9426L39.4343 22.7621H39.4348ZM36.5972 26.0602L35.6682 24.7316L28.2769 14.1592H31.4592L37.4237 22.6916L38.3526 24.0202L46.1063 35.1109H42.9244L36.5972 26.0608V26.0602Z" fill="white"/>
<defs>
<linearGradient id="paint0_linear_618_2510" x1="38.44" y1="-18.45" x2="37.5927" y2="82.0033" gradientUnits="userSpaceOnUse">
<stop stop-color="white" stop-opacity="0.4"/>
<stop offset="0.5" stop-color="#E55812" stop-opacity="0.39"/>
<stop offset="1" stop-color="white" stop-opacity="0.34"/>
</linearGradient>
</defs>
</svg>
