<svg width="75" height="50" viewBox="0 0 75 50" fill="none" xmlns="http://www.w3.org/2000/svg">
<rect x="-0.39375" y="0.39375" width="73.6125" height="48.4125" rx="24.2063" transform="matrix(-1 0 0 1 73.6125 0)" fill="white" fill-opacity="0.1"/>
<rect x="-0.39375" y="0.39375" width="73.6125" height="48.4125" rx="24.2063" transform="matrix(-1 0 0 1 73.6125 0)" stroke="url(#paint0_linear_618_2504)" stroke-width="0.7875"/>
<path d="M44.2516 17.5097C43.3346 16.5838 42.2426 15.8496 41.0391 15.35C39.8356 14.8504 38.5446 14.5953 37.2416 14.5997C31.7816 14.5997 27.3316 19.0497 27.3316 24.5097C27.3316 26.2597 27.7916 27.9597 28.6516 29.4597L27.2516 34.5997L32.5016 33.2197C33.9516 34.0097 35.5816 34.4297 37.2416 34.4297C42.7016 34.4297 47.1516 29.9797 47.1516 24.5197C47.1516 21.8697 46.1216 19.3797 44.2516 17.5097ZM37.2416 32.7497C35.7616 32.7497 34.3116 32.3497 33.0416 31.5997L32.7416 31.4197L29.6216 32.2397L30.4516 29.1997L30.2516 28.8897C29.4291 27.5767 28.9925 26.0589 28.9916 24.5097C28.9916 19.9697 32.6916 16.2697 37.2316 16.2697C39.4316 16.2697 41.5016 17.1297 43.0516 18.6897C43.8192 19.4535 44.4275 20.3622 44.8412 21.363C45.2549 22.3638 45.4658 23.4367 45.4616 24.5197C45.4816 29.0597 41.7816 32.7497 37.2416 32.7497ZM41.7616 26.5897C41.5116 26.4697 40.2916 25.8697 40.0716 25.7797C39.8416 25.6997 39.6816 25.6597 39.5116 25.8997C39.3416 26.1497 38.8716 26.7097 38.7316 26.8697C38.5916 27.0397 38.4416 27.0597 38.1916 26.9297C37.9416 26.8097 37.1416 26.5397 36.2016 25.6997C35.4616 25.0397 34.9716 24.2297 34.8216 23.9797C34.6816 23.7297 34.8016 23.5997 34.9316 23.4697C35.0416 23.3597 35.1816 23.1797 35.3016 23.0397C35.4216 22.8997 35.4716 22.7897 35.5516 22.6297C35.6316 22.4597 35.5916 22.3197 35.5316 22.1997C35.4716 22.0797 34.9716 20.8597 34.7716 20.3597C34.5716 19.8797 34.3616 19.9397 34.2116 19.9297H33.7316C33.5616 19.9297 33.3016 19.9897 33.0716 20.2397C32.8516 20.4897 32.2116 21.0897 32.2116 22.3097C32.2116 23.5297 33.1016 24.7097 33.2216 24.8697C33.3416 25.0397 34.9716 27.5397 37.4516 28.6097C38.0416 28.8697 38.5016 29.0197 38.8616 29.1297C39.4516 29.3197 39.9916 29.2897 40.4216 29.2297C40.9016 29.1597 41.8916 28.6297 42.0916 28.0497C42.3016 27.4697 42.3016 26.9797 42.2316 26.8697C42.1616 26.7597 42.0116 26.7097 41.7616 26.5897Z" fill="white"/>
<defs>
<linearGradient id="paint0_linear_618_2504" x1="38.44" y1="-18.45" x2="37.5927" y2="82.0033" gradientUnits="userSpaceOnUse">
<stop stop-color="white" stop-opacity="0.4"/>
<stop offset="0.5" stop-color="#E55812" stop-opacity="0.39"/>
<stop offset="1" stop-color="white" stop-opacity="0.34"/>
</linearGradient>
</defs>
</svg>
