<svg width="963" height="380" viewBox="0 0 963 380" fill="none" xmlns="http://www.w3.org/2000/svg">
<mask id="path-1-inside-1_618_2548" fill="white">
<path d="M312.774 694.382C311.463 694.333 310.162 694.648 309.024 695.295C307.881 695.947 306.938 696.898 306.31 698.05C304.451 701.223 302.652 704.456 300.853 707.683L285.107 735.485L270.092 762.222C266.846 767.997 263.541 773.745 260.29 779.494L246.841 803.351C242.555 810.93 238.214 818.461 233.928 826.04C231.799 829.816 229.724 833.652 227.594 837.428L220.116 850.696C219.493 851.848 218.946 853.027 218.702 853.902C218.106 855.07 217.759 856.347 217.683 857.656C217.608 858.966 217.803 860.275 218.263 861.503C219.352 864.817 220.501 868.099 221.65 871.386C223.861 877.651 226.012 883.915 228.25 890.158C231.089 898.145 234.123 906.11 236.849 914.102C239.905 922.621 242.934 931.124 245.936 939.606C249.268 948.929 252.579 958.263 255.874 967.608L263.541 989.499C265.86 996.068 268.239 1002.6 270.558 1009.17C273.961 1018.7 277.347 1028.22 280.734 1037.75C281.086 1038.78 281.471 1039.79 281.883 1040.8C282.376 1042.2 283.227 1043.45 284.354 1044.41C285.481 1045.37 286.841 1046.02 288.293 1046.28C291.024 1046.83 293.755 1047.37 296.48 1047.87L307.399 1049.67C309.853 1050.06 312.53 1050.41 314.795 1050.74C317.06 1051.07 319.298 1051.48 321.536 1051.89C326.228 1052.68 330.704 1053.53 335.619 1054.32C340.528 1055.12 345.475 1055.8 350.384 1056.59C353.115 1057.06 355.846 1057.66 358.572 1058.13C360.154 1058.4 361.796 1058.57 363.378 1058.82L378.469 1061.22C380.295 1061.52 382.126 1061.91 383.925 1062.24L398.669 1064.75C400.685 1065.11 402.733 1065.36 404.776 1065.68C409.225 1066.4 413.841 1067.08 418.425 1067.85C423.447 1068.78 428.47 1069.71 433.464 1070.58L438.92 1071.49L459.472 1074.74C461.446 1075.24 463.531 1075.02 465.362 1074.13C467.192 1073.24 468.654 1071.73 469.49 1069.87C472.792 1064.26 475.983 1058.57 479.258 1052.96C485.734 1041.88 492.219 1030.81 498.715 1019.73C503.355 1011.89 507.98 1004.03 512.584 996.144C518.451 986.157 524.263 976.09 530.131 966.044L553.165 926.935C556.249 921.709 559.444 916.373 562.473 911.233C565.502 906.088 568.478 900.91 571.453 895.711C572.53 893.934 573.146 891.913 573.241 889.832C573.337 887.751 572.909 885.681 571.998 883.812C571.043 881.948 570.14 880.09 569.267 878.199C564.792 868.659 560.335 859.107 555.895 849.544C552.157 841.748 548.608 833.924 544.979 826.149C540.995 817.559 536.951 809.018 532.967 800.455C526.653 786.628 520.287 772.811 513.864 759.021C510.753 752.317 507.614 745.612 504.53 738.908L496.122 721.038C493.375 715.018 490.592 709.003 487.772 702.999C487.227 701.625 486.295 700.435 485.089 699.582C483.882 698.723 482.454 698.245 480.978 698.191C479.995 697.968 479.012 697.968 478.056 697.968L452.35 697.311V697.039H435.1C432.371 697.012 429.642 696.762 426.913 696.762C425.504 696.664 424.084 696.778 422.707 697.088C421.07 697.539 419.607 698.468 418.501 699.756C417.391 701.043 416.686 702.63 416.486 704.32C415.391 709.655 414.275 715.398 413.294 720.299C412.308 725.2 411.273 730.1 410.319 734.996C409.284 740.331 408.325 745.694 407.312 751.029C407.014 752.643 406.635 754.235 406.31 755.821C404.863 763.183 403.356 770.545 401.937 777.907C400.848 783.569 399.834 789.236 398.772 794.897C398.008 798.842 397.217 802.808 396.453 806.747C395.554 811.452 394.654 816.135 393.722 820.841C393.533 821.797 393.316 822.759 393.094 823.715C392.601 825.627 391.479 827.312 389.902 828.502C388.45 829.577 386.635 830.045 384.841 829.816C383.048 829.588 381.411 828.675 380.268 827.268C379.195 825.888 378.534 824.226 378.355 822.487C378.03 818.488 377.732 814.381 377.407 810.469C377.076 806.557 376.778 802.672 376.421 798.755C375.9 792.789 375.332 786.85 374.838 780.885C374.156 772.757 373.5 764.683 372.844 756.473C372.433 751.382 372.026 746.264 371.587 741.179C371.398 738.908 371.127 736.636 370.932 734.365C370.309 726.677 369.734 718.957 369.106 711.269C368.862 708.34 368.558 705.412 368.342 702.483C368.211 700.848 367.605 699.283 366.597 697.995C366.049 697.229 365.351 696.594 364.543 696.121C363.73 695.648 362.831 695.355 361.899 695.263C361.362 695.23 360.826 695.23 360.295 695.263L315.039 694.382H312.774ZM828.634 500.269C822.358 500.433 816.052 500.709 809.775 500.9C806.855 501.119 803.906 501.118 800.986 501.118C797.52 501.227 793.726 501.585 790.587 501.585C787.449 501.585 784.281 501.339 781.142 501.585C773.119 502.351 764.93 501.966 756.742 502.349C749.374 502.677 742.005 502.842 731.608 503.171C726.177 503.308 717.715 503.471 709.283 503.744C702.132 503.991 694.982 504.401 687.804 504.62C681.309 504.811 674.784 505.002 668.289 505.002C665.37 505.084 662.451 505.33 659.504 505.33C655.329 505.44 651.26 505.606 647.138 505.606C642.581 505.743 638.049 506.153 633.491 506.153C631.597 506.139 629.733 506.638 628.099 507.601C626.465 508.565 625.124 509.96 624.215 511.629C619.612 519.4 615.015 527.171 610.431 534.943C605.318 543.681 600.225 552.412 595.149 561.132C594.515 562.154 593.948 563.213 593.455 564.305C592.58 566.125 592.332 568.19 592.746 570.168C593.16 572.146 594.214 573.938 595.746 575.253C604.125 582.67 612.561 590.032 620.939 597.421C624.897 601.088 629.017 604.783 633.084 608.363L656.584 628.999L684.719 653.763C685.688 654.611 686.601 655.529 687.45 656.502C688.351 657.491 689.025 658.67 689.418 659.952C689.809 661.229 689.913 662.582 689.72 663.907C689.526 665.233 689.037 666.499 688.296 667.613C687.555 668.727 686.575 669.661 685.428 670.351C684.271 671.074 682.961 671.519 681.603 671.65C680.242 671.775 678.869 671.584 677.597 671.085C675.113 670.4 672.711 669.362 670.337 668.346L629.401 650.916L597.302 637.371L568.209 625.06C567.208 624.63 566.165 624.31 565.098 624.098C563.557 623.729 561.943 623.821 560.452 624.359C558.96 624.891 557.655 625.848 556.695 627.113C556.003 627.972 555.381 628.89 554.837 629.852C549.088 639.572 543.349 649.308 537.618 659.05C533.361 666.244 529.044 673.443 524.786 680.636C524.241 681.565 523.726 682.527 523.262 683.51C522.628 684.782 522.273 686.173 522.23 687.585C522.188 689.003 522.456 690.416 523.014 691.72C524.106 694.214 525.28 696.648 526.427 699.115C531.093 708.938 535.734 718.783 540.428 728.579C542.884 733.67 545.423 738.734 547.879 743.825C551.445 751.284 554.965 758.831 558.441 766.459C563.517 777.157 568.458 787.665 573.67 798.554C578.883 809.447 584.205 820.232 589.418 831.175C593.375 839.384 597.197 847.594 601.155 855.803C604.375 862.481 607.674 869.077 610.949 875.727C611.785 877.493 613.093 878.987 614.728 880.041C616.361 881.101 618.259 881.687 620.204 881.725C628.5 882.519 636.962 883.258 645.148 884.024C648.723 884.35 652.381 884.621 656.065 884.98C657.784 885.143 659.506 885.469 661.224 885.637C666.518 886.126 671.702 886.485 677.432 887.028C683.164 887.577 688.868 888.234 694.572 888.81C699.43 889.272 703.991 889.712 709.177 890.152C714.361 890.587 719.572 890.81 724.728 891.467C736.355 892.972 748.041 893.711 759.722 894.803L782.698 896.966C787.883 897.455 793.097 897.84 798.282 898.335C804.641 898.932 811.249 899.671 817.389 900.247C823.529 900.823 829.695 901.285 835.862 901.834C837.491 901.997 839.136 901.72 840.619 901.03C842.103 900.334 843.374 899.253 844.297 897.895C845.081 896.852 845.812 895.765 846.483 894.64L866.077 861.802C869.653 855.755 873.337 849.729 876.994 843.682C882.452 834.652 887.913 825.676 893.371 816.619C898.829 807.562 904.285 798.369 909.743 789.252C913.564 782.933 917.469 776.636 921.29 770.317C926.011 762.52 930.649 754.664 935.371 746.84C939.11 740.597 942.934 734.387 946.7 728.144C948.992 724.341 951.254 720.484 953.574 716.68C955.429 713.616 957.368 710.6 959.251 707.536C960.139 706.183 960.951 704.776 961.68 703.325C962.631 701.554 963.083 699.555 962.987 697.539C962.891 695.534 962.251 693.584 961.135 691.91C955.113 682.369 949.037 672.834 942.906 663.315C937.939 655.377 933.108 647.39 928.169 639.452C925.112 634.584 921.918 629.792 918.861 624.918C915.367 619.393 911.955 613.78 908.516 608.309C904.777 602.316 901.202 596.758 897.245 590.358C893.288 583.957 889.359 577.552 885.402 571.206C882.045 565.838 878.631 560.556 875.274 555.221C871.235 548.679 867.112 542.111 863.045 535.569L854.859 522.299C851.512 516.954 848.147 511.618 844.763 506.291C844.299 505.552 843.805 504.864 843.286 504.153C842.49 502.977 841.422 502.011 840.175 501.335C838.926 500.659 837.53 500.291 836.111 500.269H828.634ZM196.177 526.899C193.04 527.09 189.897 527.392 186.76 527.583C181.574 527.912 176.388 528.157 171.176 528.486C166.538 528.814 161.899 529.256 157.261 529.584L147.188 530.268C140.696 530.679 134.194 531.034 127.703 531.5C118.502 532.156 109.279 532.318 100.111 533.303C95.4729 533.796 90.8021 533.852 86.1367 534.126C85.2643 534.153 84.4136 534.343 83.5412 534.343C82.3383 534.372 81.1678 534.717 80.1383 535.346C79.1141 535.975 78.2743 536.87 77.7 537.93C76.5295 539.872 75.3862 541.844 74.2917 543.838C70.8292 550.135 67.4155 556.433 63.9476 562.724C61.5201 567.103 59.0384 571.428 56.6108 575.802L49.4041 588.94C45.9091 595.21 42.2787 601.746 38.9517 607.739C35.6193 613.731 32.341 619.724 29.014 625.717L18.4261 644.875L4.99347 669.118C3.90436 671.117 2.94525 673.198 1.72064 675.116C0.214233 677.556 -0.327576 680.473 0.192627 683.293C0.376831 684.369 0.642395 685.434 0.983765 686.466C3.62262 695.224 6.27771 703.966 8.95447 712.687C12.1189 722.972 15.3376 733.235 18.4532 743.553C22.3275 756.25 26.1205 769.062 29.9948 781.868C32.3193 789.475 34.6873 797.054 37.0336 804.633C38.7025 810.246 40.3389 815.723 42.0295 821.194C42.7664 823.688 43.5304 826.203 44.4082 828.664C44.7875 829.648 45.3131 830.572 45.9634 831.397C46.3481 831.93 46.8466 832.365 47.421 832.674C48.0007 832.979 48.6401 833.158 49.2903 833.18C55.1316 833.62 60.9728 834.136 66.8086 834.603C73.5764 835.152 80.431 835.804 87.2258 836.217C95.5759 836.765 103.85 837.863 112.227 838.053C117.088 838.162 121.943 838.874 126.803 839.308L132.969 839.716L146.613 840.677L156.334 841.552L177.754 843.22L182.284 843.633H183.926C185.102 843.78 186.299 843.6 187.383 843.117C188.472 842.639 189.409 841.873 190.092 840.895C190.753 840.031 191.344 839.113 191.869 838.156L211.842 802.998C217.629 792.816 223.411 782.58 229.198 772.371L245.004 744.596L260.669 717.234C263.535 712.334 266.369 707.134 268.992 702.483C271.609 697.827 274.102 693.143 276.827 688.547C277.884 686.901 278.507 685.01 278.642 683.054C278.783 681.103 278.431 679.142 277.618 677.36C272.948 666.086 268.418 654.807 263.806 643.505C262.17 639.485 260.561 635.459 258.897 631.438C258.605 630.618 258.247 629.825 257.83 629.059C257.266 627.798 256.264 626.782 255.007 626.217C253.75 625.646 252.324 625.554 251.008 625.967C250.168 626.168 249.355 626.467 248.575 626.842C242.766 629.575 237.25 632.177 231.165 635.051C225.08 637.92 218.913 640.659 212.801 643.397L181.85 657.817C176.719 660.196 171.588 662.5 166.456 664.826C166.066 665.021 165.665 665.195 165.253 665.347C164.386 665.803 163.406 666.021 162.425 665.983C161.439 665.939 160.48 665.635 159.651 665.108C158.821 664.576 158.15 663.837 157.694 662.962C157.239 662.087 157.023 661.104 157.071 660.12C156.941 658.708 157.136 657.279 157.635 655.953C158.139 654.627 158.935 653.427 159.965 652.454C165.037 647.689 170.06 642.875 175.11 638.089C184.934 628.749 194.785 619.404 204.668 610.064L230.509 585.707C232.081 584.37 233.441 582.8 234.546 581.056C235.315 579.844 235.776 578.459 235.89 577.03C235.998 575.596 235.754 574.161 235.18 572.846C233.76 569.152 232.286 565.512 230.786 561.904C228.331 555.857 225.844 549.831 223.389 543.784L218.42 531.362C218.079 530.419 217.673 529.503 217.19 528.624C216.779 527.799 216.139 527.106 215.354 526.623C214.568 526.14 213.663 525.883 212.742 525.886C212.525 525.872 212.308 525.872 212.091 525.886L196.177 526.899ZM491.328 326.936C483.633 327.374 475.992 328.333 468.352 329.318C466.633 329.57 464.901 329.727 463.166 329.785C459.155 329.868 455.196 330.466 451.212 330.931C445.59 331.615 439.991 332.164 434.369 332.794C427.056 333.642 419.742 334.52 412.405 335.34L392.671 337.473L362.923 340.731C358.935 341.169 354.947 341.606 350.937 341.989C347.691 342.3 344.543 343.284 341.693 344.875C338.843 346.467 336.35 348.632 334.372 351.237C332.178 354.207 330.216 357.346 328.504 360.623C324.028 368.203 319.634 375.841 315.24 383.476C309.783 392.98 304.326 402.493 298.87 412.016L285.004 435.988C281.13 442.665 277.304 449.372 273.43 456.049L261.693 476.382C259.705 479.857 257.57 483.277 255.689 486.834C253.674 490.34 252.492 494.26 252.216 498.295C251.945 502.33 252.59 506.376 254.107 510.122C257.326 518.331 260.599 526.543 263.85 534.752C267.762 544.566 271.68 554.357 275.613 564.115C278.561 571.504 281.563 578.839 284.511 586.201C287.876 594.704 291.251 603.196 294.633 611.678C296.079 615.372 297.586 618.991 299.033 622.626C301.596 629.059 304.131 635.432 306.7 641.783C308.163 645.809 310.867 649.259 314.427 651.634C317.044 653.389 320.116 654.334 323.27 654.367C326.841 654.367 330.417 654.399 333.993 654.644C342.343 655.247 350.531 655.051 358.713 655.241C366.028 655.41 373.294 655.518 380.555 655.877C392.042 656.475 403.562 656.23 415.05 656.61C421.108 656.806 426.975 656.969 433.279 657.322C439.583 657.681 445.969 657.681 452.382 657.681C457.458 657.789 462.565 657.849 467.669 658.067C472.082 658.36 476.493 657.442 480.422 655.41C484.352 653.372 487.654 650.297 489.967 646.516C492.806 642.272 495.233 637.757 497.826 633.351C502.356 625.598 506.906 617.817 511.473 610.01L527.491 582.643C535.514 569.087 543.521 555.504 551.509 541.893C556.749 533 561.907 524.051 567.119 515.157C571.076 508.399 575.034 501.64 579.073 494.937C580.864 492.083 582.164 488.947 582.919 485.662C584.339 479.659 583.525 473.34 580.628 467.898C575.225 457.746 569.55 447.676 564.092 437.58C560.463 430.875 556.833 423.976 553.176 417.189C550.692 412.647 548.178 408.021 545.667 403.505C543.156 398.991 540.701 394.391 538.19 389.822L524.543 364.921C521.323 359.01 518.123 353.078 514.938 347.13C513.056 343.683 511.278 340.209 509.34 336.816C507.689 333.534 505.085 330.833 501.868 329.069C498.652 327.305 494.975 326.559 491.328 326.936ZM246.337 207.681C244.072 207.955 241.834 208.338 239.569 208.721C235.722 209.323 232.037 209.926 228.022 210.61C224.012 211.294 219.894 212.059 215.825 212.743L198.827 215.481L177.619 218.738C173.143 219.45 168.607 220.079 164.132 220.845C158.269 221.857 152.4 223.006 146.532 224.018C139.791 225.167 133.051 226.207 126.31 227.329C124.619 227.602 122.896 227.986 121.2 228.342C119.401 228.817 117.846 229.953 116.838 231.52C116.085 232.592 115.392 233.706 114.763 234.858C107.377 247.92 99.9865 260.963 92.601 273.988C86.9819 283.923 81.1353 294.051 75.6788 303.765C70.2223 313.479 64.7658 323.03 59.3093 332.635C55.3212 339.613 51.2519 346.539 47.2692 353.545C45.4973 356.637 43.8339 359.838 42.1432 362.984C41.5743 364.039 41.2384 365.205 41.168 366.401C41.0975 367.597 41.2871 368.795 41.726 369.908C45.3023 380.28 48.7701 390.707 52.2651 401.134C53.6577 405.293 54.9961 409.397 56.3887 413.502C58.567 419.987 60.8591 426.61 63.0156 432.958C65.1722 439.306 67.2746 445.737 69.4312 452.112C73.3976 463.861 77.3748 475.602 81.3575 487.333C81.7964 488.647 82.2028 490.046 82.6363 491.387C82.723 492.016 82.9398 492.622 83.2648 493.17C83.5845 493.717 84.0072 494.194 84.5165 494.576C85.0259 494.957 85.6002 495.236 86.2125 495.392C86.8303 495.549 87.4697 495.581 88.0982 495.488H95.5759C102.506 495.242 109.469 495.078 116.399 494.777C124.722 494.422 133.213 493.929 141.401 493.546C151.17 493.081 160.913 492.699 170.656 492.289C173.17 492.152 175.652 492.151 178.16 492.151C188.775 491.959 199.396 491.195 209.984 490.538C211.284 490.442 212.59 490.442 213.89 490.538C215.559 490.705 217.239 490.352 218.708 489.529C220.171 488.707 221.346 487.452 222.078 485.938C223.438 483.448 224.944 481.04 226.364 478.605L241.509 452.335C243.443 448.942 245.437 445.574 247.35 442.153C247.865 441.207 248.277 440.207 248.575 439.172C248.987 437.921 249.03 436.578 248.705 435.304C248.38 434.03 247.702 432.872 246.743 431.971L237.987 423.217L225.459 410.849L190.661 376.53C190.336 376.23 190.06 375.902 189.707 375.628C184.906 371.578 188.125 364.487 192.249 362.544C192.942 362.236 193.695 362.077 194.454 362.077C195.213 362.077 195.971 362.235 196.665 362.544L201.552 364.353L233.181 376.175L267.052 388.707C268.174 389.145 269.317 389.475 270.439 389.885C271.75 390.439 273.213 390.549 274.595 390.198C275.977 389.848 277.212 389.057 278.111 387.943C279.504 386.257 280.712 384.419 281.709 382.468C287.166 373.054 292.628 363.638 298.084 354.224C300.815 349.409 303.541 344.564 306.272 339.803C307.182 338.378 307.702 336.739 307.778 335.049C307.854 333.358 307.486 331.675 306.711 330.173C301.433 318.825 296.177 307.549 290.937 296.348C284.603 282.419 278.241 268.488 271.826 254.559C265.914 241.789 260.03 229.02 254.172 216.25C253.294 214.362 252.422 212.498 251.577 210.61C251.192 209.579 250.45 208.721 249.491 208.185C248.531 207.649 247.415 207.468 246.337 207.681ZM831.682 103.856C830.035 103.252 828.247 103.151 826.544 103.569C822.287 104.28 818.247 105.185 814.098 105.951C812.816 106.197 811.506 106.253 810.225 106.471C805.185 107.401 800.171 108.315 795.186 109.209C792.293 109.729 789.453 110.413 786.561 110.933C777.937 112.52 769.256 114.025 760.632 115.64C756.129 116.516 751.57 117.529 746.985 118.377C740.053 119.636 733.094 120.784 726.163 122.07C721.141 122.973 716.171 124.015 711.177 124.973C709.459 125.301 707.74 125.516 706.049 125.817C701.656 126.583 697.288 127.299 692.894 128.093C690.466 128.531 688.037 129.103 685.581 129.541C680.669 130.417 675.752 131.209 670.839 132.03L665.384 133.043C656.65 134.712 647.914 136.439 639.153 137.998C637.163 138.274 635.266 139.024 633.624 140.185C631.981 141.346 630.64 142.886 629.713 144.674C623.954 155.018 618.029 165.28 612.161 175.57C607.876 183.013 603.564 190.458 599.334 197.929C592.784 209.449 586.316 221.024 579.766 232.544C575.472 240.115 571.172 247.68 566.86 255.232L552.202 281.014C548.245 287.991 544.289 294.779 540.36 301.674C539.978 302.331 539.623 303.013 539.296 303.696C538.632 304.893 538.28 306.242 538.28 307.612C538.28 308.981 538.632 310.326 539.296 311.522C540.387 313.519 541.559 315.49 542.677 317.46L558.589 345.183C560.772 348.959 563.064 352.654 565.193 356.458C566.016 358.078 567.407 359.341 569.098 359.997C570.79 360.653 572.666 360.661 574.363 360.018C576.904 359.083 579.385 357.985 581.787 356.734L601.276 346.992C610.01 342.614 619.123 338.013 627.501 333.908C635.879 329.803 644.284 325.725 652.662 321.593L681.513 307.172C682.469 306.669 683.453 306.22 684.46 305.829C685.427 305.469 686.46 305.309 687.492 305.357C688.523 305.405 689.536 305.661 690.466 306.111C691.396 306.56 692.225 307.199 692.905 307.978C693.584 308.757 694.103 309.664 694.424 310.647C694.831 311.895 694.892 313.234 694.604 314.515C694.316 315.797 693.686 316.974 692.783 317.927C691.774 319.137 690.641 320.239 689.402 321.211L657.139 350.659C648.325 358.703 639.539 366.804 630.697 374.848C625.403 379.692 620.049 384.48 614.754 389.296C610.278 393.456 605.777 397.51 601.356 401.669C600.278 402.705 599.356 403.894 598.625 405.198C597.784 406.802 597.398 408.61 597.508 410.419C597.619 412.228 598.224 413.971 599.255 415.459L610.415 434.614C614.29 441.291 618.139 447.998 621.987 454.675C623.188 456.755 624.471 458.782 625.617 460.862C626.252 462.202 627.267 463.325 628.533 464.093C629.799 464.862 631.261 465.238 632.74 465.181H635.391L640.847 464.746C650.153 464.089 659.436 463.077 668.797 462.831C671.388 462.776 673.98 462.392 676.544 462.173C682.602 461.598 688.635 461.026 694.694 460.506C698.05 460.233 701.435 460.285 704.764 459.875C708.386 459.423 712.031 459.156 715.68 459.079C717.399 459.052 719.147 458.671 720.866 458.671C723.349 458.506 725.865 458.422 728.348 458.23C730.83 458.039 733.285 457.739 735.767 457.493L740.302 457.084L752.636 456.097C754.137 455.988 755.665 455.768 757.166 455.768L768.082 454.919L769.723 454.729L792.127 453.359C792.554 453.387 792.982 453.387 793.408 453.359C798.348 452.667 803.328 452.248 808.314 452.102C810.906 451.828 813.497 451.445 816.061 451.226C821.792 450.734 827.527 450.325 833.285 449.942C834.911 449.842 836.508 449.46 838.005 448.818C840.053 447.954 841.743 446.408 842.784 444.44C846.768 437.353 850.916 430.293 854.954 423.233C861.095 412.45 867.372 401.364 873.322 390.883C879.271 380.402 885.195 369.867 891.117 359.387L902.414 339.522C910.475 325.364 918.545 311.197 926.624 297.021L942.345 269.654C943.846 267 945.401 264.453 946.874 261.716C947.364 260.773 947.783 259.792 948.129 258.787C948.704 257.371 948.876 255.822 948.621 254.315C948.365 252.806 947.695 251.396 946.684 250.25C942.427 244.941 938.214 239.551 934.048 234.078C928.398 226.853 922.828 219.493 917.178 212.185C911.065 204.25 904.871 196.42 898.785 188.484C890.407 177.649 882.139 166.867 873.76 155.922C866.483 146.563 859.2 137.203 851.922 127.843C846.865 121.331 841.826 114.798 836.804 108.249L835.794 106.964C834.761 105.543 833.33 104.46 831.682 103.856ZM513.642 0.454234C512.482 -0.0406948 511.189 -0.13438 509.97 0.188941L499.9 2.48639L485.978 5.74419L471.733 9.05509L448.942 14.5308L426.892 19.7836C419.385 21.5624 411.88 23.2585 404.402 25.0099C399.818 26.0771 395.288 27.1996 390.758 28.2942L369.225 33.3295L362.592 34.969C361.14 35.2984 359.769 35.9458 358.588 36.8632C357.412 37.7806 356.448 38.9482 355.77 40.2802C352.747 45.6073 349.707 51.0061 346.651 56.4789C340.609 67.0606 334.605 77.6429 328.64 88.2241C323.4 97.5014 318.187 106.809 312.947 116.059C307.762 125.071 302.593 134.135 297.445 143.257C292.834 151.302 288.325 159.374 283.795 167.42C281.888 170.813 279.927 174.208 277.987 177.628V177.904C276.61 179.512 275.814 181.542 275.738 183.661C275.662 185.779 276.312 187.861 277.575 189.561C281.959 198.902 286.364 208.254 290.785 217.614C294.844 226.133 298.919 234.662 303.01 243.199C306.803 251.135 310.682 259.07 314.475 267.006C317.645 273.683 320.75 280.39 323.92 287.068C325.502 290.405 327.139 293.743 328.721 297.054C329.951 299.79 331.344 302.53 332.682 305.267C333.007 305.949 333.359 306.606 333.657 307.289C334.129 308.588 335.044 309.68 336.237 310.371C337.429 311.062 338.827 311.31 340.187 311.066L345.372 310.435C354.838 309.23 364.31 308.058 373.755 306.827C378.176 306.252 382.565 305.591 386.987 305.044C388.51 304.897 389.972 304.361 391.224 303.489C392.481 302.618 393.495 301.441 394.167 300.067C394.79 298.927 395.245 297.699 395.51 296.427C396.545 291.639 397.439 286.93 398.425 282.032C399.406 277.134 400.474 272.233 401.482 267.335C403.145 259.344 404.733 251.354 406.423 243.363C407.437 238.464 408.574 233.591 409.642 228.692C409.886 227.544 410.027 226.34 410.271 225.164C411.419 219.855 412.59 214.379 413.738 208.906C414.692 204.666 415.537 200.618 416.469 196.459C416.767 195.018 417.418 193.673 418.371 192.554C419.325 191.435 420.55 190.574 421.923 190.055C422.675 189.654 423.511 189.437 424.363 189.418C425.214 189.4 426.059 189.582 426.829 189.949C427.597 190.316 428.269 190.856 428.792 191.53C429.315 192.204 429.675 192.995 429.84 193.833C430.024 194.457 430.151 195.1 430.221 195.748C430.493 198.347 430.741 200.948 431.014 203.548C432.242 214.904 433.497 226.261 434.697 237.617C435.079 241.174 435.327 244.761 435.681 248.345C436.118 252.559 436.636 256.744 437.099 260.957C437.482 264.432 437.835 267.882 438.19 271.357C438.845 277.624 439.476 283.921 440.158 290.188C440.362 291.359 440.662 292.515 441.058 293.637C441.286 294.488 441.758 295.255 442.418 295.838C443.077 296.422 443.895 296.794 444.767 296.916C446.27 297.107 447.793 297.107 449.297 296.916C454.455 296.341 459.615 295.603 464.801 294.947C471.487 294.071 478.364 293.276 485.131 292.4C489.116 291.88 493.074 291.2 497.058 290.708C498.628 290.524 500.132 289.959 501.435 289.063C502.737 288.166 503.8 286.963 504.535 285.561C507.947 279.623 511.306 273.656 514.664 267.691L523.887 251.269C529.181 241.728 534.643 231.978 540.264 222.017C545.886 212.057 551.49 202.112 557.075 192.188C561.114 185.109 565.138 178.01 569.14 170.895C572.715 164.465 576.26 158.089 579.808 151.741C584.12 144.353 588.186 137.02 592.307 129.605C592.917 128.351 593.344 127.013 593.566 125.636C593.72 124.718 593.687 123.778 593.476 122.872C593.266 121.965 592.882 121.107 592.339 120.351C590.292 117.26 588.299 114.169 586.28 111.05C580.021 101.254 573.734 91.4737 567.421 81.714C563 74.9008 558.496 68.0582 554.075 61.2172C550.445 55.5797 546.811 49.8864 543.154 44.2491L522.029 11.708C520.475 9.32811 518.975 6.94619 517.447 4.56627C517.12 4.01969 516.737 3.47338 516.383 2.92678C515.77 1.82054 514.804 0.949843 513.642 0.454234Z"/>
</mask>
<path d="M312.774 694.382C311.463 694.333 310.162 694.648 309.024 695.295C307.881 695.947 306.938 696.898 306.31 698.05C304.451 701.223 302.652 704.456 300.853 707.683L285.107 735.485L270.092 762.222C266.846 767.997 263.541 773.745 260.29 779.494L246.841 803.351C242.555 810.93 238.214 818.461 233.928 826.04C231.799 829.816 229.724 833.652 227.594 837.428L220.116 850.696C219.493 851.848 218.946 853.027 218.702 853.902C218.106 855.07 217.759 856.347 217.683 857.656C217.608 858.966 217.803 860.275 218.263 861.503C219.352 864.817 220.501 868.099 221.65 871.386C223.861 877.651 226.012 883.915 228.25 890.158C231.089 898.145 234.123 906.11 236.849 914.102C239.905 922.621 242.934 931.124 245.936 939.606C249.268 948.929 252.579 958.263 255.874 967.608L263.541 989.499C265.86 996.068 268.239 1002.6 270.558 1009.17C273.961 1018.7 277.347 1028.22 280.734 1037.75C281.086 1038.78 281.471 1039.79 281.883 1040.8C282.376 1042.2 283.227 1043.45 284.354 1044.41C285.481 1045.37 286.841 1046.02 288.293 1046.28C291.024 1046.83 293.755 1047.37 296.48 1047.87L307.399 1049.67C309.853 1050.06 312.53 1050.41 314.795 1050.74C317.06 1051.07 319.298 1051.48 321.536 1051.89C326.228 1052.68 330.704 1053.53 335.619 1054.32C340.528 1055.12 345.475 1055.8 350.384 1056.59C353.115 1057.06 355.846 1057.66 358.572 1058.13C360.154 1058.4 361.796 1058.57 363.378 1058.82L378.469 1061.22C380.295 1061.52 382.126 1061.91 383.925 1062.24L398.669 1064.75C400.685 1065.11 402.733 1065.36 404.776 1065.68C409.225 1066.4 413.841 1067.08 418.425 1067.85C423.447 1068.78 428.47 1069.71 433.464 1070.58L438.92 1071.49L459.472 1074.74C461.446 1075.24 463.531 1075.02 465.362 1074.13C467.192 1073.24 468.654 1071.73 469.49 1069.87C472.792 1064.26 475.983 1058.57 479.258 1052.96C485.734 1041.88 492.219 1030.81 498.715 1019.73C503.355 1011.89 507.98 1004.03 512.584 996.144C518.451 986.157 524.263 976.09 530.131 966.044L553.165 926.935C556.249 921.709 559.444 916.373 562.473 911.233C565.502 906.088 568.478 900.91 571.453 895.711C572.53 893.934 573.146 891.913 573.241 889.832C573.337 887.751 572.909 885.681 571.998 883.812C571.043 881.948 570.14 880.09 569.267 878.199C564.792 868.659 560.335 859.107 555.895 849.544C552.157 841.748 548.608 833.924 544.979 826.149C540.995 817.559 536.951 809.018 532.967 800.455C526.653 786.628 520.287 772.811 513.864 759.021C510.753 752.317 507.614 745.612 504.53 738.908L496.122 721.038C493.375 715.018 490.592 709.003 487.772 702.999C487.227 701.625 486.295 700.435 485.089 699.582C483.882 698.723 482.454 698.245 480.978 698.191C479.995 697.968 479.012 697.968 478.056 697.968L452.35 697.311V697.039H435.1C432.371 697.012 429.642 696.762 426.913 696.762C425.504 696.664 424.084 696.778 422.707 697.088C421.07 697.539 419.607 698.468 418.501 699.756C417.391 701.043 416.686 702.63 416.486 704.32C415.391 709.655 414.275 715.398 413.294 720.299C412.308 725.2 411.273 730.1 410.319 734.996C409.284 740.331 408.325 745.694 407.312 751.029C407.014 752.643 406.635 754.235 406.31 755.821C404.863 763.183 403.356 770.545 401.937 777.907C400.848 783.569 399.834 789.236 398.772 794.897C398.008 798.842 397.217 802.808 396.453 806.747C395.554 811.452 394.654 816.135 393.722 820.841C393.533 821.797 393.316 822.759 393.094 823.715C392.601 825.627 391.479 827.312 389.902 828.502C388.45 829.577 386.635 830.045 384.841 829.816C383.048 829.588 381.411 828.675 380.268 827.268C379.195 825.888 378.534 824.226 378.355 822.487C378.03 818.488 377.732 814.381 377.407 810.469C377.076 806.557 376.778 802.672 376.421 798.755C375.9 792.789 375.332 786.85 374.838 780.885C374.156 772.757 373.5 764.683 372.844 756.473C372.433 751.382 372.026 746.264 371.587 741.179C371.398 738.908 371.127 736.636 370.932 734.365C370.309 726.677 369.734 718.957 369.106 711.269C368.862 708.34 368.558 705.412 368.342 702.483C368.211 700.848 367.605 699.283 366.597 697.995C366.049 697.229 365.351 696.594 364.543 696.121C363.73 695.648 362.831 695.355 361.899 695.263C361.362 695.23 360.826 695.23 360.295 695.263L315.039 694.382H312.774ZM828.634 500.269C822.358 500.433 816.052 500.709 809.775 500.9C806.855 501.119 803.906 501.118 800.986 501.118C797.52 501.227 793.726 501.585 790.587 501.585C787.449 501.585 784.281 501.339 781.142 501.585C773.119 502.351 764.93 501.966 756.742 502.349C749.374 502.677 742.005 502.842 731.608 503.171C726.177 503.308 717.715 503.471 709.283 503.744C702.132 503.991 694.982 504.401 687.804 504.62C681.309 504.811 674.784 505.002 668.289 505.002C665.37 505.084 662.451 505.33 659.504 505.33C655.329 505.44 651.26 505.606 647.138 505.606C642.581 505.743 638.049 506.153 633.491 506.153C631.597 506.139 629.733 506.638 628.099 507.601C626.465 508.565 625.124 509.96 624.215 511.629C619.612 519.4 615.015 527.171 610.431 534.943C605.318 543.681 600.225 552.412 595.149 561.132C594.515 562.154 593.948 563.213 593.455 564.305C592.58 566.125 592.332 568.19 592.746 570.168C593.16 572.146 594.214 573.938 595.746 575.253C604.125 582.67 612.561 590.032 620.939 597.421C624.897 601.088 629.017 604.783 633.084 608.363L656.584 628.999L684.719 653.763C685.688 654.611 686.601 655.529 687.45 656.502C688.351 657.491 689.025 658.67 689.418 659.952C689.809 661.229 689.913 662.582 689.72 663.907C689.526 665.233 689.037 666.499 688.296 667.613C687.555 668.727 686.575 669.661 685.428 670.351C684.271 671.074 682.961 671.519 681.603 671.65C680.242 671.775 678.869 671.584 677.597 671.085C675.113 670.4 672.711 669.362 670.337 668.346L629.401 650.916L597.302 637.371L568.209 625.06C567.208 624.63 566.165 624.31 565.098 624.098C563.557 623.729 561.943 623.821 560.452 624.359C558.96 624.891 557.655 625.848 556.695 627.113C556.003 627.972 555.381 628.89 554.837 629.852C549.088 639.572 543.349 649.308 537.618 659.05C533.361 666.244 529.044 673.443 524.786 680.636C524.241 681.565 523.726 682.527 523.262 683.51C522.628 684.782 522.273 686.173 522.23 687.585C522.188 689.003 522.456 690.416 523.014 691.72C524.106 694.214 525.28 696.648 526.427 699.115C531.093 708.938 535.734 718.783 540.428 728.579C542.884 733.67 545.423 738.734 547.879 743.825C551.445 751.284 554.965 758.831 558.441 766.459C563.517 777.157 568.458 787.665 573.67 798.554C578.883 809.447 584.205 820.232 589.418 831.175C593.375 839.384 597.197 847.594 601.155 855.803C604.375 862.481 607.674 869.077 610.949 875.727C611.785 877.493 613.093 878.987 614.728 880.041C616.361 881.101 618.259 881.687 620.204 881.725C628.5 882.519 636.962 883.258 645.148 884.024C648.723 884.35 652.381 884.621 656.065 884.98C657.784 885.143 659.506 885.469 661.224 885.637C666.518 886.126 671.702 886.485 677.432 887.028C683.164 887.577 688.868 888.234 694.572 888.81C699.43 889.272 703.991 889.712 709.177 890.152C714.361 890.587 719.572 890.81 724.728 891.467C736.355 892.972 748.041 893.711 759.722 894.803L782.698 896.966C787.883 897.455 793.097 897.84 798.282 898.335C804.641 898.932 811.249 899.671 817.389 900.247C823.529 900.823 829.695 901.285 835.862 901.834C837.491 901.997 839.136 901.72 840.619 901.03C842.103 900.334 843.374 899.253 844.297 897.895C845.081 896.852 845.812 895.765 846.483 894.64L866.077 861.802C869.653 855.755 873.337 849.729 876.994 843.682C882.452 834.652 887.913 825.676 893.371 816.619C898.829 807.562 904.285 798.369 909.743 789.252C913.564 782.933 917.469 776.636 921.29 770.317C926.011 762.52 930.649 754.664 935.371 746.84C939.11 740.597 942.934 734.387 946.7 728.144C948.992 724.341 951.254 720.484 953.574 716.68C955.429 713.616 957.368 710.6 959.251 707.536C960.139 706.183 960.951 704.776 961.68 703.325C962.631 701.554 963.083 699.555 962.987 697.539C962.891 695.534 962.251 693.584 961.135 691.91C955.113 682.369 949.037 672.834 942.906 663.315C937.939 655.377 933.108 647.39 928.169 639.452C925.112 634.584 921.918 629.792 918.861 624.918C915.367 619.393 911.955 613.78 908.516 608.309C904.777 602.316 901.202 596.758 897.245 590.358C893.288 583.957 889.359 577.552 885.402 571.206C882.045 565.838 878.631 560.556 875.274 555.221C871.235 548.679 867.112 542.111 863.045 535.569L854.859 522.299C851.512 516.954 848.147 511.618 844.763 506.291C844.299 505.552 843.805 504.864 843.286 504.153C842.49 502.977 841.422 502.011 840.175 501.335C838.926 500.659 837.53 500.291 836.111 500.269H828.634ZM196.177 526.899C193.04 527.09 189.897 527.392 186.76 527.583C181.574 527.912 176.388 528.157 171.176 528.486C166.538 528.814 161.899 529.256 157.261 529.584L147.188 530.268C140.696 530.679 134.194 531.034 127.703 531.5C118.502 532.156 109.279 532.318 100.111 533.303C95.4729 533.796 90.8021 533.852 86.1367 534.126C85.2643 534.153 84.4136 534.343 83.5412 534.343C82.3383 534.372 81.1678 534.717 80.1383 535.346C79.1141 535.975 78.2743 536.87 77.7 537.93C76.5295 539.872 75.3862 541.844 74.2917 543.838C70.8292 550.135 67.4155 556.433 63.9476 562.724C61.5201 567.103 59.0384 571.428 56.6108 575.802L49.4041 588.94C45.9091 595.21 42.2787 601.746 38.9517 607.739C35.6193 613.731 32.341 619.724 29.014 625.717L18.4261 644.875L4.99347 669.118C3.90436 671.117 2.94525 673.198 1.72064 675.116C0.214233 677.556 -0.327576 680.473 0.192627 683.293C0.376831 684.369 0.642395 685.434 0.983765 686.466C3.62262 695.224 6.27771 703.966 8.95447 712.687C12.1189 722.972 15.3376 733.235 18.4532 743.553C22.3275 756.25 26.1205 769.062 29.9948 781.868C32.3193 789.475 34.6873 797.054 37.0336 804.633C38.7025 810.246 40.3389 815.723 42.0295 821.194C42.7664 823.688 43.5304 826.203 44.4082 828.664C44.7875 829.648 45.3131 830.572 45.9634 831.397C46.3481 831.93 46.8466 832.365 47.421 832.674C48.0007 832.979 48.6401 833.158 49.2903 833.18C55.1316 833.62 60.9728 834.136 66.8086 834.603C73.5764 835.152 80.431 835.804 87.2258 836.217C95.5759 836.765 103.85 837.863 112.227 838.053C117.088 838.162 121.943 838.874 126.803 839.308L132.969 839.716L146.613 840.677L156.334 841.552L177.754 843.22L182.284 843.633H183.926C185.102 843.78 186.299 843.6 187.383 843.117C188.472 842.639 189.409 841.873 190.092 840.895C190.753 840.031 191.344 839.113 191.869 838.156L211.842 802.998C217.629 792.816 223.411 782.58 229.198 772.371L245.004 744.596L260.669 717.234C263.535 712.334 266.369 707.134 268.992 702.483C271.609 697.827 274.102 693.143 276.827 688.547C277.884 686.901 278.507 685.01 278.642 683.054C278.783 681.103 278.431 679.142 277.618 677.36C272.948 666.086 268.418 654.807 263.806 643.505C262.17 639.485 260.561 635.459 258.897 631.438C258.605 630.618 258.247 629.825 257.83 629.059C257.266 627.798 256.264 626.782 255.007 626.217C253.75 625.646 252.324 625.554 251.008 625.967C250.168 626.168 249.355 626.467 248.575 626.842C242.766 629.575 237.25 632.177 231.165 635.051C225.08 637.92 218.913 640.659 212.801 643.397L181.85 657.817C176.719 660.196 171.588 662.5 166.456 664.826C166.066 665.021 165.665 665.195 165.253 665.347C164.386 665.803 163.406 666.021 162.425 665.983C161.439 665.939 160.48 665.635 159.651 665.108C158.821 664.576 158.15 663.837 157.694 662.962C157.239 662.087 157.023 661.104 157.071 660.12C156.941 658.708 157.136 657.279 157.635 655.953C158.139 654.627 158.935 653.427 159.965 652.454C165.037 647.689 170.06 642.875 175.11 638.089C184.934 628.749 194.785 619.404 204.668 610.064L230.509 585.707C232.081 584.37 233.441 582.8 234.546 581.056C235.315 579.844 235.776 578.459 235.89 577.03C235.998 575.596 235.754 574.161 235.18 572.846C233.76 569.152 232.286 565.512 230.786 561.904C228.331 555.857 225.844 549.831 223.389 543.784L218.42 531.362C218.079 530.419 217.673 529.503 217.19 528.624C216.779 527.799 216.139 527.106 215.354 526.623C214.568 526.14 213.663 525.883 212.742 525.886C212.525 525.872 212.308 525.872 212.091 525.886L196.177 526.899ZM491.328 326.936C483.633 327.374 475.992 328.333 468.352 329.318C466.633 329.57 464.901 329.727 463.166 329.785C459.155 329.868 455.196 330.466 451.212 330.931C445.59 331.615 439.991 332.164 434.369 332.794C427.056 333.642 419.742 334.52 412.405 335.34L392.671 337.473L362.923 340.731C358.935 341.169 354.947 341.606 350.937 341.989C347.691 342.3 344.543 343.284 341.693 344.875C338.843 346.467 336.35 348.632 334.372 351.237C332.178 354.207 330.216 357.346 328.504 360.623C324.028 368.203 319.634 375.841 315.24 383.476C309.783 392.98 304.326 402.493 298.87 412.016L285.004 435.988C281.13 442.665 277.304 449.372 273.43 456.049L261.693 476.382C259.705 479.857 257.57 483.277 255.689 486.834C253.674 490.34 252.492 494.26 252.216 498.295C251.945 502.33 252.59 506.376 254.107 510.122C257.326 518.331 260.599 526.543 263.85 534.752C267.762 544.566 271.68 554.357 275.613 564.115C278.561 571.504 281.563 578.839 284.511 586.201C287.876 594.704 291.251 603.196 294.633 611.678C296.079 615.372 297.586 618.991 299.033 622.626C301.596 629.059 304.131 635.432 306.7 641.783C308.163 645.809 310.867 649.259 314.427 651.634C317.044 653.389 320.116 654.334 323.27 654.367C326.841 654.367 330.417 654.399 333.993 654.644C342.343 655.247 350.531 655.051 358.713 655.241C366.028 655.41 373.294 655.518 380.555 655.877C392.042 656.475 403.562 656.23 415.05 656.61C421.108 656.806 426.975 656.969 433.279 657.322C439.583 657.681 445.969 657.681 452.382 657.681C457.458 657.789 462.565 657.849 467.669 658.067C472.082 658.36 476.493 657.442 480.422 655.41C484.352 653.372 487.654 650.297 489.967 646.516C492.806 642.272 495.233 637.757 497.826 633.351C502.356 625.598 506.906 617.817 511.473 610.01L527.491 582.643C535.514 569.087 543.521 555.504 551.509 541.893C556.749 533 561.907 524.051 567.119 515.157C571.076 508.399 575.034 501.64 579.073 494.937C580.864 492.083 582.164 488.947 582.919 485.662C584.339 479.659 583.525 473.34 580.628 467.898C575.225 457.746 569.55 447.676 564.092 437.58C560.463 430.875 556.833 423.976 553.176 417.189C550.692 412.647 548.178 408.021 545.667 403.505C543.156 398.991 540.701 394.391 538.19 389.822L524.543 364.921C521.323 359.01 518.123 353.078 514.938 347.13C513.056 343.683 511.278 340.209 509.34 336.816C507.689 333.534 505.085 330.833 501.868 329.069C498.652 327.305 494.975 326.559 491.328 326.936ZM246.337 207.681C244.072 207.955 241.834 208.338 239.569 208.721C235.722 209.323 232.037 209.926 228.022 210.61C224.012 211.294 219.894 212.059 215.825 212.743L198.827 215.481L177.619 218.738C173.143 219.45 168.607 220.079 164.132 220.845C158.269 221.857 152.4 223.006 146.532 224.018C139.791 225.167 133.051 226.207 126.31 227.329C124.619 227.602 122.896 227.986 121.2 228.342C119.401 228.817 117.846 229.953 116.838 231.52C116.085 232.592 115.392 233.706 114.763 234.858C107.377 247.92 99.9865 260.963 92.601 273.988C86.9819 283.923 81.1353 294.051 75.6788 303.765C70.2223 313.479 64.7658 323.03 59.3093 332.635C55.3212 339.613 51.2519 346.539 47.2692 353.545C45.4973 356.637 43.8339 359.838 42.1432 362.984C41.5743 364.039 41.2384 365.205 41.168 366.401C41.0975 367.597 41.2871 368.795 41.726 369.908C45.3023 380.28 48.7701 390.707 52.2651 401.134C53.6577 405.293 54.9961 409.397 56.3887 413.502C58.567 419.987 60.8591 426.61 63.0156 432.958C65.1722 439.306 67.2746 445.737 69.4312 452.112C73.3976 463.861 77.3748 475.602 81.3575 487.333C81.7964 488.647 82.2028 490.046 82.6363 491.387C82.723 492.016 82.9398 492.622 83.2648 493.17C83.5845 493.717 84.0072 494.194 84.5165 494.576C85.0259 494.957 85.6002 495.236 86.2125 495.392C86.8303 495.549 87.4697 495.581 88.0982 495.488H95.5759C102.506 495.242 109.469 495.078 116.399 494.777C124.722 494.422 133.213 493.929 141.401 493.546C151.17 493.081 160.913 492.699 170.656 492.289C173.17 492.152 175.652 492.151 178.16 492.151C188.775 491.959 199.396 491.195 209.984 490.538C211.284 490.442 212.59 490.442 213.89 490.538C215.559 490.705 217.239 490.352 218.708 489.529C220.171 488.707 221.346 487.452 222.078 485.938C223.438 483.448 224.944 481.04 226.364 478.605L241.509 452.335C243.443 448.942 245.437 445.574 247.35 442.153C247.865 441.207 248.277 440.207 248.575 439.172C248.987 437.921 249.03 436.578 248.705 435.304C248.38 434.03 247.702 432.872 246.743 431.971L237.987 423.217L225.459 410.849L190.661 376.53C190.336 376.23 190.06 375.902 189.707 375.628C184.906 371.578 188.125 364.487 192.249 362.544C192.942 362.236 193.695 362.077 194.454 362.077C195.213 362.077 195.971 362.235 196.665 362.544L201.552 364.353L233.181 376.175L267.052 388.707C268.174 389.145 269.317 389.475 270.439 389.885C271.75 390.439 273.213 390.549 274.595 390.198C275.977 389.848 277.212 389.057 278.111 387.943C279.504 386.257 280.712 384.419 281.709 382.468C287.166 373.054 292.628 363.638 298.084 354.224C300.815 349.409 303.541 344.564 306.272 339.803C307.182 338.378 307.702 336.739 307.778 335.049C307.854 333.358 307.486 331.675 306.711 330.173C301.433 318.825 296.177 307.549 290.937 296.348C284.603 282.419 278.241 268.488 271.826 254.559C265.914 241.789 260.03 229.02 254.172 216.25C253.294 214.362 252.422 212.498 251.577 210.61C251.192 209.579 250.45 208.721 249.491 208.185C248.531 207.649 247.415 207.468 246.337 207.681ZM831.682 103.856C830.035 103.252 828.247 103.151 826.544 103.569C822.287 104.28 818.247 105.185 814.098 105.951C812.816 106.197 811.506 106.253 810.225 106.471C805.185 107.401 800.171 108.315 795.186 109.209C792.293 109.729 789.453 110.413 786.561 110.933C777.937 112.52 769.256 114.025 760.632 115.64C756.129 116.516 751.57 117.529 746.985 118.377C740.053 119.636 733.094 120.784 726.163 122.07C721.141 122.973 716.171 124.015 711.177 124.973C709.459 125.301 707.74 125.516 706.049 125.817C701.656 126.583 697.288 127.299 692.894 128.093C690.466 128.531 688.037 129.103 685.581 129.541C680.669 130.417 675.752 131.209 670.839 132.03L665.384 133.043C656.65 134.712 647.914 136.439 639.153 137.998C637.163 138.274 635.266 139.024 633.624 140.185C631.981 141.346 630.64 142.886 629.713 144.674C623.954 155.018 618.029 165.28 612.161 175.57C607.876 183.013 603.564 190.458 599.334 197.929C592.784 209.449 586.316 221.024 579.766 232.544C575.472 240.115 571.172 247.68 566.86 255.232L552.202 281.014C548.245 287.991 544.289 294.779 540.36 301.674C539.978 302.331 539.623 303.013 539.296 303.696C538.632 304.893 538.28 306.242 538.28 307.612C538.28 308.981 538.632 310.326 539.296 311.522C540.387 313.519 541.559 315.49 542.677 317.46L558.589 345.183C560.772 348.959 563.064 352.654 565.193 356.458C566.016 358.078 567.407 359.341 569.098 359.997C570.79 360.653 572.666 360.661 574.363 360.018C576.904 359.083 579.385 357.985 581.787 356.734L601.276 346.992C610.01 342.614 619.123 338.013 627.501 333.908C635.879 329.803 644.284 325.725 652.662 321.593L681.513 307.172C682.469 306.669 683.453 306.22 684.46 305.829C685.427 305.469 686.46 305.309 687.492 305.357C688.523 305.405 689.536 305.661 690.466 306.111C691.396 306.56 692.225 307.199 692.905 307.978C693.584 308.757 694.103 309.664 694.424 310.647C694.831 311.895 694.892 313.234 694.604 314.515C694.316 315.797 693.686 316.974 692.783 317.927C691.774 319.137 690.641 320.239 689.402 321.211L657.139 350.659C648.325 358.703 639.539 366.804 630.697 374.848C625.403 379.692 620.049 384.48 614.754 389.296C610.278 393.456 605.777 397.51 601.356 401.669C600.278 402.705 599.356 403.894 598.625 405.198C597.784 406.802 597.398 408.61 597.508 410.419C597.619 412.228 598.224 413.971 599.255 415.459L610.415 434.614C614.29 441.291 618.139 447.998 621.987 454.675C623.188 456.755 624.471 458.782 625.617 460.862C626.252 462.202 627.267 463.325 628.533 464.093C629.799 464.862 631.261 465.238 632.74 465.181H635.391L640.847 464.746C650.153 464.089 659.436 463.077 668.797 462.831C671.388 462.776 673.98 462.392 676.544 462.173C682.602 461.598 688.635 461.026 694.694 460.506C698.05 460.233 701.435 460.285 704.764 459.875C708.386 459.423 712.031 459.156 715.68 459.079C717.399 459.052 719.147 458.671 720.866 458.671C723.349 458.506 725.865 458.422 728.348 458.23C730.83 458.039 733.285 457.739 735.767 457.493L740.302 457.084L752.636 456.097C754.137 455.988 755.665 455.768 757.166 455.768L768.082 454.919L769.723 454.729L792.127 453.359C792.554 453.387 792.982 453.387 793.408 453.359C798.348 452.667 803.328 452.248 808.314 452.102C810.906 451.828 813.497 451.445 816.061 451.226C821.792 450.734 827.527 450.325 833.285 449.942C834.911 449.842 836.508 449.46 838.005 448.818C840.053 447.954 841.743 446.408 842.784 444.44C846.768 437.353 850.916 430.293 854.954 423.233C861.095 412.45 867.372 401.364 873.322 390.883C879.271 380.402 885.195 369.867 891.117 359.387L902.414 339.522C910.475 325.364 918.545 311.197 926.624 297.021L942.345 269.654C943.846 267 945.401 264.453 946.874 261.716C947.364 260.773 947.783 259.792 948.129 258.787C948.704 257.371 948.876 255.822 948.621 254.315C948.365 252.806 947.695 251.396 946.684 250.25C942.427 244.941 938.214 239.551 934.048 234.078C928.398 226.853 922.828 219.493 917.178 212.185C911.065 204.25 904.871 196.42 898.785 188.484C890.407 177.649 882.139 166.867 873.76 155.922C866.483 146.563 859.2 137.203 851.922 127.843C846.865 121.331 841.826 114.798 836.804 108.249L835.794 106.964C834.761 105.543 833.33 104.46 831.682 103.856ZM513.642 0.454234C512.482 -0.0406948 511.189 -0.13438 509.97 0.188941L499.9 2.48639L485.978 5.74419L471.733 9.05509L448.942 14.5308L426.892 19.7836C419.385 21.5624 411.88 23.2585 404.402 25.0099C399.818 26.0771 395.288 27.1996 390.758 28.2942L369.225 33.3295L362.592 34.969C361.14 35.2984 359.769 35.9458 358.588 36.8632C357.412 37.7806 356.448 38.9482 355.77 40.2802C352.747 45.6073 349.707 51.0061 346.651 56.4789C340.609 67.0606 334.605 77.6429 328.64 88.2241C323.4 97.5014 318.187 106.809 312.947 116.059C307.762 125.071 302.593 134.135 297.445 143.257C292.834 151.302 288.325 159.374 283.795 167.42C281.888 170.813 279.927 174.208 277.987 177.628V177.904C276.61 179.512 275.814 181.542 275.738 183.661C275.662 185.779 276.312 187.861 277.575 189.561C281.959 198.902 286.364 208.254 290.785 217.614C294.844 226.133 298.919 234.662 303.01 243.199C306.803 251.135 310.682 259.07 314.475 267.006C317.645 273.683 320.75 280.39 323.92 287.068C325.502 290.405 327.139 293.743 328.721 297.054C329.951 299.79 331.344 302.53 332.682 305.267C333.007 305.949 333.359 306.606 333.657 307.289C334.129 308.588 335.044 309.68 336.237 310.371C337.429 311.062 338.827 311.31 340.187 311.066L345.372 310.435C354.838 309.23 364.31 308.058 373.755 306.827C378.176 306.252 382.565 305.591 386.987 305.044C388.51 304.897 389.972 304.361 391.224 303.489C392.481 302.618 393.495 301.441 394.167 300.067C394.79 298.927 395.245 297.699 395.51 296.427C396.545 291.639 397.439 286.93 398.425 282.032C399.406 277.134 400.474 272.233 401.482 267.335C403.145 259.344 404.733 251.354 406.423 243.363C407.437 238.464 408.574 233.591 409.642 228.692C409.886 227.544 410.027 226.34 410.271 225.164C411.419 219.855 412.59 214.379 413.738 208.906C414.692 204.666 415.537 200.618 416.469 196.459C416.767 195.018 417.418 193.673 418.371 192.554C419.325 191.435 420.55 190.574 421.923 190.055C422.675 189.654 423.511 189.437 424.363 189.418C425.214 189.4 426.059 189.582 426.829 189.949C427.597 190.316 428.269 190.856 428.792 191.53C429.315 192.204 429.675 192.995 429.84 193.833C430.024 194.457 430.151 195.1 430.221 195.748C430.493 198.347 430.741 200.948 431.014 203.548C432.242 214.904 433.497 226.261 434.697 237.617C435.079 241.174 435.327 244.761 435.681 248.345C436.118 252.559 436.636 256.744 437.099 260.957C437.482 264.432 437.835 267.882 438.19 271.357C438.845 277.624 439.476 283.921 440.158 290.188C440.362 291.359 440.662 292.515 441.058 293.637C441.286 294.488 441.758 295.255 442.418 295.838C443.077 296.422 443.895 296.794 444.767 296.916C446.27 297.107 447.793 297.107 449.297 296.916C454.455 296.341 459.615 295.603 464.801 294.947C471.487 294.071 478.364 293.276 485.131 292.4C489.116 291.88 493.074 291.2 497.058 290.708C498.628 290.524 500.132 289.959 501.435 289.063C502.737 288.166 503.8 286.963 504.535 285.561C507.947 279.623 511.306 273.656 514.664 267.691L523.887 251.269C529.181 241.728 534.643 231.978 540.264 222.017C545.886 212.057 551.49 202.112 557.075 192.188C561.114 185.109 565.138 178.01 569.14 170.895C572.715 164.465 576.26 158.089 579.808 151.741C584.12 144.353 588.186 137.02 592.307 129.605C592.917 128.351 593.344 127.013 593.566 125.636C593.72 124.718 593.687 123.778 593.476 122.872C593.266 121.965 592.882 121.107 592.339 120.351C590.292 117.26 588.299 114.169 586.28 111.05C580.021 101.254 573.734 91.4737 567.421 81.714C563 74.9008 558.496 68.0582 554.075 61.2172C550.445 55.5797 546.811 49.8864 543.154 44.2491L522.029 11.708C520.475 9.32811 518.975 6.94619 517.447 4.56627C517.12 4.01969 516.737 3.47338 516.383 2.92678C515.77 1.82054 514.804 0.949843 513.642 0.454234Z" fill="#FF722B" fill-opacity="0.2" stroke="#FFB795" stroke-opacity="0.05" stroke-width="16" mask="url(#path-1-inside-1_618_2548)"/>
</svg>
