<svg width="40" height="40" viewBox="0 0 40 40" fill="none" xmlns="http://www.w3.org/2000/svg">
<rect width="40" height="40" rx="20" fill="white" fill-opacity="0.2"/>
<g clip-path="url(#clip0_137_3297)">
<path d="M24.2571 19.3042L19.3071 16.0042C19.1828 15.9213 19.0384 15.8737 18.8891 15.8664C18.7399 15.8592 18.5915 15.8926 18.4598 15.9631C18.3281 16.0337 18.218 16.1386 18.1413 16.2668C18.0646 16.395 18.0241 16.5416 18.0242 16.691V23.291C18.0241 23.4404 18.0646 23.587 18.1413 23.7152C18.218 23.8434 18.3281 23.9483 18.4598 24.0188C18.5915 24.0894 18.7399 24.1228 18.8891 24.1156C19.0384 24.1083 19.1828 24.0607 19.3071 23.9778L24.2571 20.6778C24.3703 20.6025 24.4631 20.5004 24.5272 20.3806C24.5914 20.2607 24.625 20.1269 24.625 19.991C24.625 19.8551 24.5914 19.7212 24.5272 19.6014C24.4631 19.4816 24.3703 19.3795 24.2571 19.3042ZM19.6742 21.7493V18.2379L22.3122 19.991L19.6742 21.7493ZM31.4645 13.9603C31.3673 13.5801 31.1812 13.2285 30.9213 12.9344C30.6615 12.6403 30.3355 12.4123 29.9702 12.269C26.4351 10.9036 20.8086 10.916 20.4992 10.916C20.1898 10.916 14.5633 10.9036 11.0282 12.269C10.6629 12.4123 10.3369 12.6403 10.0771 12.9344C9.81728 13.2285 9.63111 13.5801 9.53394 13.9603C9.26684 14.9894 8.94922 16.8705 8.94922 19.991C8.94922 23.1115 9.26684 24.9925 9.53394 26.0217C9.63096 26.4021 9.81707 26.7539 10.0769 27.0482C10.3367 27.3424 10.6628 27.5706 11.0282 27.714C14.4148 29.0206 19.7155 29.066 20.4312 29.066H20.5673C21.283 29.066 26.5867 29.0206 29.9702 27.714C30.3356 27.5706 30.6617 27.3424 30.9215 27.0482C31.1814 26.7539 31.3675 26.4021 31.4645 26.0217C31.7316 24.9905 32.0492 23.1115 32.0492 19.991C32.0492 16.8705 31.7316 14.9894 31.4645 13.9603ZM29.8671 25.6134C29.8357 25.7399 29.7747 25.8572 29.6892 25.9556C29.6037 26.054 29.4961 26.1307 29.3752 26.1795C26.1113 27.4397 20.5601 27.417 20.5064 27.417H20.4992C20.4435 27.417 14.8964 27.4376 11.6305 26.1795C11.5096 26.1307 11.402 26.054 11.3165 25.9556C11.231 25.8572 11.17 25.7399 11.1386 25.6134C10.888 24.6718 10.5992 22.9373 10.5992 19.991C10.5992 17.0447 10.888 15.3102 11.1313 14.3738C11.1622 14.2465 11.2229 14.1284 11.3084 14.0292C11.394 13.9301 11.5019 13.8527 11.6232 13.8035C14.7706 12.5877 20.0444 12.566 20.4765 12.566H20.5044C20.5601 12.566 26.1123 12.5474 29.3731 13.8035C29.494 13.8523 29.6016 13.929 29.6871 14.0275C29.7726 14.1259 29.8336 14.2431 29.865 14.3697C30.1105 15.3102 30.3992 17.0447 30.3992 19.991C30.3992 22.9373 30.1105 24.6718 29.8671 25.6082V25.6134Z" fill="white"/>
</g>
<defs>
<clipPath id="clip0_137_3297">
<rect width="24" height="24" fill="white" transform="translate(8.5 7.99023)"/>
</clipPath>
</defs>
</svg>
